<svg width="37" height="36" viewBox="0 0 37 36" fill="none" xmlns="http://www.w3.org/2000/svg">
<g clip-path="url(#clip0_231_4757)">
<path d="M18.1875 36C28.1286 36 36.1875 27.9411 36.1875 18C36.1875 8.05888 28.1286 0 18.1875 0C8.24638 0 0.1875 8.05888 0.1875 18C0.1875 27.9411 8.24638 36 18.1875 36Z" fill="url(#paint0_linear_231_4757)"/>
<path d="M13.3564 17.9262C13.3362 18.3062 13.4673 18.6787 13.7209 18.9623C13.9746 19.246 14.3301 19.4177 14.71 19.44H14.7946C15.076 19.4396 15.3511 19.3567 15.586 19.2017C15.8208 19.0466 16.0051 18.8261 16.116 18.5675C16.2269 18.3088 16.2596 18.0233 16.21 17.7463C16.1604 17.4693 16.0308 17.2129 15.837 17.0088C15.6433 16.8046 15.394 16.6617 15.12 16.5977C14.8459 16.5337 14.5591 16.5514 14.2951 16.6487C14.031 16.7459 13.8011 16.9183 13.634 17.1448C13.4669 17.3712 13.3697 17.6416 13.3546 17.9226L13.3564 17.9262Z" fill="white"/>
<path d="M7.93835 17.5626C7.82404 17.5641 7.71443 17.6083 7.63113 17.6866C7.54783 17.7649 7.49689 17.8716 7.48835 17.9856V18C7.48388 18.1222 7.52726 18.2414 7.60928 18.3322C7.6913 18.4229 7.80548 18.4781 7.92755 18.486C8.03716 18.4692 8.13723 18.414 8.20995 18.3303C8.28266 18.2466 8.32329 18.1398 8.32458 18.0289C8.32588 17.918 8.28776 17.8103 8.21703 17.7249C8.14629 17.6395 8.04753 17.582 7.93835 17.5626Z" fill="white"/>
<path d="M13.2664 9.5634C13.3758 9.50622 13.4582 9.40811 13.4956 9.29045C13.5331 9.17278 13.5225 9.04509 13.4662 8.9352C13.4092 8.82555 13.3118 8.74232 13.1946 8.70303C13.0774 8.66375 12.9496 8.67148 12.838 8.7246C12.7335 8.78515 12.6563 8.88346 12.6221 8.99927C12.588 9.11508 12.5996 9.23958 12.6545 9.3471C12.7094 9.45462 12.8035 9.53699 12.9173 9.57723C13.0312 9.61747 13.1561 9.61252 13.2664 9.5634Z" fill="white"/>
<path d="M14.6236 12.159C14.6585 12.1451 14.6923 12.1282 14.7244 12.1086C14.8172 12.0766 14.9026 12.026 14.9751 11.9598C15.0477 11.8937 15.106 11.8133 15.1464 11.7238C15.1867 11.6343 15.2084 11.5374 15.2099 11.4392C15.2115 11.3411 15.1929 11.2436 15.1554 11.1528C15.1179 11.062 15.0622 10.9799 14.9918 10.9115C14.9214 10.843 14.8377 10.7897 14.7459 10.7548C14.6541 10.7199 14.5561 10.7041 14.458 10.7085C14.3599 10.7129 14.2637 10.7373 14.1754 10.7802C14.141 10.7941 14.1078 10.811 14.0764 10.8306C13.9169 10.9132 13.7941 11.0523 13.7319 11.2208C13.6697 11.3892 13.6728 11.5748 13.7404 11.7411C13.808 11.9075 13.9353 12.0425 14.0974 12.1198C14.2594 12.1972 14.4445 12.2111 14.6164 12.159H14.6236Z" fill="white"/>
<path d="M10.6474 13.7808C10.7477 13.6578 10.7951 13.5 10.7792 13.3421C10.7634 13.1842 10.6855 13.039 10.5628 12.9384C10.5287 12.9107 10.4919 12.8866 10.453 12.8664C10.3521 12.8155 10.2389 12.7942 10.1264 12.8049C10.0139 12.8156 9.90672 12.8579 9.81722 12.9269C9.72773 12.9959 9.65955 13.0887 9.62056 13.1948C9.58157 13.3008 9.57335 13.4158 9.59684 13.5263C9.62034 13.6368 9.6746 13.7384 9.75336 13.8194C9.83212 13.9005 9.93218 13.9576 10.042 13.9842C10.1518 14.0108 10.2669 14.0058 10.374 13.9698C10.4811 13.9338 10.5759 13.8683 10.6474 13.7808Z" fill="white"/>
<path d="M10.6852 17.298C10.5429 17.29 10.4015 17.3244 10.2788 17.3968C10.1561 17.4692 10.0577 17.5764 9.99594 17.7048C9.9342 17.8332 9.91193 17.977 9.93195 18.1181C9.95198 18.2591 10.0134 18.3911 10.1084 18.4972C10.2035 18.6033 10.3279 18.6789 10.4658 18.7143C10.6038 18.7497 10.7492 18.7434 10.8836 18.6961C11.018 18.6488 11.1354 18.5628 11.2209 18.4488C11.3063 18.3348 11.356 18.1981 11.3638 18.0558C11.3688 17.9612 11.3552 17.8666 11.3237 17.7773C11.2921 17.6879 11.2433 17.6057 11.1799 17.5353C11.1165 17.4649 11.0399 17.4077 10.9544 17.367C10.8689 17.3263 10.7761 17.3028 10.6816 17.298H10.6852Z" fill="white"/>
<path d="M9.88416 22.1292C9.74451 22.1991 9.63825 22.3215 9.58866 22.4697C9.53907 22.6178 9.55018 22.7795 9.61956 22.9194C9.69117 23.0595 9.81551 23.1654 9.96522 23.2139C10.1149 23.2623 10.2777 23.2493 10.4179 23.1777C10.558 23.1061 10.6639 22.9818 10.7123 22.832C10.7608 22.6823 10.7478 22.5195 10.6762 22.3794C10.6024 22.2432 10.4785 22.1409 10.3307 22.0942C10.183 22.0475 10.0229 22.0601 9.88416 22.1292Z" fill="white"/>
<path d="M12.6778 15.8112C12.8589 15.9451 13.0859 16.0016 13.3087 15.9681C13.5315 15.9347 13.7319 15.8142 13.8658 15.633C13.9997 15.4518 14.0561 15.2249 14.0227 15.0021C13.9893 14.7793 13.8687 14.5789 13.6876 14.445C13.6629 14.4266 13.637 14.4097 13.6102 14.3946C13.5201 14.3336 13.4189 14.2909 13.3124 14.269C13.2058 14.2471 13.096 14.2464 12.9892 14.267C12.8824 14.2875 12.7807 14.329 12.6899 14.3888C12.5991 14.4487 12.5209 14.5259 12.46 14.616L12.442 14.643C12.3187 14.828 12.2739 15.0544 12.3174 15.2725C12.3609 15.4905 12.4893 15.6823 12.6742 15.8058L12.6778 15.8112Z" fill="white"/>
<path d="M21.5518 12.06C21.6309 12.1118 21.7195 12.1475 21.8125 12.1651C21.9055 12.1826 22.001 12.1817 22.0936 12.1623C22.1862 12.1429 22.2741 12.1054 22.3523 12.0521C22.4304 11.9987 22.4972 11.9304 22.549 11.8512C22.6546 11.6926 22.6931 11.4986 22.656 11.3117C22.6189 11.1248 22.5092 10.9602 22.351 10.854C22.1916 10.7496 21.9974 10.7125 21.8109 10.751C21.6243 10.7895 21.4606 10.9003 21.3556 11.0592C21.3024 11.1356 21.265 11.2217 21.2453 11.3126C21.2256 11.4035 21.224 11.4974 21.2408 11.5889C21.2575 11.6804 21.2921 11.7677 21.3427 11.8458C21.3933 11.9239 21.4589 11.9912 21.5356 12.0438L21.5518 12.06Z" fill="white"/>
<path d="M23.0278 9.513C23.0764 9.54648 23.1312 9.57001 23.189 9.58225C23.2467 9.5945 23.3064 9.5952 23.3644 9.58433C23.4224 9.57345 23.4778 9.55122 23.5272 9.5189C23.5766 9.48658 23.6192 9.44482 23.6524 9.396L23.6668 9.3744C23.7004 9.3243 23.7238 9.26807 23.7356 9.20892C23.7475 9.14977 23.7476 9.08886 23.7359 9.02968C23.7242 8.9705 23.7009 8.91421 23.6674 8.86402C23.634 8.81384 23.5909 8.77074 23.5408 8.7372C23.4948 8.69285 23.4402 8.65836 23.3804 8.63583C23.3205 8.61331 23.2568 8.60323 23.1929 8.6062C23.1291 8.60918 23.0665 8.62516 23.009 8.65315C22.9516 8.68114 22.9004 8.72057 22.8587 8.76901C22.817 8.81745 22.7857 8.87389 22.7665 8.93488C22.7474 8.99587 22.7409 9.06012 22.7475 9.12369C22.754 9.18727 22.7735 9.24885 22.8047 9.30464C22.8358 9.36044 22.8781 9.40929 22.9288 9.4482C22.959 9.47383 22.9922 9.49559 23.0278 9.513Z" fill="white"/>
<path d="M20.1441 17.9064C20.123 18.2876 20.2541 18.6615 20.5086 18.9461C20.7631 19.2306 21.1202 19.4024 21.5013 19.4238H21.5805C21.8619 19.4234 22.1371 19.3405 22.3719 19.1855C22.6067 19.0304 22.791 18.8099 22.9019 18.5513C23.0128 18.2926 23.0455 18.0071 22.9959 17.7301C22.9463 17.4531 22.8167 17.1967 22.6229 16.9926C22.4292 16.7884 22.1799 16.6455 21.9059 16.5815C21.6318 16.5175 21.3451 16.5352 21.081 16.6325C20.8169 16.7297 20.587 16.9021 20.4199 17.1286C20.2528 17.355 20.1556 17.6254 20.1405 17.9064H20.1441Z" fill="white"/>
<path d="M15.1941 15.7014C15.3375 15.9955 15.5769 16.232 15.8726 16.3719C16.1684 16.5119 16.5031 16.5469 16.8214 16.4712C17.1398 16.3956 17.4228 16.2138 17.624 15.9557C17.8252 15.6977 17.9326 15.3788 17.9283 15.0516C17.9287 14.8258 17.8737 14.6032 17.7681 14.4036C17.596 14.0623 17.2954 13.8033 16.9323 13.6836C16.5693 13.5639 16.1736 13.5934 15.8322 13.7655C15.4909 13.9376 15.2319 14.2382 15.1122 14.6013C14.9926 14.9643 15.022 15.3601 15.1941 15.7014Z" fill="white"/>
<path d="M25.9419 12.8016C25.8013 12.8739 25.695 12.999 25.6465 13.1495C25.5979 13.2999 25.6109 13.4635 25.6827 13.6044C25.758 13.7434 25.8844 13.8478 26.0352 13.8954C26.1859 13.9431 26.3493 13.9304 26.4909 13.86C26.5689 13.8296 26.6396 13.7833 26.6986 13.7239C26.7576 13.6646 26.8035 13.5935 26.8333 13.5153C26.8632 13.4372 26.8763 13.3536 26.872 13.27C26.8676 13.1865 26.8457 13.1048 26.8079 13.0302C26.77 12.9555 26.7169 12.8897 26.652 12.8368C26.5872 12.784 26.512 12.7453 26.4312 12.7232C26.3505 12.7012 26.2661 12.6963 26.1833 12.7089C26.1006 12.7214 26.0214 12.7512 25.9509 12.7962L25.9419 12.8016Z" fill="white"/>
<path d="M22.8514 14.3172H22.8388C22.7399 14.3655 22.6515 14.4329 22.5787 14.5155C22.5059 14.5982 22.4502 14.6943 22.4148 14.7985C22.3793 14.9028 22.3648 15.013 22.3721 15.1228C22.3793 15.2327 22.4083 15.34 22.4572 15.4386C22.5305 15.5893 22.6469 15.7149 22.7917 15.7995C22.9364 15.884 23.1029 15.9238 23.2702 15.9137C23.4376 15.9037 23.5981 15.8443 23.7317 15.743C23.8653 15.6417 23.9658 15.5031 24.0206 15.3447C24.0754 15.1863 24.082 15.0152 24.0396 14.853C23.9973 14.6909 23.9077 14.5449 23.7824 14.4336C23.6571 14.3223 23.5016 14.2506 23.3355 14.2277C23.1695 14.2047 23.0004 14.2315 22.8496 14.3046L22.8514 14.3172Z" fill="white"/>
<path d="M18.1281 9.2934C18.2439 9.2988 18.3586 9.26992 18.458 9.21037C18.5574 9.15083 18.637 9.06327 18.6869 8.95868C18.7367 8.85408 18.7546 8.7371 18.7383 8.62239C18.7219 8.50769 18.6721 8.40035 18.595 8.31385C18.5179 8.22734 18.417 8.16552 18.3049 8.13611C18.1928 8.10671 18.0746 8.11103 17.965 8.14855C17.8553 8.18607 17.7592 8.2551 17.6887 8.34701C17.6181 8.43892 17.5762 8.5496 17.5683 8.6652C17.5632 8.82175 17.6184 8.97428 17.7226 9.09122C17.8268 9.20816 17.972 9.28055 18.1281 9.2934Z" fill="white"/>
<path d="M18.1156 13.005H18.1282C18.2953 13.0143 18.4615 12.9738 18.6057 12.8888C18.7499 12.8038 18.8657 12.678 18.9385 12.5273C19.0113 12.3765 19.0379 12.2076 19.0148 12.0418C18.9918 11.876 18.9202 11.7207 18.809 11.5956C18.6979 11.4704 18.5522 11.3809 18.3903 11.3385C18.2283 11.296 18.0575 11.3024 17.8992 11.3569C17.7409 11.4113 17.6023 11.5115 17.5008 11.6446C17.3994 11.7777 17.3396 11.9379 17.329 12.105C17.3207 12.2159 17.3345 12.3274 17.3697 12.4329C17.4049 12.5384 17.4607 12.6359 17.5339 12.7197C17.6071 12.8034 17.6962 12.8718 17.7961 12.9208C17.896 12.9698 18.0046 12.9984 18.1156 13.005Z" fill="white"/>
<path d="M13.5237 21.6756H13.5363C13.6351 21.6269 13.7234 21.5592 13.796 21.4764C13.8687 21.3936 13.9243 21.2973 13.9597 21.193C13.9952 21.0887 14.0097 20.9785 14.0025 20.8686C13.9954 20.7586 13.9666 20.6512 13.9179 20.5524C13.8445 20.4017 13.7281 20.2761 13.5834 20.1916C13.4387 20.107 13.2722 20.0672 13.1048 20.0773C12.9375 20.0873 12.7769 20.1467 12.6434 20.248C12.5098 20.3493 12.4093 20.4879 12.3545 20.6463C12.2997 20.8047 12.293 20.9758 12.3354 21.138C12.3778 21.3001 12.4673 21.4461 12.5927 21.5574C12.718 21.6687 12.8735 21.7404 13.0395 21.7633C13.2056 21.7863 13.3747 21.7595 13.5255 21.6864L13.5237 21.6756Z" fill="white"/>
<path d="M18.6772 14.2632C18.5007 14.5312 18.4188 14.8504 18.4444 15.1702C18.4701 15.4901 18.6018 15.7922 18.8187 16.0286C19.0356 16.2651 19.3252 16.4223 19.6417 16.4754C19.9581 16.5284 20.2832 16.4743 20.5654 16.3215C20.8475 16.1688 21.0706 15.9262 21.1992 15.6322C21.3277 15.3382 21.3544 15.0097 21.275 14.6989C21.1956 14.388 21.0147 14.1125 20.7609 13.9162C20.5071 13.7199 20.195 13.6139 19.8742 13.6152C19.6363 13.6142 19.402 13.673 19.1929 13.7862C18.9837 13.8995 18.8064 14.0635 18.6772 14.2632Z" fill="white"/>
<path d="M21.1827 20.304V20.2932C21.0556 20.0382 20.8556 19.8266 20.6081 19.6853C20.3606 19.544 20.0768 19.4793 19.7926 19.4994C19.5083 19.5195 19.2364 19.6235 19.0113 19.7982C18.7861 19.9729 18.6179 20.2105 18.5279 20.4809C18.4378 20.7512 18.43 21.0422 18.5055 21.317C18.5809 21.5918 18.7362 21.8381 18.9516 22.0246C19.1671 22.2111 19.433 22.3295 19.7158 22.3648C19.9986 22.4001 20.2855 22.3506 20.5401 22.2228C20.7085 22.1392 20.8587 22.0232 20.9821 21.8814C21.1055 21.7397 21.1998 21.5749 21.2595 21.3967C21.3192 21.2185 21.3431 21.0302 21.33 20.8427C21.3168 20.6552 21.2668 20.4721 21.1827 20.304Z" fill="white"/>
<path d="M23.6973 20.1816C23.5161 20.0482 23.2894 19.9922 23.0669 20.0259C22.8445 20.0597 22.6445 20.1804 22.5111 20.3616C22.3777 20.5428 22.3217 20.7695 22.3554 20.992C22.3892 21.2144 22.5099 21.4144 22.6911 21.5478C22.7157 21.5669 22.7416 21.5843 22.7685 21.6C22.8587 21.6609 22.9599 21.7035 23.0666 21.7253C23.1732 21.747 23.283 21.7475 23.3899 21.7268C23.4967 21.7061 23.5984 21.6645 23.6891 21.6044C23.7799 21.5444 23.8579 21.467 23.9187 21.3768L23.9367 21.3498C24.06 21.1648 24.1048 20.9384 24.0613 20.7203C24.0177 20.5023 23.8894 20.3105 23.7045 20.187L23.6973 20.1816Z" fill="white"/>
<path d="M25.6935 18.756C25.7894 18.7611 25.8853 18.7469 25.9757 18.7144C26.066 18.6818 26.1489 18.6315 26.2195 18.5665C26.2901 18.5014 26.347 18.4228 26.3868 18.3354C26.4266 18.2481 26.4485 18.1536 26.4513 18.0576C26.4531 18.0372 26.4531 18.0168 26.4513 17.9964C26.4434 17.8578 26.3956 17.7244 26.3137 17.6123C26.2317 17.5002 26.1191 17.4142 25.9894 17.3647C25.8597 17.3151 25.7184 17.3041 25.5826 17.333C25.4468 17.3619 25.3222 17.4295 25.2239 17.5275C25.1256 17.6256 25.0578 17.75 25.0286 17.8857C24.9994 18.0215 25.01 18.1628 25.0593 18.2926C25.1085 18.4224 25.1942 18.5352 25.3061 18.6175C25.418 18.6997 25.5513 18.7478 25.6899 18.756H25.6935Z" fill="white"/>
<path d="M28.4475 17.5068C28.3873 17.5029 28.327 17.5109 28.2699 17.5303C28.2129 17.5497 28.1602 17.5802 28.1149 17.62C28.0696 17.6597 28.0325 17.7081 28.0059 17.7621C27.9793 17.8162 27.9636 17.875 27.9597 17.9352V17.946C27.9555 18.0063 27.9633 18.0668 27.9827 18.1241C28.002 18.1814 28.0324 18.2343 28.0722 18.2798C28.112 18.3253 28.1604 18.3625 28.2146 18.3892C28.2688 18.416 28.3278 18.4317 28.3881 18.4356H28.3989C28.5221 18.4423 28.6428 18.3998 28.7347 18.3174C28.8265 18.235 28.8818 18.1196 28.8885 17.9964C28.8952 17.8732 28.8527 17.7525 28.7703 17.6606C28.6879 17.5688 28.5725 17.5135 28.4493 17.5068H28.4475Z" fill="white"/>
<path d="M25.7278 22.212C25.6275 22.335 25.58 22.4928 25.5959 22.6507C25.6118 22.8086 25.6896 22.9538 25.8124 23.0544C25.846 23.0827 25.8828 23.1069 25.9222 23.1264C26.0231 23.1773 26.1363 23.1986 26.2488 23.1879C26.3612 23.1772 26.4684 23.1349 26.5579 23.0659C26.6474 22.9969 26.7156 22.9041 26.7546 22.798C26.7936 22.692 26.8018 22.577 26.7783 22.4665C26.7548 22.356 26.7005 22.2544 26.6218 22.1734C26.543 22.0923 26.4429 22.0352 26.3331 22.0086C26.2233 21.982 26.1082 21.987 26.0011 22.023C25.894 22.059 25.7992 22.1245 25.7278 22.212Z" fill="white"/>
<path d="M13.3474 26.4798C13.2439 26.4112 13.1175 26.3863 12.9958 26.4105C12.874 26.4348 12.7668 26.5063 12.6976 26.6094C12.6319 26.7139 12.6089 26.8396 12.6333 26.9606C12.6578 27.0816 12.7278 27.1885 12.829 27.2592C12.9336 27.3263 13.0605 27.3491 13.182 27.3228C13.3034 27.2965 13.4095 27.2231 13.477 27.1188C13.5444 27.0175 13.569 26.8936 13.5454 26.7742C13.5217 26.6548 13.4519 26.5497 13.351 26.4816L13.3474 26.4798Z" fill="white"/>
<path d="M23.1087 26.4294C22.9991 26.4869 22.9167 26.5854 22.8793 26.7033C22.8419 26.8213 22.8525 26.9492 22.9089 27.0594C22.9662 27.1687 23.0637 27.2516 23.1809 27.2905C23.298 27.3295 23.4257 27.3215 23.5371 27.2682C23.6415 27.2076 23.7188 27.1093 23.7529 26.9935C23.7871 26.8777 23.7755 26.7532 23.7206 26.6457C23.6656 26.5382 23.5716 26.4558 23.4578 26.4156C23.3439 26.3753 23.219 26.3803 23.1087 26.4294Z" fill="white"/>
<path d="M17.6979 21.7296C17.8531 21.491 17.9341 21.2118 17.9307 20.9272C17.9273 20.6426 17.8396 20.3654 17.6788 20.1306C17.5179 19.8959 17.2911 19.714 17.027 19.608C16.7628 19.502 16.4732 19.4767 16.1947 19.5352C15.9162 19.5937 15.6612 19.7335 15.4621 19.9368C15.2629 20.1401 15.1285 20.3979 15.0757 20.6775C15.023 20.9572 15.0543 21.2463 15.1657 21.5081C15.2771 21.77 15.4636 21.993 15.7017 22.149C15.9376 22.2983 16.211 22.3776 16.4901 22.3776C16.7302 22.3828 16.9676 22.3259 17.1792 22.2124C17.3908 22.0989 17.5695 21.9326 17.6979 21.7296Z" fill="white"/>
<path d="M14.8234 23.985C14.7442 23.9332 14.6556 23.8975 14.5626 23.8799C14.4697 23.8624 14.3741 23.8633 14.2815 23.8827C14.1889 23.9021 14.101 23.9396 14.0229 23.9929C13.9448 24.0463 13.8779 24.1146 13.8262 24.1938C13.7205 24.3524 13.682 24.5464 13.7191 24.7333C13.7562 24.9202 13.8659 25.0848 14.0242 25.191C14.1835 25.2954 14.3777 25.3325 14.5643 25.294C14.7508 25.2556 14.9146 25.1447 15.0196 24.9858C15.0727 24.9094 15.1102 24.8233 15.1299 24.7324C15.1496 24.6415 15.1511 24.5476 15.1344 24.4561C15.1177 24.3646 15.083 24.2773 15.0324 24.1992C14.9818 24.1211 14.9163 24.0538 14.8396 24.0012L14.8234 23.985Z" fill="white"/>
<path d="M18.2001 26.7012H18.1875C18.0315 26.6934 17.8787 26.7477 17.7626 26.8523C17.6466 26.9569 17.5767 27.1032 17.5683 27.2592C17.5622 27.3753 17.5906 27.4907 17.6498 27.5907C17.709 27.6908 17.7965 27.7712 17.9012 27.8218C18.0059 27.8723 18.1232 27.8908 18.2384 27.875C18.3536 27.8591 18.4616 27.8096 18.5487 27.7326C18.6359 27.6556 18.6984 27.5546 18.7284 27.4423C18.7583 27.3299 18.7545 27.2112 18.7172 27.101C18.68 26.9909 18.611 26.8942 18.519 26.823C18.4271 26.7519 18.3161 26.7095 18.2001 26.7012Z" fill="white"/>
<path d="M18.2001 22.9878H18.1875C18.0203 22.9782 17.854 23.0183 17.7096 23.1031C17.5652 23.1879 17.4491 23.3135 17.376 23.4642C17.3029 23.6149 17.2761 23.7838 17.2989 23.9497C17.3217 24.1156 17.3932 24.2711 17.5043 24.3964C17.6153 24.5218 17.761 24.6114 17.923 24.6541C18.0849 24.6967 18.2559 24.6904 18.4142 24.636C18.5726 24.5816 18.7114 24.4815 18.8129 24.3484C18.9145 24.2152 18.9743 24.0549 18.9849 23.8878C18.9932 23.777 18.9795 23.6657 18.9444 23.5603C18.9093 23.4549 18.8537 23.3575 18.7807 23.2737C18.7077 23.19 18.6187 23.1216 18.5191 23.0725C18.4194 23.0234 18.311 22.9946 18.2001 22.9878Z" fill="white"/>
<path d="M21.6507 23.886C21.524 23.9513 21.4195 24.0527 21.3505 24.1774C21.2814 24.302 21.251 24.4444 21.2629 24.5865C21.2749 24.7285 21.3287 24.8638 21.4176 24.9752C21.5065 25.0866 21.6264 25.1691 21.7623 25.2123C21.8981 25.2554 22.0437 25.2573 22.1806 25.2177C22.3175 25.1781 22.4396 25.0987 22.5313 24.9896C22.6231 24.8805 22.6804 24.7467 22.696 24.605C22.7117 24.4634 22.6849 24.3202 22.6191 24.1938C22.5312 24.0249 22.38 23.8976 22.1985 23.8399C22.017 23.7822 21.82 23.7988 21.6507 23.886Z" fill="white"/>
</g>
<defs>
<linearGradient id="paint0_linear_231_4757" x1="18.1875" y1="36" x2="18.1875" y2="0" gradientUnits="userSpaceOnUse">
<stop stop-color="#072D8C"/>
<stop offset="1" stop-color="#0C4EF5"/>
</linearGradient>
<clipPath id="clip0_231_4757">
<rect width="36" height="36" fill="white" transform="translate(0.1875)"/>
</clipPath>
</defs>
</svg>
