<svg width="36" height="36" viewBox="0 0 36 36" fill="none" xmlns="http://www.w3.org/2000/svg">
<g clip-path="url(#clip0_183_1217)">
<path d="M18 36C27.9411 36 36 27.9411 36 18C36 8.05888 27.9411 0 18 0C8.05888 0 0 8.05888 0 18C0 27.9411 8.05888 36 18 36Z" fill="#F44336"/>
<path d="M18 24.48C16.9863 25.6145 15.6742 26.7442 14.1513 26.9289C14.0769 26.962 13.9957 26.9766 13.9145 26.9716C11.636 27.2463 9.76025 25.4179 9.76025 23.1821C9.76025 21.3134 12.1595 17.1758 14.6984 11.835C15.3687 10.4353 16.0603 9 18 9C19.9397 9 20.6053 10.3713 21.4224 12.06C26.2468 21.6758 26.2468 22.2063 26.2468 23.1679C26.2492 23.723 26.1322 24.2721 25.9038 24.7779C25.6753 25.2838 25.3408 25.7347 24.9229 26.1C23.3645 27.45 20.7568 27.5566 18.0071 24.48H18ZM25.1053 23.1679C25.1053 21.6924 22.8505 17.7205 20.3968 12.555C19.7408 11.2405 19.3784 10.125 18 10.125C16.8158 10.125 16.3989 10.8758 15.705 12.3111C13.2395 17.5097 10.8947 21.6237 10.8947 23.1679C10.8947 24.6316 11.9889 26.0526 14.0187 25.8158C15.2668 25.6642 16.4203 24.5771 17.2539 23.6297C8.96446 12.9103 27.0829 12.8676 18.746 23.6297C22.1353 27.4737 25.1053 25.5955 25.1053 23.1679ZM16.1053 18.6892C16.1053 19.7195 16.7518 21.1216 17.981 22.7463C19.2103 21.1216 19.8568 19.7195 19.8568 18.6892C19.8568 16.0082 16.1053 16.0082 16.1053 18.6892Z" fill="white"/>
</g>
<defs>
<clipPath id="clip0_183_1217">
<rect width="36" height="36" fill="white"/>
</clipPath>
</defs>
</svg>
