<svg width="36" height="36" viewBox="0 0 36 36" fill="none" xmlns="http://www.w3.org/2000/svg">
<path fill-rule="evenodd" clip-rule="evenodd" d="M22.3593 10.0295C21.6772 10.0295 20.8723 10.1886 19.9446 10.5067C19.0169 10.825 18.3484 10.9842 17.9391 10.9844C17.6207 10.9844 16.9773 10.8433 16.0087 10.5613C15.0401 10.2793 14.2147 10.1382 13.5325 10.1382C11.9318 10.1382 10.6062 10.8114 9.5557 12.1577C8.50523 13.5034 7.97999 15.245 7.97999 17.3826C7.98412 18.5657 8.15872 19.742 8.4984 20.8754C8.87222 22.1137 9.38962 23.3041 10.04 24.4223C10.7312 25.6319 11.427 26.5391 12.1274 27.1439C12.8277 27.7487 13.5325 28.0511 14.242 28.0511C14.7149 28.0511 15.3311 27.8942 16.0905 27.5804C16.85 27.2666 17.5162 27.1096 18.0892 27.1097C18.6622 27.1097 19.3647 27.2598 20.1969 27.56C21.0291 27.8605 21.6817 28.0106 22.1547 28.0104C22.755 28.0104 23.3552 27.783 23.9555 27.3281C24.5557 26.8733 25.156 26.1865 25.7563 25.2679C26.1362 24.694 26.4802 24.0972 26.7863 23.4808C27.0615 22.9271 27.2919 22.3522 27.4753 21.7617C26.6476 21.5164 25.9109 20.9298 25.2652 20.0019C24.6235 19.0876 24.2847 17.995 24.2965 16.8781C24.2992 16.1203 24.4693 15.3726 24.7945 14.6882C25.1264 13.9742 25.7972 13.1898 26.8067 12.335C26.161 11.5346 25.4789 10.9501 24.7604 10.5817C24.0161 10.2074 23.1924 10.0179 22.3593 10.0295ZM22.1274 4.76348C20.4994 5.13591 19.3329 5.82712 18.628 6.83711C17.9232 7.84661 17.5617 9.0425 17.5435 10.4248C18.2529 10.3885 18.8214 10.2748 19.2489 10.0836C19.7187 9.86275 20.1441 9.55762 20.504 9.18338C21.0642 8.63854 21.5055 7.98356 21.8 7.25972C22.0729 6.5685 22.2093 5.93191 22.2093 5.34995C22.2093 5.25908 22.2047 5.16821 22.1957 5.07683C22.1832 4.9704 22.1604 4.86544 22.1274 4.76348ZM18 0C27.9412 0 36.0001 8.05862 36.0001 18.0002C36.0001 27.9414 27.9412 36 18 36C8.0589 36 0 27.9414 0 18.0002C0 8.05865 8.05889 0 18 0Z" fill="black"/>
</svg>
