<svg width="19" height="20" viewBox="0 0 19 20" fill="none" xmlns="http://www.w3.org/2000/svg">
<g clip-path="url(#clip0_418_2048)">
<path d="M8.00093 17.0235C5.93357 17.0235 3.86674 17.0246 1.79938 17.023C0.905304 17.0219 0.216008 16.4883 0.0386702 15.6513C-0.0631936 15.172 0.0344479 14.725 0.308372 14.3154C0.732716 13.681 1.15706 13.0466 1.57243 12.4069C1.63207 12.3151 1.6706 12.1905 1.67113 12.0813C1.67746 10.5143 1.67324 8.94779 1.67588 7.38078C1.6801 4.58876 3.37801 2.22267 6.01908 1.32384C9.50092 0.138948 13.3765 2.32084 14.1502 5.91774C14.2547 6.40278 14.3038 6.90787 14.3102 7.40453C14.3302 8.95782 14.3154 10.5116 14.3218 12.0655C14.3218 12.181 14.3608 12.3125 14.4236 12.4096C14.8469 13.0603 15.2897 13.6984 15.7109 14.3503C16.3707 15.3721 15.8455 16.6926 14.6712 16.9713C14.5007 17.0119 14.3191 17.0214 14.1423 17.0219C12.095 17.0251 10.0477 17.0241 8.00041 17.0241L8.00093 17.0235Z" fill="url(#paint0_linear_418_2048)"/>
<path d="M5.64307 17.8687H10.342C10.2444 18.6784 9.12438 19.5012 8.05982 19.5487C7.00582 19.5957 5.82674 18.7787 5.64307 17.8687Z" fill="url(#paint1_linear_418_2048)"/>
</g>
<!-- <circle cx="15" cy="4" r="3.5" fill="#E34234" stroke="white"/> -->
<defs>
<linearGradient id="paint0_linear_418_2048" x1="-0.000732419" y1="9.01188" x2="17.6068" y2="9.25453" gradientUnits="userSpaceOnUse">
<stop stop-color="#01C5DB"/>
<stop offset="1" stop-color="#1B5682"/>
</linearGradient>
<linearGradient id="paint1_linear_418_2048" x1="5.64307" y1="18.7097" x2="10.8074" y2="18.9088" gradientUnits="userSpaceOnUse">
<stop stop-color="#01C5DB"/>
<stop offset="1" stop-color="#1B5682"/>
</linearGradient>
<clipPath id="clip0_418_2048">
<rect width="16" height="18.5508" fill="white" transform="translate(0 1)"/>
</clipPath>
</defs>
</svg>
