<svg width="36" height="36" viewBox="0 0 36 36" fill="none" xmlns="http://www.w3.org/2000/svg">
<path d="M35.4571 22.3544C33.053 31.9973 23.2864 37.8657 13.6424 35.4611C4.00243 33.057 -1.86608 23.2899 0.539118 13.6476C2.94208 4.00363 12.7087 -1.86545 22.3498 0.538634C31.9932 2.94276 37.8612 12.711 35.4571 22.3544Z" fill="#F7931A"/>
<path d="M12.077 21.0315C11.9792 21.2745 11.7311 21.639 11.172 21.5006C11.1917 21.5293 9.73651 21.1423 9.73651 21.1423L8.7561 23.4029L11.3261 24.0436C11.8042 24.1634 12.2728 24.2889 12.734 24.407L11.9167 27.6886L13.8894 28.1808L14.6988 24.934C15.2377 25.0803 15.7608 25.2153 16.2727 25.3424L15.466 28.5739L17.441 29.0661L18.2583 25.7907C21.626 26.428 24.1583 26.171 25.2242 23.125C26.0831 20.6726 25.1815 19.2579 23.4096 18.3354C24.7 18.0378 25.6719 17.189 25.9312 15.4357C26.2895 13.0406 24.4659 11.7531 21.9724 10.8942L22.7813 7.64966L20.8063 7.15748L20.0188 10.3164C19.4997 10.1871 18.9664 10.065 18.4366 9.94405L19.2297 6.76424L17.2559 6.27206L16.4464 9.5154C16.0167 9.41753 15.5948 9.32074 15.1853 9.21896L15.1875 9.20881L12.4639 8.52876L11.9385 10.6381C11.9385 10.6381 13.4039 10.9739 13.3729 10.9947C14.1728 11.1944 14.3173 11.7237 14.2932 12.1434L12.077 21.0315ZM21.4189 21.7633C20.8086 24.2157 16.6793 22.8899 15.3406 22.5575L16.4251 18.21C17.7638 18.5441 22.0568 19.2056 21.4189 21.7633ZM22.0298 15.4003C21.4729 17.6312 18.0361 16.4978 16.9212 16.2199L17.9044 12.2768C19.0193 12.5547 22.6097 13.0733 22.0298 15.4003Z" fill="white"/>
</svg>
