<svg width="102" height="102" viewBox="0 0 102 102" fill="none" xmlns="http://www.w3.org/2000/svg">
<g filter="url(#filter0_d_183_1424)">
<circle cx="51" cy="47" r="34" fill="white"/>
</g>
<path d="M58.23 73.4656C56.4993 71.8526 56.1815 69.0804 57.439 66.5663C58.7102 64.028 61.802 61.617 66.6728 62.4666C68.4864 62.783 69.7403 62.5147 70.4036 61.6721C71.2914 60.5371 70.8216 58.7796 70.5867 58.2533C69.9925 56.9223 70.8769 55.7976 71.1636 55.4847C71.6058 54.9997 71.8165 54.2603 71.661 53.7237C71.4987 53.1493 70.8699 52.4787 70.863 52.4718L70.7974 52.403L70.8665 52.3377C70.8734 52.3308 71.5608 51.6704 71.3985 50.7452C71.3018 50.1846 71.0358 49.9095 70.756 49.6171C70.566 49.4176 70.369 49.2113 70.2412 48.9189C70.0098 48.3927 70.9149 47.98 71.9616 47.4985C72.535 47.2337 73.1292 46.9619 73.6024 46.649C73.9306 46.4357 74.0964 46.1881 74.1172 45.8992C74.1793 45.029 72.8977 43.8975 71.6576 42.8038C71.3156 42.5011 70.9632 42.1916 70.6523 41.8958C68.7973 40.1348 68.8249 38.8863 68.894 36.1452C69.0045 31.588 67.5502 27.6362 64.6934 24.7231C61.1974 21.1565 55.6599 19.1892 49.1068 19.1892C41.5035 19.1892 34.6774 23.3233 31.2921 29.975C27.8687 36.6955 28.6667 44.5613 33.42 51.0169C39.2684 58.9584 40.0077 62.4012 39.3997 66.7004C39.1026 68.819 38.3634 71.0856 37.2061 73.4381L37.0334 73.3521C38.1837 71.0202 38.9161 68.7743 39.2132 66.6763C39.8142 62.4287 39.0784 59.0169 33.268 51.1304C28.4698 44.6163 27.6649 36.6748 31.1193 29.889C34.5393 23.1719 41.4309 19 49.1068 19C55.7117 19 61.2976 20.9845 64.8315 24.5889C67.7229 27.5399 69.1945 31.5399 69.084 36.1486C69.0184 38.9139 68.9907 40.0557 70.7836 41.7582C71.0945 42.0505 71.4434 42.3601 71.7819 42.6593C73.0566 43.7874 74.3762 44.9499 74.3072 45.9129C74.283 46.2603 74.0826 46.563 73.7061 46.8072C73.2224 47.1305 72.6214 47.4056 72.041 47.6705C71.1256 48.0901 70.2585 48.489 70.414 48.8433C70.5314 49.1047 70.7076 49.2904 70.8941 49.483C71.1809 49.7857 71.4814 50.0952 71.5885 50.7143C71.737 51.5741 71.2465 52.207 71.0634 52.4099C71.2327 52.599 71.699 53.1597 71.8441 53.6721C72.0168 54.2671 71.7888 55.0823 71.3052 55.6119C71.0392 55.9043 70.2136 56.9498 70.7594 58.1777C71.129 58.9997 71.3985 60.7125 70.5521 61.789C69.844 62.6901 68.5278 62.9825 66.6382 62.6523C61.8711 61.8234 58.8484 64.1759 57.6082 66.6522C56.3888 69.0907 56.6893 71.77 58.3613 73.3246L58.23 73.4656Z" fill="url(#paint0_linear_183_1424)"/>
<path d="M57.3422 69.7821C55.919 68.3685 55.7255 65.9265 56.8621 63.7047C58.0642 61.3488 60.9418 59.0857 65.4119 59.7873C67.0389 60.0452 68.1755 59.7839 68.7938 59.0169C69.6229 57.9885 69.2602 56.3892 69.0494 55.8596C68.5624 54.6283 69.3603 53.5965 69.616 53.3076C70.0132 52.8604 70.2101 52.1794 70.0823 51.6911C69.9718 51.268 69.5883 50.7865 69.4433 50.6077C69.3707 50.5148 69.3534 50.4942 69.3707 50.4426C69.3776 50.4219 69.388 50.4116 69.4087 50.3875C69.7956 49.9473 69.9649 49.4348 69.8854 48.9396C69.8025 48.4305 69.5676 48.1726 69.3223 47.9009C69.1531 47.7117 68.9804 47.5157 68.8664 47.2405C68.6625 46.7384 69.4813 46.3394 70.4243 45.8751C70.9321 45.6275 71.4538 45.3695 71.8683 45.0772C72.1585 44.8743 72.307 44.6438 72.3243 44.3756C72.3761 43.557 71.2258 42.508 70.1134 41.4899C69.8129 41.2148 69.4985 40.9293 69.2222 40.6576C67.5433 39.017 67.5571 37.8717 67.5882 35.3576C67.6262 31.1822 66.241 27.564 63.5845 24.8951C60.3338 21.6277 55.2419 19.8289 49.245 19.8289C42.2738 19.8289 35.9798 23.595 32.8155 29.6551C29.6236 35.7737 30.235 42.9929 34.4495 48.9637C39.7452 56.4649 40.557 59.8011 40.2461 63.6738C40.0492 66.1398 39.2408 68.2653 38.7606 69.5344L38.6777 69.7477L38.4981 69.6823L38.581 69.4656C39.0612 68.2068 39.8592 66.0985 40.0561 63.66C40.3635 59.832 39.5552 56.5268 34.294 49.0703C30.0381 43.0411 29.4197 35.7531 32.6462 29.5691C35.8416 23.4436 42.2013 19.6397 49.245 19.6397C55.2903 19.6397 60.434 21.4591 63.7192 24.7609C66.4137 27.4677 67.8162 31.134 67.7782 35.361C67.7506 37.8167 67.7367 38.9379 69.3534 40.5235C69.6298 40.7917 69.9407 41.0772 70.2412 41.3524C71.3881 42.3979 72.573 43.4779 72.5143 44.3859C72.4936 44.7126 72.3139 44.9981 71.9788 45.232C71.5505 45.5312 71.0219 45.7926 70.5107 46.0436C69.6851 46.4495 68.9078 46.8312 69.046 47.1717C69.1427 47.4159 69.3016 47.5879 69.4674 47.7736C69.7196 48.0557 69.9787 48.3446 70.072 48.9086C70.1618 49.4452 69.9891 50.0023 69.5849 50.477C69.5872 50.4816 69.5906 50.4861 69.5952 50.4907C69.7438 50.6799 70.1445 51.182 70.2654 51.6429C70.414 52.1966 70.2032 52.9327 69.7576 53.4348C69.5193 53.6996 68.78 54.6592 69.2291 55.7908C69.4502 56.3479 69.8302 58.0367 68.9424 59.1373C68.2791 59.9593 67.0839 60.2413 65.3843 59.9765C61.0109 59.2886 58.2024 61.4967 57.0313 63.7907C55.9328 65.9403 56.1124 68.2928 57.477 69.6479L57.3422 69.7821Z" fill="url(#paint1_linear_183_1424)"/>
<path d="M56.4579 66.0985C55.3352 64.881 55.2661 62.7658 56.2817 60.8363C57.4182 58.6729 60.0851 56.5543 64.1545 57.108C65.5915 57.3041 66.614 57.0564 67.1875 56.3651C67.9233 55.4743 67.7229 54.0814 67.5157 53.4658C67.1426 52.3652 67.7747 51.4675 68.0649 51.1339C68.4311 50.7108 68.6107 50.1055 68.5036 49.655C68.4207 49.311 68.1375 48.9121 67.9993 48.7229C67.9026 48.5888 67.8818 48.5612 67.9026 48.5062C67.9095 48.4856 67.9198 48.4718 67.9475 48.434C68.2929 48.0075 68.4345 47.5673 68.3689 47.1305C68.2998 46.673 68.0995 46.4357 67.8922 46.1812C67.7437 46.0058 67.5917 45.8201 67.4949 45.5656C67.3188 45.0875 68.0407 44.7023 68.8767 44.2586C69.3189 44.0213 69.7749 43.7771 70.1376 43.5054C70.3898 43.3128 70.521 43.0996 70.5349 42.8485C70.5763 42.0884 69.5573 41.1185 68.5693 40.1761C68.3067 39.9285 68.0338 39.6705 67.792 39.4229C66.3031 37.9061 66.2962 36.7918 66.2824 34.57C66.2306 26.0025 59.598 20.4686 49.3797 20.4686C43.0442 20.4686 37.2821 23.8667 34.3424 29.3387C31.3784 34.8554 31.8033 41.4246 35.4789 46.9069C39.7003 53.2078 41.1166 56.6712 41.0924 60.6437C41.0786 62.5319 40.633 64.2172 40.3359 65.3315C40.2633 65.6067 40.1977 65.8509 40.1493 66.0572L39.9662 66.0125C40.0112 65.8062 40.0768 65.562 40.1528 65.2834C40.4464 64.1793 40.8886 62.5078 40.899 60.6437C40.9231 57.2353 40.0388 54.0539 35.32 47.0135C31.603 41.4693 31.1746 34.8279 34.1731 29.2493C37.1439 23.7154 42.9716 20.2794 49.3797 20.2794C59.712 20.2794 66.4206 25.889 66.4724 34.57C66.4862 36.809 66.4931 37.8305 67.9267 39.2887C68.1686 39.5329 68.438 39.7909 68.7005 40.042C69.7196 41.0084 70.7732 42.0127 70.7249 42.8588C70.7076 43.1649 70.5487 43.4332 70.2516 43.6567C69.8785 43.9388 69.4156 44.1864 68.9665 44.4237C68.2411 44.8123 67.5537 45.1769 67.6746 45.5002C67.7575 45.7272 67.8957 45.8889 68.0373 46.0608C68.2549 46.3222 68.4795 46.5939 68.5555 47.0995C68.6315 47.5913 68.4795 48.0763 68.1064 48.544C68.1179 48.5624 68.134 48.5853 68.1547 48.6128C68.3102 48.8295 68.5969 49.2285 68.6867 49.6137C68.8076 50.1158 68.6107 50.7934 68.21 51.2577C67.9406 51.5672 67.3533 52.3996 67.6953 53.4073C67.9164 54.0539 68.1236 55.5328 67.3326 56.4855C66.7142 57.2284 65.6364 57.5036 64.1268 57.2972C60.1576 56.7572 57.5599 58.8174 56.4475 60.9257C55.4699 62.7864 55.5286 64.8122 56.5961 65.9713L56.4579 66.0985Z" fill="url(#paint2_linear_183_1424)"/>
<path d="M55.5666 62.415C54.7272 61.3728 54.779 59.6188 55.6979 57.9541C56.7826 55.9868 59.2422 54.0298 62.8936 54.4322C64.1441 54.5664 65.0492 54.3256 65.5777 53.7134C66.2513 52.9258 66.1477 51.6842 65.9819 51.072C65.7055 50.0711 66.2651 49.2594 66.5173 48.9568C66.8386 48.5716 67.0044 48.0213 66.9215 47.6223C66.8662 47.3368 66.659 47.017 66.538 46.8278C66.4379 46.6696 66.4102 46.6283 66.431 46.5699C66.4379 46.5458 66.4517 46.5251 66.4862 46.4804C66.6071 46.3188 66.9284 45.8854 66.8524 45.3214C66.7971 44.919 66.6313 44.6989 66.4551 44.465C66.3308 44.2964 66.1995 44.1245 66.1235 43.8872C65.975 43.4332 66.6037 43.0652 67.3291 42.6387C67.7091 42.4186 68.0995 42.1881 68.4035 41.9336C68.6211 41.7548 68.7316 41.5553 68.742 41.3248C68.7765 40.6163 67.8853 39.7255 67.0251 38.8623C66.7971 38.6353 66.5691 38.4083 66.3619 38.1847C65.0561 36.7918 65.0284 35.7256 64.9766 33.7858C64.7728 26.0816 58.7033 21.1083 49.5179 21.1083C43.7282 21.1083 38.6259 24.0662 35.8658 29.0188C33.1298 33.9371 33.3682 39.8562 36.5049 44.8536C40.2219 50.7693 41.6417 54.1055 41.9353 57.6136C42.0562 59.0478 41.8731 60.3479 41.7418 61.2937C41.6831 61.7202 41.6313 62.0848 41.6209 62.3599L41.4309 62.3531C41.4413 62.0676 41.4931 61.6996 41.5518 61.2697C41.6831 60.3307 41.8628 59.0444 41.7453 57.6274C41.4551 54.1571 40.0422 50.8415 36.346 44.9534C33.1678 39.8975 32.9295 33.9062 35.7 28.926C38.4912 23.9114 43.6556 20.9192 49.5179 20.9192C58.8173 20.9192 64.9593 25.9647 65.1666 33.7789C65.2219 35.8666 65.2944 36.7677 66.5 38.0575C66.7073 38.2776 66.9319 38.5011 67.1598 38.7281C68.0511 39.6189 68.97 40.5407 68.932 41.3317C68.9182 41.6172 68.7835 41.8683 68.5278 42.0815C68.21 42.3429 67.8127 42.5768 67.4258 42.8038C66.7971 43.1718 66.203 43.5192 66.3031 43.8287C66.3722 44.0351 66.4862 44.1898 66.6106 44.3515C66.7902 44.5922 66.9802 44.8433 67.0424 45.2939C67.1288 45.937 66.7729 46.4151 66.6417 46.5939C66.6371 46.6008 66.6325 46.6065 66.6279 46.6111C66.6451 46.6386 66.6728 46.6834 66.7004 46.7246C66.8282 46.9275 67.0458 47.2646 67.1115 47.5845C67.2186 48.1141 66.9629 48.716 66.6624 49.0771C66.431 49.3592 65.9128 50.1055 66.165 51.0238C66.2133 51.1992 66.6175 52.7916 65.7228 53.8372C65.1493 54.501 64.1925 54.7658 62.8728 54.6214C59.3147 54.2293 56.9208 56.1347 55.8637 58.0435C54.9967 59.6188 54.9379 61.3281 55.7186 62.298L55.5666 62.415Z" fill="url(#paint3_linear_183_1424)"/>
<path d="M54.6788 58.728C54.1227 57.8647 54.2954 56.4133 55.1245 55.0307C55.6323 54.1846 57.5944 51.4503 61.6327 51.753C62.7001 51.8321 63.4843 51.6016 63.9645 51.0617C64.7072 50.2293 64.4965 48.9293 64.4446 48.6747C64.2685 47.7771 64.7521 47.0514 64.9663 46.7831C65.253 46.4254 65.4015 45.9439 65.3428 45.5862C65.3048 45.3523 65.1597 45.0944 65.063 44.9224C64.9732 44.7573 64.9386 44.6989 64.9593 44.6335C64.9697 44.606 64.987 44.5785 65.0215 44.5303C65.1321 44.3652 65.3912 43.9869 65.3359 43.5123C65.2944 43.1615 65.1632 42.9585 65.0215 42.7453C64.9179 42.5905 64.8108 42.4289 64.7521 42.2088C64.6312 41.7823 65.1632 41.428 65.7815 41.0187C66.0959 40.8124 66.4171 40.5991 66.6693 40.3653C67.4431 39.643 66.4448 38.5768 65.481 37.545C65.291 37.3455 65.1044 37.146 64.9317 36.95C63.8574 35.7325 63.7676 34.8589 63.6708 32.9982C63.3116 26.1642 57.812 21.748 49.6526 21.748C44.5089 21.748 39.9248 24.3448 37.3927 28.7024C34.8813 33.0222 34.9331 38.2913 37.5343 42.8003C40.8126 48.4821 42.1875 51.5638 42.7782 54.5801C42.9855 55.6326 42.9958 56.5956 43.0062 57.366C43.0096 57.9163 43.0165 58.3531 43.0891 58.6558L42.9025 58.697C42.8231 58.3772 42.8196 57.93 42.8127 57.366C42.8058 56.6025 42.7955 55.6532 42.5916 54.6145C42.0044 51.6223 40.6364 48.5544 37.3685 42.8932C34.7327 38.3292 34.6809 32.9879 37.2269 28.6061C39.7935 24.1934 44.4398 21.5554 49.6526 21.5554C57.9191 21.5554 63.4981 26.0438 63.8608 32.9879C63.9576 34.8004 64.0439 35.6533 65.0768 36.8227C65.2461 37.0188 65.4326 37.2148 65.6192 37.4177C66.6002 38.4667 67.7126 39.6533 66.8006 40.5028C66.538 40.747 66.2064 40.9672 65.8851 41.177C65.3532 41.5312 64.8523 41.8648 64.9352 42.1572C64.987 42.3463 65.0803 42.4908 65.1804 42.6421C65.329 42.8622 65.4775 43.0927 65.5259 43.4882C65.5881 44.0351 65.3013 44.4547 65.1804 44.6369C65.1689 44.653 65.1586 44.6668 65.1493 44.6782C65.1666 44.7126 65.2012 44.7745 65.2288 44.8295C65.3324 45.0118 65.4879 45.2904 65.5328 45.5552C65.6088 46.0264 65.3808 46.5699 65.1148 46.9C64.9179 47.1477 64.4723 47.8183 64.6346 48.6404C64.7866 49.4142 64.7279 50.4907 64.1095 51.1855C63.5845 51.7736 62.7485 52.0281 61.6189 51.9421C57.6911 51.6463 55.7808 54.3084 55.2868 55.1304C54.5096 56.427 54.3299 57.8337 54.8377 58.6248L54.6788 58.728Z" fill="url(#paint4_linear_183_1424)"/>
<path d="M44.3845 55.0479C44.1669 54.7177 44.0633 54.1983 43.9285 53.5414C43.8145 52.9671 43.6798 52.3136 43.4414 51.6051C42.5018 48.857 40.9888 45.8717 38.3945 40.833C36.2976 36.7574 36.4323 32.0695 38.7537 28.2863C41.0959 24.472 45.2205 22.1952 49.7908 22.1952C57.0175 22.1952 62.03 26.1195 62.555 32.1968C62.6898 33.7479 62.7934 34.539 63.6501 35.5914C63.7848 35.76 63.9334 35.9319 64.0819 36.1039C64.8937 37.0497 65.8161 38.1228 65.0768 38.9242C64.8661 39.1512 64.6001 39.3541 64.3445 39.5536C63.9092 39.8906 63.5016 40.2071 63.5637 40.4891C63.6017 40.6611 63.6743 40.7917 63.7537 40.9328C63.8643 41.1357 63.9783 41.342 64.0094 41.6825C64.0508 42.14 63.8263 42.5045 63.7157 42.6765C63.695 42.7143 63.6777 42.7419 63.6708 42.7591C63.6743 42.7659 63.7157 42.8554 63.7503 42.9241C63.8263 43.0892 63.9299 43.3094 63.9541 43.526C63.9956 43.8906 63.8436 44.3584 63.5707 44.7195C63.4014 44.9396 63.0214 45.5277 63.1008 46.2603C63.1492 46.6971 63.1838 47.7977 62.4929 48.5372C62.023 49.0462 61.308 49.2904 60.3649 49.2663C58.1471 49.201 56.0537 50.2672 54.7652 52.1072C54.0259 53.1631 53.7012 54.3118 53.9638 54.9619L53.7876 55.0307C53.4974 54.3153 53.8221 53.1218 54.6098 51.9972C55.9328 50.1055 58.0919 49.0187 60.3684 49.0737C61.2562 49.0978 61.9229 48.8742 62.3547 48.4099C62.9903 47.7255 62.9558 46.6902 62.9108 46.2775C62.8245 45.483 63.2356 44.8433 63.4152 44.606C63.6639 44.2827 63.7986 43.8665 63.7641 43.5501C63.7434 43.3644 63.6466 43.1546 63.5776 43.0033C63.5016 42.845 63.467 42.7659 63.4877 42.6971C63.4981 42.6662 63.5223 42.6318 63.5534 42.5802C63.6605 42.4082 63.8539 42.0953 63.8194 41.6997C63.7917 41.4005 63.6916 41.2182 63.5845 41.0222C63.505 40.8777 63.4221 40.7264 63.3772 40.5304C63.2874 40.128 63.7434 39.7771 64.227 39.4057C64.4792 39.2096 64.7383 39.0102 64.9352 38.7935C65.5604 38.1194 64.7348 37.1563 63.9368 36.2277C63.7848 36.0523 63.6397 35.8803 63.5016 35.7118C62.6103 34.6147 62.5032 33.803 62.365 32.214C61.8503 26.2433 56.9139 22.3843 49.7908 22.3843C45.2861 22.3843 41.2237 24.6268 38.9161 28.3826C36.6292 32.1108 36.498 36.7299 38.5637 40.747C41.1615 45.7926 42.678 48.7814 43.6211 51.5432C43.8663 52.262 43.9976 52.9223 44.1151 53.5036C44.2463 54.1399 44.3465 54.642 44.5434 54.9447L44.3845 55.0479Z" fill="url(#paint5_linear_183_1424)"/>
<path d="M45.8734 51.3918C45.4554 51.0789 45.1894 50.4976 44.8543 49.7616C44.692 49.4073 44.5123 49.0084 44.2912 48.5956L43.8733 47.8218C42.6849 45.6103 41.2029 42.8622 39.4204 38.7694C37.8348 35.1374 38.1492 31.1994 40.2806 27.963C42.3947 24.7506 46.0012 22.8349 49.9289 22.8349C56.1124 22.8349 60.5549 26.1986 61.2492 31.4023C61.4254 32.7058 61.5463 33.4315 62.2234 34.3602C62.327 34.5012 62.4341 34.6422 62.5412 34.7832C63.2183 35.6705 63.9161 36.5889 63.353 37.3421C63.1976 37.5519 62.9938 37.7445 62.7968 37.9302C62.4652 38.2466 62.1509 38.5458 62.1958 38.821C62.22 38.9723 62.2683 39.0961 62.3236 39.2234C62.3996 39.4057 62.479 39.5948 62.4929 39.8803C62.5136 40.2483 62.3443 40.5579 62.251 40.723C62.2269 40.7642 62.2061 40.7986 62.1992 40.8227C62.1992 40.8433 62.2338 40.9431 62.258 41.0153C62.3063 41.1529 62.3685 41.3283 62.3754 41.5002C62.3927 41.8786 62.2061 42.2879 62.023 42.5424C61.8849 42.7315 61.5705 43.244 61.5671 43.8803C61.5671 44.8536 61.2423 46.4976 59.1144 46.5871C55.2937 46.7453 53.0863 50.2362 53.0863 51.3162H52.8963C52.8963 50.1915 55.1694 46.5595 59.1075 46.3979C61.0765 46.3153 61.3736 44.7848 61.3771 43.8803C61.3805 43.189 61.7191 42.6387 61.8676 42.4323C62.0749 42.14 62.1958 41.7857 62.1854 41.5106C62.1785 41.3661 62.1232 41.2045 62.0783 41.0772C62.0265 40.9328 61.9954 40.8365 62.0196 40.7608C62.03 40.7333 62.0541 40.6851 62.0852 40.6301C62.1716 40.4719 62.3201 40.2071 62.3029 39.8906C62.289 39.6396 62.22 39.4745 62.1474 39.2991C62.0921 39.1649 62.0334 39.0239 62.0058 38.8519C61.947 38.4771 62.296 38.1469 62.6656 37.7926C62.8556 37.6103 63.0525 37.4246 63.201 37.2286C63.6777 36.5889 63.0214 35.729 62.3892 34.9001C62.2821 34.7557 62.1716 34.6112 62.0714 34.4737C61.3667 33.5072 61.2354 32.7265 61.0627 31.4264C60.3787 26.3224 56.0088 23.024 49.9289 23.024C46.0668 23.024 42.5191 24.9088 40.4395 28.0696C38.3426 31.251 38.0352 35.1237 39.5932 38.6937C41.3757 42.7797 42.8542 45.5243 44.0425 47.7324L44.4605 48.5062C44.6816 48.9224 44.8647 49.3248 45.027 49.6825C45.3518 50.3944 45.6074 50.9585 45.9908 51.2405L45.8734 51.3918Z" fill="url(#paint6_linear_183_1424)"/>
<path d="M47.3657 47.7255C46.6403 47.4572 46.091 46.7693 45.4519 45.9714C45.3529 45.8476 45.2504 45.7203 45.1445 45.5896C43.1409 43.1236 41.6451 40.2999 40.443 36.7058C39.3997 33.5829 39.8937 30.2811 41.804 27.6465C43.7213 24.9948 46.7336 23.4746 50.0637 23.4746C55.1901 23.4746 59.0695 26.2742 59.9435 30.6078C60.1404 31.588 60.2854 32.2931 60.8002 33.1323C60.8658 33.2389 60.9349 33.3455 61.0005 33.4522C61.5014 34.2363 62.0161 35.048 61.6292 35.7565C61.5256 35.9491 61.384 36.1314 61.2492 36.3068C61.0213 36.6061 60.8036 36.8881 60.8243 37.1529C60.8347 37.287 60.8623 37.4005 60.8934 37.5175C60.9349 37.6791 60.9763 37.8477 60.9763 38.0781C60.9763 38.3636 60.8623 38.6078 60.7829 38.766C60.7587 38.8141 60.7414 38.8554 60.7311 38.8863C60.7173 38.9173 60.738 39.017 60.7553 39.0996C60.776 39.2131 60.8036 39.3472 60.7967 39.4779C60.7829 39.7462 60.6689 40.0695 60.4754 40.3618C60.2474 40.7092 60.0885 41.1254 60.0333 41.5037C59.8329 42.9138 59.104 43.7221 57.8673 43.9078C55.8845 44.207 53.9707 45.483 52.1813 47.698L52.0327 47.5776C53.8532 45.3248 55.8085 44.0282 57.8397 43.7186C58.9831 43.5467 59.6567 42.7934 59.8433 41.4762C59.902 41.0703 60.0747 40.6267 60.3165 40.2586C60.4858 39.9973 60.5963 39.7015 60.6067 39.4676C60.6102 39.361 60.586 39.2406 60.5653 39.134C60.5411 39.0067 60.5204 38.907 60.548 38.8279C60.5618 38.79 60.5825 38.7419 60.6102 38.6834C60.6862 38.5321 60.7863 38.3223 60.7863 38.0781C60.7863 37.8717 60.7483 37.7238 60.7103 37.5656C60.6758 37.4453 60.6447 37.318 60.6343 37.1701C60.6067 36.8296 60.8451 36.5201 61.0973 36.1933C61.2285 36.0214 61.3632 35.846 61.4634 35.6671C61.7951 35.0549 61.308 34.2914 60.8416 33.5519C60.7725 33.4453 60.7034 33.3387 60.6378 33.232C60.1024 32.3653 59.9573 31.6431 59.7569 30.6457C58.9002 26.4049 55.0968 23.6638 50.0637 23.6638C46.7957 23.6638 43.8422 25.1564 41.956 27.7566C40.0837 30.343 39.6001 33.5829 40.6261 36.6473C41.8178 40.2174 43.3033 43.0204 45.293 45.4693C45.399 45.6 45.5026 45.7284 45.6039 45.8545C46.2465 46.6627 46.7577 47.299 47.4348 47.5501L47.3657 47.7255Z" fill="url(#paint7_linear_183_1424)"/>
<path d="M48.8546 44.0523C47.763 43.8906 46.8406 43.2509 46.0047 42.5802C43.6971 40.7298 42.1287 37.9852 41.4689 34.6387C40.9542 32.0352 41.6278 29.3731 43.3136 27.3336C45.0063 25.2871 47.5177 24.1109 50.2018 24.1109C54.247 24.1109 57.5599 26.3499 58.6377 29.8099L58.7275 30.1091C58.9244 30.7454 59.0937 31.2957 59.3769 31.9079L59.446 32.0558C59.7742 32.7574 60.1127 33.4797 59.9089 34.1641C59.8536 34.3533 59.7742 34.5321 59.6947 34.7075C59.5738 34.9792 59.4598 35.2372 59.4529 35.4917C59.4495 35.6018 59.4564 35.7015 59.4598 35.8012C59.4702 35.9491 59.4771 36.097 59.4633 36.2793C59.4426 36.4891 59.37 36.6714 59.3113 36.8193C59.2906 36.8674 59.2733 36.9122 59.2595 36.95C59.2422 37.005 59.2387 37.0876 59.2387 37.177C59.2353 37.263 59.2318 37.3627 59.2146 37.459C59.1662 37.7376 59.0315 38.0059 58.9313 38.1813C58.7586 38.4736 58.5997 38.821 58.496 39.1305C58.1264 40.2277 57.515 40.9156 56.6272 41.2251C55.4354 41.6447 54.3265 42.3291 53.3454 42.9345C52.5336 43.4332 51.8324 43.8665 51.2486 44.0488L51.1933 43.8665C51.7529 43.6946 52.4473 43.2681 53.2452 42.7728C54.2332 42.164 55.3525 41.4727 56.5615 41.0463C57.3941 40.7574 57.9675 40.1108 58.3164 39.0721C58.4235 38.7488 58.5893 38.3911 58.7655 38.085C58.8588 37.9233 58.9831 37.6757 59.028 37.4246C59.0418 37.3421 59.0453 37.2561 59.0453 37.1735C59.0487 37.0704 59.0522 36.9706 59.0764 36.8915C59.0937 36.8468 59.1109 36.7987 59.1317 36.7471C59.1869 36.6129 59.256 36.4444 59.2733 36.2621C59.2871 36.0936 59.2802 35.9595 59.2698 35.8116C59.2664 35.7084 59.2595 35.6018 59.2629 35.4848C59.2698 35.1959 59.3907 34.9208 59.522 34.6284C59.5946 34.4599 59.674 34.2845 59.7258 34.1091C59.9089 33.4969 59.5876 32.8056 59.2733 32.1349L59.2042 31.987C58.9175 31.3645 58.7448 30.8073 58.5444 30.1641L58.4546 29.8649C57.401 26.4875 54.1641 24.3035 50.2018 24.3035C47.573 24.3035 45.1169 25.4522 43.4622 27.4539C41.8109 29.4522 41.1511 32.0558 41.6555 34.6009C42.3049 37.9027 43.8525 40.6095 46.1256 42.4323C46.9374 43.0858 47.8355 43.7118 48.8822 43.8631L48.8546 44.0523Z" fill="url(#paint8_linear_183_1424)"/>
<path fill-rule="evenodd" clip-rule="evenodd" d="M50.3366 40.3721C46.0116 40.3721 42.4915 36.8709 42.4915 32.5614C42.4915 28.2553 46.0116 24.7506 50.3366 24.7506C54.665 24.7506 58.1817 28.2553 58.1817 32.5614C58.1817 36.8709 54.665 40.3721 50.3366 40.3721ZM50.3366 24.9432C46.1187 24.9432 42.6849 28.3619 42.6849 32.5614C42.6849 36.7643 46.1187 40.183 50.3366 40.183C54.5579 40.183 57.9917 36.7643 57.9917 32.5614C57.9917 28.3619 54.5579 24.9432 50.3366 24.9432Z" fill="url(#paint9_linear_183_1424)"/>
<path d="M35.0301 71.234C35.0597 71.2171 35.086 71.2087 35.1092 71.2087H35.182C35.1968 71.2087 35.2221 71.2076 35.2579 71.2055C35.4204 71.1907 35.5163 71.176 35.5459 71.1612C35.6197 71.1211 35.683 71.0515 35.7357 70.9524C35.8454 70.7372 35.9688 70.4324 36.1059 70.038C36.1713 69.8503 36.2124 69.7364 36.2293 69.6963C36.282 69.5697 36.3327 69.4368 36.3812 69.2976L36.6786 68.4655C36.725 68.3347 36.8368 68.0352 37.014 67.5669C37.0583 67.4488 37.1121 67.2906 37.1753 67.0923L37.2671 67.086L37.3778 67.0891C37.4685 67.2684 37.5487 67.4614 37.6183 67.6681C37.6563 67.7778 37.7185 67.9413 37.805 68.1586L38.2859 69.459L38.5422 70.1645C38.6772 70.5653 38.7658 70.8121 38.808 70.9049C38.8502 70.9956 38.8892 71.0557 38.925 71.0853C38.9356 71.0937 38.9746 71.1064 39.0421 71.1232C39.1117 71.1401 39.1602 71.1528 39.1877 71.1612C39.2847 71.1886 39.3522 71.2118 39.3902 71.2308C39.3986 71.254 39.4028 71.272 39.4028 71.2846C39.4028 71.2952 39.3996 71.311 39.3933 71.3321C39.3258 71.3342 39.2784 71.3352 39.2509 71.3352C39.1434 71.3352 38.9535 71.3321 38.6814 71.3257L38.365 71.3163L37.9822 71.3226C37.9569 71.3226 37.9305 71.3215 37.9031 71.3194C37.8778 71.3152 37.8556 71.3131 37.8366 71.3131H37.767C37.7438 71.311 37.7227 71.3047 37.7037 71.2941C37.7037 71.2646 37.709 71.2361 37.7196 71.2087C37.7449 71.196 37.7681 71.1886 37.7892 71.1865L38.1214 71.1644C38.2079 71.1602 38.2733 71.1486 38.3176 71.1296C38.3302 71.0916 38.3365 71.0631 38.3365 71.0441C38.3365 71.0062 38.3091 70.9081 38.2543 70.7499C38.2163 70.6444 38.1826 70.5442 38.153 70.4493C38.1256 70.3544 38.0138 70.0422 37.8176 69.5128C37.7312 69.498 37.6552 69.4906 37.5898 69.4906L36.9127 69.4969L36.7134 69.4938C36.6417 69.4938 36.5626 69.499 36.4761 69.5096C36.4487 69.5729 36.4307 69.6182 36.4223 69.6456L36.1439 70.5158C36.0257 70.8469 35.9667 71.0294 35.9667 71.0631C35.9667 71.0821 35.9762 71.1138 35.9952 71.1581C36.0395 71.1707 36.0985 71.1823 36.1723 71.1929L36.6027 71.2308C36.6259 71.2498 36.6375 71.2667 36.6375 71.2814C36.6375 71.292 36.6343 71.3078 36.628 71.3289C36.533 71.331 36.4603 71.3321 36.4096 71.3321C36.2409 71.3321 36.0447 71.3268 35.8211 71.3163C35.7178 71.312 35.644 71.3099 35.5997 71.3099C35.5554 71.3099 35.4784 71.312 35.3687 71.3163C35.297 71.3205 35.2453 71.3226 35.2137 71.3226C35.163 71.3226 35.0976 71.3194 35.0175 71.3131V71.2941C35.0175 71.2793 35.0217 71.2593 35.0301 71.234ZM36.5394 69.3356C36.7651 69.3482 37.0224 69.3546 37.3114 69.3546C37.4759 69.3546 37.6204 69.3493 37.7449 69.3387C37.7238 69.2565 37.6995 69.1795 37.6721 69.1078C37.535 68.7407 37.459 68.5382 37.4443 68.5003L37.1564 67.7694L37.1247 67.7124C37.1121 67.7377 37.0657 67.8464 36.9855 68.0383C36.8505 68.3674 36.7535 68.6237 36.6944 68.8072C36.667 68.8894 36.6385 68.9717 36.609 69.054C36.5795 69.1341 36.5605 69.1911 36.552 69.2248C36.5457 69.2565 36.5352 69.2892 36.5204 69.3229L36.5394 69.3356ZM39.5325 71.272C39.6106 71.2382 39.7013 71.2161 39.8046 71.2055C39.9544 71.1886 40.0662 71.1528 40.14 71.0979C40.197 70.9819 40.2255 70.6866 40.2255 70.212V69.7121L40.2318 69.4115L40.2255 69.19L40.2318 68.7819L40.2223 67.7536C40.2223 67.6376 40.2054 67.5616 40.1717 67.5258C40.1232 67.473 39.9945 67.4245 39.7857 67.3802C39.6992 67.3612 39.6464 67.3444 39.6275 67.3296C39.6085 67.3127 39.5969 67.2821 39.5927 67.2378C39.6412 67.2273 39.6749 67.222 39.6939 67.222H39.9185L40.0356 67.2188C40.1137 67.2188 40.2001 67.2273 40.2951 67.2442C40.4891 67.2568 40.6885 67.2631 40.8931 67.2631C40.9521 67.2631 41.0365 67.26 41.1462 67.2537C41.4373 67.2368 41.6461 67.2283 41.7727 67.2283C42.0279 67.2283 42.2684 67.2537 42.4941 67.3043C42.7219 67.3549 42.956 67.4488 43.1965 67.5859C43.3462 67.6724 43.4992 67.8095 43.6553 67.9972C43.8135 68.1828 43.9326 68.3864 44.0128 68.6079C44.0951 68.8272 44.1362 69.0751 44.1362 69.3514C44.1362 69.5982 44.0908 69.8429 44.0001 70.0854C43.9115 70.328 43.7871 70.539 43.6268 70.7183C43.4665 70.8954 43.304 71.0294 43.1395 71.1201C42.975 71.2087 42.724 71.2857 42.3865 71.3511C42.2473 71.3764 41.9973 71.389 41.6366 71.389C41.3983 71.389 41.2042 71.3816 41.0544 71.3669C40.9954 71.3584 40.9321 71.3542 40.8646 71.3542C40.854 71.3542 40.8424 71.3553 40.8298 71.3574L39.5389 71.3795L39.5325 71.3542C39.5283 71.3437 39.5262 71.3321 39.5262 71.3194L39.5325 71.272ZM41.143 71.1486C41.3033 71.2034 41.4658 71.2308 41.6303 71.2308C41.8433 71.2308 42.0522 71.1981 42.2568 71.1327C42.4614 71.0652 42.6417 70.9714 42.7978 70.8511C42.956 70.7288 43.0857 70.5917 43.187 70.4398C43.2882 70.2858 43.3599 70.1477 43.4021 70.0253C43.4612 69.846 43.4907 69.613 43.4907 69.3261C43.4907 69.0519 43.4327 68.7734 43.3167 68.4908C43.2365 68.2946 43.0952 68.1069 42.8927 67.9276C42.6923 67.7483 42.455 67.6175 42.1808 67.5352C41.9066 67.4509 41.6102 67.4087 41.2917 67.4087C41.0724 67.4087 40.9099 67.4329 40.8045 67.4815C40.7918 67.4941 40.7792 67.5089 40.7665 67.5258C40.7538 67.5785 40.7475 67.627 40.7475 67.6713C40.7475 67.6987 40.7486 67.7314 40.7507 67.7694C40.757 68.0141 40.7602 68.2102 40.7602 68.3579L40.757 69.0761C40.757 70.1308 40.776 70.7183 40.814 70.8385C40.854 70.9566 40.9637 71.06 41.143 71.1486ZM44.1995 67.3233L44.2216 67.2695C44.3925 67.2695 44.5633 67.2716 44.7342 67.2758H44.8386C44.8702 67.2758 44.905 67.2747 44.943 67.2726C45.0801 67.2663 45.328 67.2631 45.6866 67.2631C45.7583 67.2631 45.8279 67.2642 45.8954 67.2663C45.9629 67.2663 46.0283 67.2674 46.0915 67.2695C46.1042 67.2758 46.1137 67.2853 46.12 67.2979L46.1137 67.3486C46.101 67.3697 46.0694 67.3802 46.0188 67.3802H45.9935C45.9344 67.3781 45.8374 67.3834 45.7024 67.396C45.5674 67.4066 45.4788 67.4277 45.4366 67.4593C45.4092 67.4825 45.3955 67.5131 45.3955 67.5511C45.3955 67.6333 45.4303 67.7567 45.4999 67.9213L45.9808 69.0382L46.1485 69.4083C46.3109 69.8007 46.4712 70.2015 46.6294 70.6107C46.6463 70.655 46.6621 70.695 46.6769 70.7309L46.8889 70.212C46.9986 69.9504 47.1093 69.672 47.2211 69.3767L47.4394 68.7819C47.4436 68.7692 47.4552 68.727 47.4742 68.6553C47.6788 68.0963 47.7811 67.743 47.7811 67.5954C47.7811 67.5637 47.7664 67.5321 47.7368 67.5004C47.7094 67.4667 47.6641 67.4393 47.6008 67.4182C47.5755 67.4097 47.4932 67.3971 47.354 67.3802L47.1199 67.3517C47.1009 67.3306 47.0914 67.3127 47.0914 67.2979L47.1009 67.2726L48.126 67.2631H48.4646C48.5785 67.2631 48.6565 67.2705 48.6987 67.2853L48.7019 67.3106C48.7019 67.3275 48.6955 67.3496 48.6829 67.377C48.6323 67.3939 48.5859 67.4045 48.5437 67.4087C48.3665 67.4298 48.2568 67.4551 48.2146 67.4846C48.1724 67.512 48.1281 67.5722 48.0817 67.665L47.2496 69.7216C46.9901 70.3396 46.8056 70.8184 46.6959 71.1581L46.6041 71.4333C46.5767 71.4502 46.5535 71.4586 46.5345 71.4586C46.5113 71.4586 46.486 71.4565 46.4586 71.4523C46.2076 70.8026 46.003 70.3006 45.8448 69.9462L44.8766 67.7504C44.807 67.6196 44.7542 67.5416 44.7184 67.5163C44.6846 67.4888 44.5633 67.4509 44.3545 67.4024C44.2807 67.3855 44.2395 67.3749 44.2311 67.3707C44.2163 67.3602 44.2058 67.3444 44.1995 67.3233ZM48.781 71.234C48.8274 71.215 48.8748 71.2034 48.9233 71.1992C49.2461 71.1781 49.4306 71.1401 49.477 71.0853C49.5235 71.0283 49.5467 70.7573 49.5467 70.2721L49.5435 69.9399V69.5919L49.5308 69.209L49.5372 68.9844L49.534 68.7376V68.4465L49.5277 68.3168L49.534 68.1522C49.5361 68.1143 49.5372 68.07 49.5372 68.0193C49.5372 67.8865 49.5308 67.7462 49.5182 67.5985C49.5097 67.569 49.4981 67.5405 49.4834 67.5131C49.4053 67.473 49.2788 67.4467 49.1037 67.434C48.9307 67.4192 48.8326 67.4034 48.8094 67.3865C48.7926 67.3739 48.7831 67.3412 48.781 67.2885H49.0467L49.8852 67.3074C50.1004 67.3074 50.3872 67.3011 50.7458 67.2885C50.7458 67.3222 50.7437 67.3538 50.7395 67.3834C50.6973 67.3939 50.6266 67.4055 50.5275 67.4182C50.3271 67.4414 50.2048 67.4635 50.1605 67.4846C50.1331 67.4952 50.113 67.5131 50.1004 67.5384C50.0793 67.5764 50.0666 67.647 50.0624 67.7504L50.0466 68.1586L50.0592 69.5665V70.1234C50.055 70.2985 50.0529 70.4177 50.0529 70.481C50.0529 70.7172 50.0582 70.868 50.0687 70.9334C50.0814 70.9988 50.1014 71.0463 50.1288 71.0758C50.1584 71.1032 50.2058 71.1254 50.2712 71.1422C50.3682 71.1654 50.4442 71.1781 50.499 71.1802C50.6172 71.1844 50.692 71.2013 50.7237 71.2308C50.73 71.2582 50.7332 71.2814 50.7332 71.3004V71.3257C50.5412 71.3321 50.3999 71.3352 50.3092 71.3352C50.2565 71.3352 50.1626 71.3321 50.0276 71.3257L49.591 71.3321L48.8474 71.3289H48.7873L48.781 71.234ZM53.4574 67.4308C53.4743 67.5701 53.4827 67.6502 53.4827 67.6713L53.47 67.9529C53.4658 68.0731 53.4606 68.1501 53.4542 68.1839C53.4352 68.1923 53.4194 68.1965 53.4068 68.1965L53.3783 68.1902C53.3108 67.8949 53.1958 67.6797 53.0334 67.5447C52.8731 67.4097 52.6769 67.3422 52.4449 67.3422C52.2044 67.3422 52.0072 67.4097 51.8532 67.5447C51.6992 67.6797 51.6223 67.8369 51.6223 68.0162C51.6223 68.1533 51.676 68.2788 51.7836 68.3927C51.8912 68.5066 52.1665 68.6775 52.6094 68.9053C52.9469 69.0803 53.1884 69.2238 53.334 69.3356C53.4795 69.4453 53.5892 69.5729 53.663 69.7184C53.7369 69.864 53.7738 70.0264 53.7738 70.2057C53.7738 70.4314 53.7147 70.6434 53.5966 70.8416C53.4806 71.0399 53.3234 71.1897 53.1252 71.2909C52.9269 71.3901 52.6643 71.4396 52.3373 71.4396C52.0526 71.4396 51.7794 71.3943 51.5178 71.3036C51.3639 71.2488 51.27 71.2045 51.2362 71.1707C51.2025 71.137 51.1856 71.1011 51.1856 71.0631C51.1856 71.0399 51.1877 71.0104 51.1919 70.9745C51.2215 70.7256 51.2373 70.521 51.2394 70.3607C51.2436 70.2616 51.251 70.2036 51.2616 70.1867C51.27 70.1719 51.2858 70.1645 51.309 70.1645C51.328 70.1645 51.3428 70.1719 51.3533 70.1867C51.366 70.1994 51.3744 70.2247 51.3786 70.2626C51.4018 70.5221 51.5221 70.7541 51.7393 70.9587C51.9545 71.1633 52.1981 71.2656 52.4702 71.2656C52.6369 71.2656 52.7898 71.2308 52.929 71.1612C53.0703 71.0916 53.18 70.9914 53.2581 70.8606C53.3382 70.7277 53.3783 70.5991 53.3783 70.4746C53.3783 70.3038 53.3182 70.1477 53.1979 70.0063C53.0777 69.865 52.8362 69.7005 52.4734 69.5128C52.1106 69.3229 51.8743 69.1848 51.7646 69.0983C51.5875 68.9569 51.4546 68.8072 51.366 68.649C51.3006 68.5266 51.2679 68.3843 51.2679 68.2218C51.2679 67.9286 51.3839 67.6808 51.6159 67.4783C51.848 67.2737 52.1591 67.1714 52.5493 67.1714C52.7645 67.1714 52.9501 67.1956 53.1062 67.2442C53.2201 67.2821 53.3372 67.3444 53.4574 67.4308ZM54.3465 69.3134C54.3465 69.0983 54.3718 68.9074 54.4224 68.7407C54.4751 68.572 54.5627 68.3895 54.685 68.1934C54.8074 67.9972 54.955 67.8337 55.128 67.7029C55.301 67.5701 55.5404 67.453 55.8462 67.3517C56.0614 67.2821 56.3335 67.2473 56.6625 67.2473C56.884 67.2473 57.1002 67.2769 57.3112 67.3359C57.5242 67.395 57.7172 67.4772 57.8902 67.5827C58.0631 67.6882 58.2361 67.8506 58.4091 68.07C58.5293 68.2218 58.62 68.3853 58.6812 68.5604C58.7613 68.7903 58.8014 69.0276 58.8014 69.2723C58.8014 69.5507 58.774 69.7817 58.7191 69.9652C58.6664 70.1487 58.5768 70.3301 58.4502 70.5094C58.3511 70.6486 58.1813 70.809 57.9408 70.9904C57.7805 71.1127 57.5812 71.2118 57.3428 71.2878C57.1044 71.3616 56.8471 71.3985 56.5708 71.3985C56.2902 71.3985 56.0403 71.3658 55.8209 71.3004C55.6015 71.235 55.418 71.1559 55.2704 71.0631C55.1248 70.9682 54.974 70.829 54.8179 70.6455C54.6639 70.462 54.5469 70.2595 54.4667 70.038C54.3866 69.8165 54.3465 69.575 54.3465 69.3134ZM56.5423 71.2814C56.7195 71.2814 56.903 71.2572 57.0928 71.2087C57.2848 71.1581 57.4546 71.0758 57.6023 70.9619C57.7499 70.8459 57.8649 70.7151 57.9471 70.5695C58.0315 70.4219 58.099 70.2331 58.1496 70.0032C58.2003 69.7733 58.2256 69.5433 58.2256 69.3134C58.2256 69.0266 58.1834 68.7428 58.099 68.4623C58.0336 68.2493 57.9271 68.0594 57.7794 67.8928C57.6318 67.724 57.4535 67.5943 57.2447 67.5036C57.0359 67.4108 56.8134 67.3644 56.5771 67.3644C56.3852 67.3644 56.1974 67.396 56.0139 67.4593C55.8304 67.5226 55.6796 67.6038 55.5615 67.7029C55.4433 67.8 55.3336 67.9392 55.2324 68.1206C55.1312 68.2999 55.0542 68.4982 55.0014 68.7154C54.9487 68.9327 54.9223 69.1246 54.9223 69.2913C54.9223 69.4664 54.9487 69.6646 55.0014 69.8861C55.0542 70.1076 55.1259 70.2995 55.2166 70.462C55.3094 70.6244 55.4222 70.7689 55.5551 70.8954C55.6901 71.0199 55.8409 71.1159 56.0076 71.1834C56.1742 71.2488 56.3525 71.2814 56.5423 71.2814ZM59.2887 71.2403C59.5966 71.2045 59.7707 71.1791 59.8107 71.1644C59.8382 71.1538 59.8635 71.1222 59.8867 71.0695V71.0347C59.8867 70.9819 59.8951 70.791 59.912 70.462C59.9162 70.3692 59.9183 70.2785 59.9183 70.1899L59.9088 69.8133L59.9151 69.3862L59.912 68.592L59.9151 68.0225C59.9173 67.782 59.8983 67.6354 59.8582 67.5827C59.8202 67.53 59.72 67.4931 59.5576 67.472C59.3952 67.4488 59.3055 67.4319 59.2887 67.4213C59.2718 67.4108 59.2634 67.3939 59.2634 67.3707C59.2634 67.356 59.2665 67.337 59.2729 67.3138C59.2939 67.2948 59.3425 67.2842 59.4184 67.2821C59.4289 67.2821 59.4574 67.28 59.5038 67.2758C59.5523 67.2695 59.5977 67.2663 59.6399 67.2663H59.8993L60.7315 67.2568C61.2019 67.2568 61.5309 67.2916 61.7186 67.3612C61.9085 67.4308 62.0593 67.549 62.1711 67.7156C62.2829 67.8801 62.3388 68.0647 62.3388 68.2693C62.3388 68.6574 62.1352 68.9538 61.7281 69.1584C61.6585 69.1942 61.6037 69.2259 61.5636 69.2533C61.6353 69.4052 61.7355 69.5876 61.8642 69.8007L62.266 70.4904C62.4263 70.7436 62.5371 70.9028 62.5982 70.9682C62.6594 71.0315 62.7332 71.0842 62.8197 71.1264C62.9083 71.1686 63.056 71.2087 63.2627 71.2466C63.2648 71.2677 63.2658 71.2846 63.2658 71.2973C63.2658 71.3099 63.2648 71.3257 63.2627 71.3447C62.9737 71.3489 62.6352 71.3511 62.247 71.3511C62.2196 71.3511 62.1816 71.3489 62.1331 71.3447C61.9834 71.0579 61.8072 70.7425 61.6047 70.3987L61.1365 69.5444C61.0732 69.4558 61.0204 69.401 60.9783 69.3799C60.9382 69.3567 60.8844 69.3451 60.8169 69.3451L60.548 69.3482L60.4594 69.3451C60.453 69.4126 60.4499 69.5507 60.4499 69.7596V70.8416C60.4478 70.8817 60.4562 70.9376 60.4752 71.0093C60.4921 71.0494 60.5205 71.0821 60.5606 71.1074C60.6028 71.1306 60.722 71.1665 60.9181 71.215L61.0479 71.2466C61.0647 71.2677 61.0732 71.2962 61.0732 71.3321C61.0162 71.3426 60.9762 71.3479 60.9529 71.3479C60.7631 71.3479 60.6292 71.3458 60.5511 71.3416C60.511 71.3395 60.4783 71.3384 60.453 71.3384L60.0227 71.3447L59.6019 71.3416C59.5829 71.3416 59.487 71.3447 59.314 71.3511L59.2507 71.3384L59.2444 71.3068C59.2444 71.2878 59.2591 71.2656 59.2887 71.2403ZM60.4657 69.171C60.5226 69.1732 60.5648 69.1742 60.5922 69.1742C60.7441 69.1742 60.9192 69.1563 61.1175 69.1204C61.2567 69.093 61.3695 69.0487 61.456 68.9875C61.5425 68.9243 61.6142 68.8314 61.6712 68.7091C61.7302 68.5868 61.7598 68.4602 61.7598 68.3294C61.7598 68.186 61.7144 68.0341 61.6237 67.8738C61.5541 67.7515 61.436 67.6492 61.2693 67.5669C61.1048 67.4846 60.9065 67.4435 60.6745 67.4435C60.6176 67.4435 60.5437 67.4467 60.453 67.453C60.4446 67.5627 60.4404 67.647 60.4404 67.7061L60.4562 68.2978L60.453 68.5414C60.453 68.7059 60.4573 68.9158 60.4657 69.171ZM65.6768 67.4308C65.6937 67.5701 65.7021 67.6502 65.7021 67.6713L65.6895 67.9529C65.6853 68.0731 65.68 68.1501 65.6737 68.1839C65.6547 68.1923 65.6389 68.1965 65.6262 68.1965L65.5977 68.1902C65.5302 67.8949 65.4153 67.6797 65.2529 67.5447C65.0925 67.4097 64.8964 67.3422 64.6643 67.3422C64.4239 67.3422 64.2267 67.4097 64.0727 67.5447C63.9187 67.6797 63.8417 67.8369 63.8417 68.0162C63.8417 68.1533 63.8955 68.2788 64.0031 68.3927C64.1106 68.5066 64.3859 68.6775 64.8289 68.9053C65.1664 69.0803 65.4079 69.2238 65.5534 69.3356C65.699 69.4453 65.8087 69.5729 65.8825 69.7184C65.9563 69.864 65.9932 70.0264 65.9932 70.2057C65.9932 70.4314 65.9342 70.6434 65.816 70.8416C65.7 71.0399 65.5429 71.1897 65.3446 71.2909C65.1463 71.3901 64.8837 71.4396 64.5568 71.4396C64.272 71.4396 63.9988 71.3943 63.7373 71.3036C63.5833 71.2488 63.4894 71.2045 63.4557 71.1707C63.4219 71.137 63.4051 71.1011 63.4051 71.0631C63.4051 71.0399 63.4072 71.0104 63.4114 70.9745C63.4409 70.7256 63.4567 70.521 63.4589 70.3607C63.4631 70.2616 63.4705 70.2036 63.481 70.1867C63.4894 70.1719 63.5053 70.1645 63.5285 70.1645C63.5474 70.1645 63.5622 70.1719 63.5728 70.1867C63.5854 70.1994 63.5939 70.2247 63.5981 70.2626C63.6213 70.5221 63.7415 70.7541 63.9588 70.9587C64.1739 71.1633 64.4175 71.2656 64.6897 71.2656C64.8563 71.2656 65.0092 71.2308 65.1484 71.1612C65.2898 71.0916 65.3995 70.9914 65.4775 70.8606C65.5577 70.7277 65.5977 70.5991 65.5977 70.4746C65.5977 70.3038 65.5376 70.1477 65.4174 70.0063C65.2971 69.865 65.0556 69.7005 64.6928 69.5128C64.33 69.3229 64.0938 69.1848 63.9841 69.0983C63.8069 68.9569 63.674 68.8072 63.5854 68.649C63.52 68.5266 63.4873 68.3843 63.4873 68.2218C63.4873 67.9286 63.6033 67.6808 63.8354 67.4783C64.0674 67.2737 64.3785 67.1714 64.7688 67.1714C64.9839 67.1714 65.1695 67.1956 65.3256 67.2442C65.4395 67.2821 65.5566 67.3444 65.6768 67.4308Z" fill="black"/>
<path d="M58.4471 66.1879H55.0543L46.9158 49.1723H50.3086L58.4471 66.1879Z" fill="url(#paint10_linear_183_1424)"/>
<path d="M56.7213 66.1879L48.5828 49.1723" stroke="white" stroke-width="0.904303" stroke-miterlimit="10"/>
<g style="mix-blend-mode:multiply" opacity="0.1">
<path d="M49.1027 53.7352L50.3824 49.3186L50.3092 49.1723H47.0261L46.9895 49.3186L49.1027 53.7352Z" fill="black"/>
</g>
<g style="mix-blend-mode:multiply" opacity="0.1">
<path d="M55.0542 66.1879H58.447L54.1548 57.2158L54.7398 65.5298L55.0542 66.1879Z" fill="black"/>
</g>
<path d="M61.5406 56.5432H41.081L39.7063 59.0951H60.1732L61.5406 56.5432Z" fill="url(#paint11_linear_183_1424)"/>
<g style="mix-blend-mode:multiply" opacity="0.1">
<path d="M41.8997 59.0951H46.521L47.5008 56.5432H43.1354L41.8997 59.0951Z" fill="black"/>
</g>
<g style="mix-blend-mode:multiply" opacity="0.1">
<path d="M54.7186 59.0951H58.6672L58.9743 56.5432H54.3237L54.7186 59.0951Z" fill="black"/>
</g>
<path d="M40.4807 62.8023H43.8736L50.3083 49.1724H46.9155L40.4807 62.8023Z" fill="url(#paint12_linear_183_1424)"/>
<mask id="mask0_183_1424" style="mask-type:luminance" maskUnits="userSpaceOnUse" x="42" y="46" width="11" height="15">
<path d="M42.3105 60.0931H45.7034L52.1382 46.4676H48.7453L42.3105 60.0931Z" fill="white"/>
</mask>
<g mask="url(#mask0_183_1424)">
<path d="M41.8484 63.3874L48.8389 48.5875" stroke="white" stroke-width="0.904303" stroke-miterlimit="10"/>
</g>
<path d="M55.0549 53.6841H58.4478V66.1879H55.0549V53.6841Z" fill="url(#paint13_linear_183_1424)"/>
<path d="M56.7507 53.6841V66.1879" stroke="white" stroke-width="0.904303" stroke-miterlimit="10"/>
<path d="M59.4781 49.8671C59.4781 51.3734 58.257 52.5945 56.7507 52.5945C55.2443 52.5945 54.0232 51.3734 54.0232 49.8671C54.0232 48.3608 55.2443 47.1396 56.7507 47.1396C58.257 47.1396 59.4781 48.3608 59.4781 49.8671Z" fill="url(#paint14_linear_183_1424)"/>
<g style="mix-blend-mode:multiply" opacity="0.1">
<path d="M58.6814 49.867C58.6814 50.9346 57.8186 51.7974 56.751 51.7974C55.6834 51.7974 54.8206 50.9346 54.8206 49.867C54.8206 48.8067 55.6834 47.9439 56.751 47.9439C57.8186 47.9439 58.6814 48.8067 58.6814 49.867Z" fill="black"/>
</g>
<path d="M58.4249 49.867C58.4249 50.7957 57.6718 51.5415 56.7504 51.5415C55.8291 51.5415 55.0759 50.7957 55.0759 49.867C55.0759 48.9457 55.8291 48.1999 56.7504 48.1999C57.6718 48.1999 58.4249 48.9457 58.4249 49.867Z" fill="url(#paint15_linear_183_1424)"/>
<defs>
<filter id="filter0_d_183_1424" x="0.637501" y="0.887501" width="100.725" height="100.725" filterUnits="userSpaceOnUse" color-interpolation-filters="sRGB">
<feFlood flood-opacity="0" result="BackgroundImageFix"/>
<feColorMatrix in="SourceAlpha" type="matrix" values="0 0 0 0 0 0 0 0 0 0 0 0 0 0 0 0 0 0 127 0" result="hardAlpha"/>
<feOffset dy="4.25"/>
<feGaussianBlur stdDeviation="8.18125"/>
<feComposite in2="hardAlpha" operator="out"/>
<feColorMatrix type="matrix" values="0 0 0 0 0 0 0 0 0 0 0 0 0 0 0 0 0 0 0.25 0"/>
<feBlend mode="normal" in2="BackgroundImageFix" result="effect1_dropShadow_183_1424"/>
<feBlend mode="normal" in="SourceGraphic" in2="effect1_dropShadow_183_1424" result="shape"/>
</filter>
<linearGradient id="paint0_linear_183_1424" x1="18.6345" y1="73.4641" x2="18.6345" y2="19.0004" gradientUnits="userSpaceOnUse">
<stop offset="0.044" stop-color="white"/>
<stop offset="1" stop-color="#2B2B2B"/>
</linearGradient>
<linearGradient id="paint1_linear_183_1424" x1="18.9509" y1="73.4659" x2="18.9509" y2="18.9996" gradientUnits="userSpaceOnUse">
<stop offset="0.044" stop-color="white"/>
<stop offset="1" stop-color="#2B2B2B"/>
</linearGradient>
<linearGradient id="paint2_linear_183_1424" x1="19.3362" y1="73.467" x2="19.3362" y2="18.9988" gradientUnits="userSpaceOnUse">
<stop offset="0.044" stop-color="white"/>
<stop offset="1" stop-color="#2B2B2B"/>
</linearGradient>
<linearGradient id="paint3_linear_183_1424" x1="19.8066" y1="73.466" x2="19.8066" y2="18.9978" gradientUnits="userSpaceOnUse">
<stop offset="0.044" stop-color="white"/>
<stop offset="1" stop-color="#2B2B2B"/>
</linearGradient>
<linearGradient id="paint4_linear_183_1424" x1="20.3997" y1="73.4652" x2="20.3997" y2="19.0015" gradientUnits="userSpaceOnUse">
<stop offset="0.044" stop-color="white"/>
<stop offset="1" stop-color="#2B2B2B"/>
</linearGradient>
<linearGradient id="paint5_linear_183_1424" x1="21.1469" y1="73.4665" x2="21.1469" y2="19.0006" gradientUnits="userSpaceOnUse">
<stop offset="0.044" stop-color="white"/>
<stop offset="1" stop-color="#2B2B2B"/>
</linearGradient>
<linearGradient id="paint6_linear_183_1424" x1="22.1554" y1="73.4679" x2="22.1554" y2="18.9993" gradientUnits="userSpaceOnUse">
<stop offset="0.044" stop-color="white"/>
<stop offset="1" stop-color="#2B2B2B"/>
</linearGradient>
<linearGradient id="paint7_linear_183_1424" x1="23.5157" y1="73.4679" x2="23.5157" y2="18.9976" gradientUnits="userSpaceOnUse">
<stop offset="0.044" stop-color="white"/>
<stop offset="1" stop-color="#2B2B2B"/>
</linearGradient>
<linearGradient id="paint8_linear_183_1424" x1="25.5875" y1="73.4649" x2="25.5875" y2="19.0046" gradientUnits="userSpaceOnUse">
<stop offset="0.044" stop-color="white"/>
<stop offset="1" stop-color="#2B2B2B"/>
</linearGradient>
<linearGradient id="paint9_linear_183_1424" x1="42.4926" y1="40.3733" x2="42.4926" y2="24.7516" gradientUnits="userSpaceOnUse">
<stop offset="0.044" stop-color="white"/>
<stop offset="1" stop-color="#2B2B2B"/>
</linearGradient>
<linearGradient id="paint10_linear_183_1424" x1="41.5547" y1="70.122" x2="36.4449" y2="55.9902" gradientUnits="userSpaceOnUse">
<stop stop-color="#00C5DB"/>
<stop offset="1" stop-color="#1B5582"/>
</linearGradient>
<linearGradient id="paint11_linear_183_1424" x1="40.1903" y1="56.5403" x2="61.6503" y2="56.5403" gradientUnits="userSpaceOnUse">
<stop stop-color="#5B6F7A"/>
<stop offset="1" stop-color="#1F282E"/>
</linearGradient>
<linearGradient id="paint12_linear_183_1424" x1="58.7464" y1="52.8136" x2="53.1576" y2="67.1051" gradientUnits="userSpaceOnUse">
<stop stop-color="#00C5DB"/>
<stop offset="1" stop-color="#1B5582"/>
</linearGradient>
<linearGradient id="paint13_linear_183_1424" x1="79.7907" y1="54.6791" x2="79.7907" y2="65.7796" gradientUnits="userSpaceOnUse">
<stop stop-color="#00C5DB"/>
<stop offset="1" stop-color="#1B5582"/>
</linearGradient>
<linearGradient id="paint14_linear_183_1424" x1="59.4776" y1="47.4139" x2="59.4776" y2="52.6358" gradientUnits="userSpaceOnUse">
<stop stop-color="#00C5DB"/>
<stop offset="1" stop-color="#1B5582"/>
</linearGradient>
<linearGradient id="paint15_linear_183_1424" x1="58.4215" y1="48.4774" x2="58.4215" y2="51.7972" gradientUnits="userSpaceOnUse">
<stop stop-color="white"/>
<stop offset="1" stop-color="#B6C9D9"/>
</linearGradient>
</defs>
</svg>
