<svg width="24" height="24" viewBox="0 0 24 24" fill="none" xmlns="http://www.w3.org/2000/svg">
<g clip-path="url(#clip0_122_2012)">
<path d="M22.125 1.3125C22.0504 1.3125 21.9789 1.34213 21.9261 1.39488C21.8734 1.44762 21.8438 1.51916 21.8438 1.59375V8.15625C21.8437 8.23084 21.8734 8.30238 21.9261 8.35512C21.9789 8.40787 22.0504 8.4375 22.125 8.4375C22.1996 8.4375 22.2711 8.40787 22.3239 8.35512C22.3766 8.30238 22.4062 8.23084 22.4062 8.15625V1.59375C22.4062 1.51916 22.3766 1.44762 22.3239 1.39488C22.2711 1.34213 22.1996 1.3125 22.125 1.3125Z" fill="#263238"/>
<path d="M1.59375 1.59375V8.15625C1.59375 8.23084 1.62338 8.30238 1.67613 8.35512C1.72887 8.40787 1.80041 8.4375 1.875 8.4375C1.94959 8.4375 2.02113 8.40787 2.07387 8.35512C2.12662 8.30238 2.15625 8.23084 2.15625 8.15625V1.59375C2.15625 1.51916 2.12662 1.44762 2.07387 1.39488C2.02113 1.34213 1.94959 1.3125 1.875 1.3125C1.80041 1.3125 1.72887 1.34213 1.67613 1.39488C1.62338 1.44762 1.59375 1.51916 1.59375 1.59375Z" fill="#263238"/>
<path d="M22.125 3.46875C23.0052 3.46875 23.7188 2.7552 23.7188 1.875C23.7188 0.994796 23.0052 0.28125 22.125 0.28125C21.2448 0.28125 20.5312 0.994796 20.5312 1.875C20.5312 2.7552 21.2448 3.46875 22.125 3.46875Z" fill="#37474F"/>
<path d="M12 1.5C5.51587 1.5 0.28125 6.40744 0.28125 12.846V17.1291C0.28125 18.0314 0.639694 18.8967 1.27773 19.5348C1.91576 20.1728 2.78112 20.5313 3.68344 20.5313H8.9085C8.98896 20.5307 9.06691 20.5592 9.12799 20.6116C9.18908 20.664 9.22919 20.7367 9.24094 20.8163C9.29713 21.3847 9.17945 21.9568 8.90344 22.4569C8.83353 22.5999 8.80754 22.7604 8.82874 22.9182C8.84994 23.076 8.91738 23.224 9.02256 23.3435C9.12774 23.463 9.26595 23.5487 9.41976 23.5898C9.57358 23.6309 9.73611 23.6255 9.88688 23.5744C11.3559 23.067 13.1743 22.1732 14.2731 20.6723C14.3041 20.6289 14.3449 20.5936 14.3923 20.5691C14.4396 20.5445 14.492 20.5316 14.5453 20.5313H20.3166C21.2189 20.5313 22.0842 20.1728 22.7223 19.5348C23.3603 18.8967 23.7188 18.0314 23.7188 17.1291V12.846C23.7197 6.40744 18.4841 1.5 12 1.5Z" fill="#CFD8DC"/>
<path d="M4.40627 18.0938C3.95872 18.0938 3.5295 17.916 3.21303 17.5995C2.89656 17.283 2.71877 16.8538 2.71877 16.4062V12.75C2.63477 7.73025 7.0414 3.85594 12 3.84375C16.9738 3.83137 21.367 7.71337 21.2813 12.75V16.4062C21.2813 16.8538 21.1035 17.283 20.787 17.5995C20.4705 17.916 20.0413 18.0938 19.5938 18.0938H4.40627Z" fill="#37474F"/>
<path d="M1.875 3.46875C2.7552 3.46875 3.46875 2.7552 3.46875 1.875C3.46875 0.994796 2.7552 0.28125 1.875 0.28125C0.994796 0.28125 0.28125 0.994796 0.28125 1.875C0.28125 2.7552 0.994796 3.46875 1.875 3.46875Z" fill="#37474F"/>
<path d="M7.3125 11.5312C8.08915 11.5312 8.71875 10.9017 8.71875 10.125C8.71875 9.34835 8.08915 8.71875 7.3125 8.71875C6.53585 8.71875 5.90625 9.34835 5.90625 10.125C5.90625 10.9017 6.53585 11.5312 7.3125 11.5312Z" fill="#03A9F4"/>
<path d="M16.6875 11.5312C17.4642 11.5312 18.0938 10.9017 18.0938 10.125C18.0938 9.34835 17.4642 8.71875 16.6875 8.71875C15.9108 8.71875 15.2812 9.34835 15.2812 10.125C15.2812 10.9017 15.9108 11.5312 16.6875 11.5312Z" fill="#03A9F4"/>
<path d="M9.41253 12.8438C9.32911 12.8437 9.24673 12.8623 9.17136 12.898C9.09598 12.9338 9.02951 12.9858 8.97674 13.0504C8.92397 13.1151 8.88624 13.1906 8.86627 13.2716C8.8463 13.3526 8.8446 13.437 8.86128 13.5187C9.01587 14.2364 9.41172 14.8794 9.98285 15.3406C10.554 15.8018 11.2659 16.0534 12 16.0534C12.7341 16.0534 13.4461 15.8018 14.0172 15.3406C14.5883 14.8794 14.9842 14.2364 15.1388 13.5187C15.1555 13.437 15.1538 13.3526 15.1338 13.2716C15.1138 13.1906 15.0761 13.1151 15.0233 13.0504C14.9706 12.9858 14.9041 12.9338 14.8287 12.898C14.7533 12.8623 14.671 12.8437 14.5875 12.8438H9.41253Z" fill="white"/>
<path d="M14.3569 15.0225C14.0564 15.3477 13.6919 15.6072 13.2863 15.7847C12.8807 15.9621 12.4427 16.0538 12 16.0538C11.5573 16.0538 11.1193 15.9621 10.7137 15.7847C10.3081 15.6072 9.94358 15.3477 9.64313 15.0225C9.9498 14.708 10.3163 14.458 10.7211 14.2873C11.1259 14.1167 11.5607 14.0287 12 14.0287C12.4393 14.0287 12.8741 14.1167 13.2789 14.2873C13.6837 14.458 14.0502 14.708 14.3569 15.0225Z" fill="#03A9F4"/>
</g>
<defs>
<clipPath id="clip0_122_2012">
<rect width="24" height="24" fill="white"/>
</clipPath>
</defs>
</svg>
