<svg width="33" height="32" viewBox="0 0 33 32" fill="none" xmlns="http://www.w3.org/2000/svg">
<g clip-path="url(#clip0_231_4794)">
<path d="M31.6875 19.87C30.9251 22.9434 29.2678 25.7215 26.9256 27.8524C24.5834 29.9834 21.6615 31.3715 18.5299 31.8408C15.3983 32.3102 12.1979 31.8398 9.33381 30.4892C6.46974 29.1386 4.07083 26.9685 2.44082 24.2537C0.810816 21.5389 0.0230205 18.4015 0.17718 15.2387C0.33134 12.0759 1.42052 9.02991 3.30682 6.4865C5.19312 3.94308 7.7917 2.01657 10.7736 0.950894C13.7554 -0.114783 16.9864 -0.271701 20.0575 0.500008C24.1649 1.53212 27.6956 4.1506 29.8756 7.7815C32.0556 11.4124 32.7072 15.7595 31.6875 19.87Z" fill="#C2A633"/>
<g opacity="0.24">
<path d="M16.1875 32C13.759 31.9962 11.3633 31.4397 9.18184 30.3726C7.00039 29.3055 5.09046 27.7559 3.5968 25.8411C2.10313 23.9263 1.06493 21.6966 0.560864 19.3211C0.0568 16.9455 0.100102 14.4864 0.687489 12.13C1.71961 8.02261 4.33808 4.49195 7.96898 2.31191C11.5999 0.131873 15.947 -0.519701 20.0575 0.500007C23.8248 1.4643 27.112 3.76764 29.3046 6.97943C31.4971 10.1912 32.4448 14.0916 31.9706 17.9513C31.4964 21.8111 29.6327 25.3661 26.728 27.9516C23.8232 30.5372 20.0762 31.9763 16.1875 32ZM16.1875 3.00001C13.2877 3.00226 10.472 3.97395 8.18798 5.76055C5.90398 7.54716 4.28289 10.0461 3.58249 12.86C2.87217 16.1597 3.47303 19.6062 5.25802 22.4709C7.04301 25.3355 9.87217 27.3936 13.1472 28.2099C16.4223 29.0262 19.8864 28.5368 22.8071 26.8451C25.7278 25.1534 27.876 22.392 28.7975 19.145C29.6306 15.8007 29.1015 12.2624 27.3266 9.30804C25.5518 6.35366 22.6763 4.225 19.3325 3.39001C18.3036 3.13404 17.2477 3.00309 16.1875 3.00001Z" fill="white"/>
</g>
<g opacity="0.3">
<path d="M31.2325 10.565L0.392513 18.565C-0.244289 14.6309 0.610032 10.6007 2.78826 7.26337C4.96649 3.926 8.31182 1.52168 12.1695 0.520995C16.0271 -0.479689 20.1193 -0.00468934 23.6452 1.85302C27.171 3.71073 29.8767 6.81742 31.2325 10.565Z" fill="white"/>
</g>
<path d="M28.7976 19.145C28.1763 21.6401 26.829 23.895 24.9261 25.6244C23.0232 27.3537 20.6503 28.48 18.1073 28.8606C15.5643 29.2413 12.9655 28.8593 10.6397 27.7629C8.31381 26.6665 6.36532 24.905 5.04064 22.7012C3.71596 20.4973 3.07459 17.9502 3.19764 15.3818C3.32069 12.8134 4.20263 10.3392 5.73193 8.27211C7.26123 6.205 9.36919 4.63784 11.7892 3.76883C14.2092 2.89981 16.8326 2.76798 19.3276 3.39C22.6723 4.2239 25.549 6.35211 27.3248 9.30661C29.1007 12.2611 29.6305 15.8 28.7976 19.145Z" fill="#C2A633"/>
<path d="M15.5775 8.37H11.1875V15.16H9.38745V16.825H11.1875V23.615H16.3025C16.3025 23.615 23.4875 24.22 23.4875 16.115C23.4875 8.15499 16.6125 8.37 15.5775 8.37ZM16.1875 20.8H14.0725V16.8H17.2425V15.16H14.0725V11.19H16.0725C16.8225 11.19 20.6175 11.49 20.6225 16.19C20.6275 20.89 16.7275 20.8 16.1875 20.8Z" fill="white"/>
</g>
<defs>
<clipPath id="clip0_231_4794">
<rect width="32" height="32" fill="white" transform="translate(0.1875)"/>
</clipPath>
</defs>
</svg>
