<svg width="18" height="18" viewBox="0 0 18 18" fill="none" xmlns="http://www.w3.org/2000/svg">
<rect width="18" height="18" fill="#1E1E1E"/>
<g clip-path="url(#clip0_149_813)">
<rect width="390" height="904" transform="translate(-41 -282)" fill="#F1FEFF"/>
<path d="M-41 -282H349V30C349 38.8365 341.837 46 333 46H-25C-33.8366 46 -41 38.8365 -41 30V-282Z" fill="url(#paint0_linear_149_813)"/>
<g filter="url(#filter0_d_149_813)">
<rect x="-9" y="-10" width="152" height="96" rx="8" fill="white"/>
</g>
<path d="M9.72997 5.32141C11.4813 5.59833 11.9753 6.81829 11.9753 7.48441C11.9753 7.6829 11.8964 7.87327 11.7561 8.01363C11.6157 8.15399 11.4253 8.23285 11.2268 8.23285C11.0284 8.23285 10.838 8.15399 10.6976 8.01363C10.5573 7.87327 10.4784 7.6829 10.4784 7.48441C10.4784 7.34969 10.3437 6.73596 8.98153 6.73596C7.61937 6.73596 7.48465 7.34969 7.48465 7.48441C7.48465 7.61912 7.6044 8.23285 8.98153 8.23285C11.3466 8.23285 11.9753 9.72973 11.9753 10.4782C11.9753 11.2266 11.4813 12.3867 9.72997 12.6636V13.4719C9.72997 13.6704 9.65112 13.8608 9.51076 14.0012C9.3704 14.1415 9.18003 14.2204 8.98153 14.2204C8.78303 14.2204 8.59266 14.1415 8.4523 14.0012C8.31194 13.8608 8.23309 13.6704 8.23309 13.4719V12.6636C7.88067 12.6276 7.53897 12.5217 7.22797 12.3521C6.91697 12.1824 6.64293 11.9525 6.42186 11.6757C6.15642 11.3312 6.00471 10.9127 5.98777 10.4782C5.98777 10.2797 6.06662 10.0893 6.20698 9.94894C6.34734 9.80858 6.53771 9.72973 6.73621 9.72973C6.93471 9.72973 7.12507 9.80858 7.26543 9.94894C7.40579 10.0893 7.48465 10.2797 7.48465 10.4782C7.48465 10.5829 7.6044 11.2266 8.98153 11.2266C10.4784 11.2266 10.4784 10.4782 10.4784 10.4782C10.4784 10.4782 10.3587 9.72973 8.98153 9.72973C6.61646 9.72973 5.98777 8.23285 5.98777 7.48441C5.98777 6.73596 6.48174 5.59833 8.23309 5.32141V4.49064C8.23309 4.29214 8.31194 4.10178 8.4523 3.96142C8.59266 3.82106 8.78303 3.7422 8.98153 3.7422C9.18003 3.7422 9.3704 3.82106 9.51076 3.96142C9.65112 4.10178 9.72997 4.29214 9.72997 4.49064V5.32141ZM12.7237 5.23908C12.8222 5.23965 12.9199 5.22077 13.0111 5.18353C13.1023 5.14628 13.1852 5.0914 13.2551 5.02204L15.7175 2.55218V3.7422C15.7175 3.9407 15.7963 4.13107 15.9367 4.27143C16.0771 4.41179 16.2674 4.49064 16.4659 4.49064C16.6644 4.49064 16.8548 4.41179 16.9952 4.27143C17.1355 4.13107 17.2144 3.9407 17.2144 3.7422V0.748441C17.2132 0.650636 17.1929 0.554012 17.1545 0.464033C17.0786 0.281152 16.9332 0.135823 16.7503 0.0598752C16.6604 0.0215244 16.5637 0.00118253 16.4659 0H13.4722C13.2737 0 13.0833 0.0788535 12.9429 0.219213C12.8026 0.359573 12.7237 0.549942 12.7237 0.748441C12.7237 0.946939 12.8026 1.13731 12.9429 1.27767C13.0833 1.41803 13.2737 1.49688 13.4722 1.49688H14.6622L12.1923 3.95925C12.1222 4.02883 12.0665 4.11161 12.0285 4.20281C11.9905 4.29401 11.971 4.39184 11.971 4.49064C11.971 4.58945 11.9905 4.68727 12.0285 4.77848C12.0665 4.86968 12.1222 4.95246 12.1923 5.02204C12.2623 5.0914 12.3452 5.14628 12.4364 5.18353C12.5276 5.22077 12.6252 5.23965 12.7237 5.23908ZM17.8131 7.34969C17.7774 7.15119 17.6643 6.97501 17.4987 6.85992C17.333 6.74482 17.1285 6.70023 16.93 6.73596C16.7315 6.77169 16.5553 6.88481 16.4402 7.05044C16.3251 7.21606 16.2805 7.42063 16.3162 7.61912C16.5965 9.13312 16.4029 10.6967 15.762 12.0967C15.1211 13.4966 14.064 14.6649 12.7349 15.4421C11.4057 16.2193 9.86921 16.5677 8.33483 16.4398C6.80045 16.3118 5.34287 15.7137 4.16082 14.7271C2.97878 13.7404 2.12979 12.4132 1.72962 10.9264C1.32946 9.43964 1.39758 7.8656 1.9247 6.41894C2.45182 4.97227 3.4123 3.72338 4.67516 2.84255C5.93803 1.96171 7.44183 1.4918 8.98153 1.49688C9.20841 1.4855 9.43572 1.4855 9.66261 1.49688C9.85547 1.5161 10.0483 1.45976 10.2004 1.33971C10.3526 1.21966 10.4522 1.04526 10.4784 0.853222C10.4877 0.75486 10.4774 0.655638 10.4481 0.561281C10.4188 0.466924 10.3711 0.379298 10.3078 0.303457C10.2445 0.227616 10.1668 0.165062 10.0792 0.119402C9.99155 0.0737415 9.89576 0.0458795 9.79733 0.0374222C9.52789 0.0374222 9.25845 0.0374222 8.98153 0.0374222C7.13526 0.0373726 5.33383 0.606318 3.82252 1.6668C2.3112 2.72728 1.16342 4.22776 0.535461 5.96396C-0.0924998 7.70015 -0.170132 9.58769 0.313135 11.3696C0.796401 13.1515 1.81708 14.7412 3.23621 15.9222C4.65534 17.1032 6.40396 17.8181 8.244 17.9697C10.084 18.1212 11.9261 17.702 13.5193 16.7692C15.1126 15.8363 16.3796 14.4351 17.1479 12.7563C17.9163 11.0775 18.1485 9.20265 17.8131 7.38711V7.34969Z" fill="#1B5682"/>
</g>
<defs>
<filter id="filter0_d_149_813" x="-34.9" y="-31.9" width="203.8" height="147.8" filterUnits="userSpaceOnUse" color-interpolation-filters="sRGB">
<feFlood flood-opacity="0" result="BackgroundImageFix"/>
<feColorMatrix in="SourceAlpha" type="matrix" values="0 0 0 0 0 0 0 0 0 0 0 0 0 0 0 0 0 0 127 0" result="hardAlpha"/>
<feOffset dy="4"/>
<feGaussianBlur stdDeviation="12.95"/>
<feComposite in2="hardAlpha" operator="out"/>
<feColorMatrix type="matrix" values="0 0 0 0 0 0 0 0 0 0 0 0 0 0 0 0 0 0 0.05 0"/>
<feBlend mode="normal" in2="BackgroundImageFix" result="effect1_dropShadow_149_813"/>
<feBlend mode="normal" in="SourceGraphic" in2="effect1_dropShadow_149_813" result="shape"/>
</filter>
<linearGradient id="paint0_linear_149_813" x1="-41" y1="-118" x2="388.15" y2="-110.957" gradientUnits="userSpaceOnUse">
<stop stop-color="#01C5DB"/>
<stop offset="1" stop-color="#1B5682"/>
</linearGradient>
<clipPath id="clip0_149_813">
<rect width="390" height="904" fill="white" transform="translate(-41 -282)"/>
</clipPath>
</defs>
</svg>
