<svg width="15" height="16" viewBox="0 0 15 16" fill="none" xmlns="http://www.w3.org/2000/svg">
<g clip-path="url(#clip0_947_1860)">
<path d="M2.4156 15.0589H11.6068C12.1764 15.0573 12.7222 14.8297 13.1243 14.4262C13.5263 14.0226 13.7519 13.476 13.7514 12.9063V8.28808C13.7514 8.12557 13.6868 7.96972 13.5719 7.8548C13.457 7.73989 13.3012 7.67534 13.1386 7.67534C12.9761 7.67534 12.8203 7.73989 12.7054 7.8548C12.5905 7.96972 12.5259 8.12557 12.5259 8.28808V12.9063C12.5267 13.1511 12.4304 13.3862 12.2581 13.56C12.0858 13.7338 11.8515 13.8321 11.6068 13.8334H2.4156C2.17086 13.8321 1.93662 13.7338 1.76431 13.56C1.59199 13.3862 1.49567 13.1511 1.49649 12.9063V3.7311C1.49567 3.48635 1.59199 3.25127 1.76431 3.07746C1.93662 2.90365 2.17086 2.80531 2.4156 2.80401H7.01119C7.1737 2.80401 7.32956 2.73946 7.44447 2.62454C7.55938 2.50963 7.62394 2.35378 7.62394 2.19127C7.62394 2.02876 7.55938 1.8729 7.44447 1.75799C7.32956 1.64308 7.1737 1.57852 7.01119 1.57852H2.4156C1.84594 1.58014 1.30018 1.80771 0.898115 2.21127C0.496046 2.61483 0.270508 3.16143 0.270997 3.7311V12.9063C0.270508 13.476 0.496046 14.0226 0.898115 14.4262C1.30018 14.8297 1.84594 15.0573 2.4156 15.0589Z" fill="white"/>
<path d="M6.06439 6.81386L5.58094 9.02832C5.55906 9.12876 5.56279 9.2331 5.59181 9.33172C5.62083 9.43034 5.6742 9.52007 5.74699 9.59266C5.82079 9.66342 5.91056 9.71534 6.00869 9.74403C6.10682 9.77273 6.21042 9.77734 6.31072 9.75748L8.52028 9.2728C8.63501 9.24761 8.74008 9.18997 8.82297 9.10675L14.4075 3.52219C14.5783 3.35149 14.7137 3.14883 14.8061 2.92579C14.8985 2.70274 14.946 2.46368 14.946 2.22225C14.946 1.98082 14.8985 1.74176 14.8061 1.51872C14.7137 1.29567 14.5783 1.09301 14.4075 0.922313C14.0575 0.587838 13.592 0.401184 13.1079 0.401184C12.6238 0.401184 12.1583 0.587838 11.8083 0.922313L6.23229 6.51239C6.1486 6.59472 6.09032 6.69936 6.06439 6.81386ZM12.6747 1.78935C12.7913 1.67767 12.9465 1.61532 13.1079 1.61532C13.2693 1.61532 13.4245 1.67767 13.5411 1.78935C13.6545 1.90493 13.718 2.06036 13.718 2.22225C13.718 2.38414 13.6545 2.53957 13.5411 2.65516L13.1079 3.08837L12.2415 2.22195L12.6747 1.78935ZM7.22126 7.25136L11.372 3.0902L12.2298 3.95234L8.07726 8.11471L6.97738 8.35614L7.22126 7.25136Z" fill="white"/>
</g>
<defs>
<clipPath id="clip0_947_1860">
<rect width="14.7059" height="14.7059" fill="white" transform="translate(0.270996 0.353058)"/>
</clipPath>
</defs>
</svg>
