<svg width="13" height="13" viewBox="0 0 13 13" fill="none" xmlns="http://www.w3.org/2000/svg">
<path d="M6.50008 6.90626C4.783 6.90626 3.3855 5.50876 3.3855 3.79168C3.3855 2.07459 4.783 0.677094 6.50008 0.677094C8.21716 0.677094 9.61467 2.07459 9.61467 3.79168C9.61467 5.50876 8.21716 6.90626 6.50008 6.90626ZM6.50008 1.48959C5.23258 1.48959 4.198 2.52418 4.198 3.79168C4.198 5.05918 5.23258 6.09376 6.50008 6.09376C7.76758 6.09376 8.80217 5.05918 8.80217 3.79168C8.80217 2.52418 7.76758 1.48959 6.50008 1.48959Z" fill="#1B5682"/>
<path d="M8.56885 12.3229C8.36302 12.3229 8.16802 12.247 8.02718 12.1062C7.85927 11.9383 7.78343 11.6945 7.82135 11.44L7.92427 10.7087C7.95135 10.5191 8.0651 10.297 8.20052 10.1562L10.118 8.23871C10.8872 7.46954 11.5643 7.90829 11.8947 8.23871C12.1764 8.52037 12.3226 8.82371 12.3226 9.12704C12.3226 9.43579 12.1818 9.72287 11.8947 10.01L9.97713 11.9275C9.84171 12.0629 9.61427 12.1766 9.42468 12.2037L8.69338 12.3066C8.65005 12.3174 8.61218 12.3229 8.56885 12.3229ZM11.0009 8.62329C10.9034 8.62329 10.8168 8.68829 10.6922 8.81287L8.77468 10.7304C8.75843 10.7466 8.73135 10.8008 8.73135 10.8225L8.63385 11.4995L9.31093 11.402C9.3326 11.3966 9.38671 11.3695 9.40296 11.3533L11.3205 9.43579C11.4072 9.34912 11.5101 9.22454 11.5101 9.12704C11.5101 9.04579 11.4451 8.93204 11.3205 8.81287C11.1905 8.68287 11.093 8.62329 11.0009 8.62329Z" fill="#1B5682"/>
<path d="M11.332 10.4107C11.2941 10.4107 11.2561 10.4054 11.2236 10.3945C10.5086 10.1941 9.9399 9.62536 9.73948 8.91036C9.6799 8.6937 9.80448 8.47161 10.0211 8.41203C10.2378 8.35245 10.4599 8.47703 10.5195 8.6937C10.6441 9.13786 10.9961 9.48995 11.4403 9.61453C11.657 9.67411 11.7816 9.90161 11.722 10.1129C11.6732 10.2916 11.5107 10.4107 11.332 10.4107Z" fill="#1B5682"/>
<path d="M1.84717 12.3229C1.62508 12.3229 1.44092 12.1388 1.44092 11.9167C1.44092 9.60375 3.71051 7.71875 6.50011 7.71875C7.09052 7.71875 7.67552 7.80542 8.22261 7.96792C8.43927 8.03292 8.55844 8.26042 8.49344 8.47167C8.42844 8.68833 8.20094 8.8075 7.98969 8.7425C7.51302 8.60167 7.01469 8.52583 6.50011 8.52583C4.1601 8.52583 2.25342 10.0425 2.25342 11.9113C2.25342 12.1388 2.06925 12.3229 1.84717 12.3229Z" fill="#1B5682"/>
</svg>
