<svg width="18" height="18" viewBox="0 0 18 18" fill="none" xmlns="http://www.w3.org/2000/svg">
<path fill-rule="evenodd" clip-rule="evenodd" d="M7.21376 17.8184C6.90162 17.7571 6.70196 17.454 6.76326 17.1441C6.82457 16.8319 7.12771 16.6323 7.43704 16.6936C11.4645 17.4798 15.4212 15.0417 16.5308 11.0913C17.6382 7.13861 15.5246 2.99976 11.6732 1.57852C7.82455 0.158975 3.52934 1.93229 1.80496 5.65607C0.0777714 9.37986 1.50351 13.8044 5.076 15.8213C5.34596 15.9776 5.43876 16.3224 5.28466 16.5923C5.12887 16.8629 4.78354 16.9551 4.51358 16.801C0.448969 14.4613 -1.13987 9.39335 0.864597 5.1527C2.87019 0.914868 7.79361 -1.07554 12.1811 0.58304C16.5679 2.23937 18.9475 6.99013 17.6467 11.4957C16.3463 16.0018 11.8031 18.752 7.20701 17.8184H7.21376Z" fill="#020617"/>
<path fill-rule="evenodd" clip-rule="evenodd" d="M9.01224 3.37568C5.906 3.37568 3.38804 5.89364 3.38804 8.99988C3.38804 12.1061 5.906 14.6241 9.01224 14.6241C12.1185 14.6241 14.6364 12.1061 14.6364 8.99988C14.6364 5.89364 12.1185 3.37568 9.01224 3.37568ZM9.01248 15.7489C5.28419 15.7489 2.26344 12.7282 2.26344 8.99988C2.26344 5.2716 5.28419 2.25084 9.01248 2.25084C12.7408 2.25084 15.7615 5.2716 15.7615 8.99988C15.7615 12.7282 12.7408 15.7489 9.01248 15.7489Z" fill="#020617"/>
<path fill-rule="evenodd" clip-rule="evenodd" d="M9.0124 13.4993C8.70251 13.4993 8.44998 13.2467 8.44998 12.9368C8.44998 12.6269 8.70251 12.3744 9.0124 12.3744C9.3223 12.3744 9.57482 12.6269 9.57482 12.9368C9.57482 13.2467 9.3223 13.4993 9.0124 13.4993ZM9.01274 11.2496C8.70284 11.2496 8.45032 10.997 8.45032 10.6871C8.45032 9.89413 8.92725 9.17761 9.6584 8.87053C10.502 8.53645 10.9306 7.59384 10.6274 6.73896C10.3243 5.88239 9.39912 5.42121 8.53356 5.69117C7.66799 5.96394 7.17194 6.87113 7.40872 7.74569C7.48802 8.04658 7.30579 8.35423 7.0049 8.43072C6.704 8.51002 6.39636 8.32779 6.31931 8.0269C5.94361 6.57248 6.77824 5.08038 8.21298 4.63888C9.64771 4.19513 11.1769 4.95721 11.6865 6.37001C12.196 7.78281 11.5065 9.3469 10.1201 9.92282C9.799 10.0415 9.58191 10.3446 9.57516 10.6871C9.57516 10.997 9.32263 11.2496 9.01274 11.2496Z" fill="#020617"/>
</svg>
