<svg width="24" height="24" viewBox="0 0 24 24" fill="none" xmlns="http://www.w3.org/2000/svg">
<g clip-path="url(#clip0_231_4431)">
<path d="M18.7736 8.64989C19.4123 9.6922 19.9952 10.8361 20.2731 12.016C20.3737 12.443 20.4344 12.8746 20.4433 13.3079C20.4477 13.5217 20.7424 13.5694 20.815 13.3683C21.3379 11.9202 21.3931 10.3479 21.0143 8.83251C20.4134 6.42839 18.9344 4.74295 17.2975 2.9849C16.8418 2.49553 16.2054 1.89037 15.8535 1.22259C15.7621 1.04901 15.5 1.10849 15.493 1.30457C15.4743 1.82184 15.5487 2.32031 15.6863 2.80968C15.941 3.71582 16.4121 4.59065 16.9084 5.49548C17.6292 6.80962 17.9943 7.37765 18.7736 8.64989Z" fill="#FFD250"/>
<path d="M20.815 13.3684C20.7425 13.5693 20.4474 13.5215 20.4431 13.308C20.4339 12.8757 20.3736 12.4443 20.2736 12.0183C20.3543 11.1335 20.2808 10.2333 20.0601 9.35181C19.4592 6.9475 17.9803 5.2623 16.3434 3.5042C16.1454 3.2912 15.9131 3.05613 15.6846 2.80399C15.5479 2.31663 15.4745 1.81999 15.4929 1.30464C15.5001 1.10856 15.7619 1.04913 15.8532 1.22252C16.2054 1.89049 16.8419 2.49569 17.2974 2.98497C18.9342 4.74306 20.4131 6.42822 21.0145 8.83258C21.3932 10.3482 21.3381 11.9204 20.815 13.3684Z" fill="#FFC433"/>
<path d="M5.44035 5.21367C5.04032 5.75634 4.81063 5.94126 4.4526 6.51248C4.17608 6.95367 3.87482 7.79404 3.93018 8.4082C3.94021 8.51948 3.7978 8.57564 3.728 8.4884C3.36374 8.03301 3.04855 7.46034 2.88594 6.95569C2.88538 6.954 2.88486 6.95226 2.8843 6.95058C2.67154 6.28659 2.68316 5.53701 2.99643 4.91409C3.39674 4.11806 4.20824 3.63276 4.93452 3.11662C4.96996 3.09145 5.00539 3.06586 5.04074 3.03989C5.53508 2.67684 6.0156 2.23575 6.27383 1.7039C6.32755 1.59333 6.49311 1.63326 6.49025 1.75617C6.46199 2.95369 6.09636 4.32375 5.44035 5.21367Z" fill="#FFD250"/>
<path d="M6.49041 1.75622C6.46191 2.95355 6.09629 4.3238 5.44037 5.21349C5.04043 5.75639 4.81055 5.94136 4.45266 6.51277C4.17591 6.95372 3.87502 7.79414 3.93005 8.40802C3.94018 8.51958 3.79772 8.57564 3.72816 8.48822C3.36399 8.03325 3.04876 7.46217 2.88647 6.95742C2.98018 6.69469 3.09497 6.4553 3.20508 6.27999C3.56297 5.70858 3.7929 5.52361 4.19279 4.98122C4.57918 4.45669 4.86469 3.76491 5.04001 3.04041C5.53412 2.6767 6.01557 2.23641 6.27352 1.70414C6.32766 1.59347 6.49332 1.63308 6.49041 1.75622Z" fill="#FFC433"/>
<path d="M17.0296 10.8754C17.676 12.178 18.101 13.5717 18.1808 15.0511C18.2939 17.1492 17.7996 19.3339 16.5405 21.0435C15.6903 22.1979 14.5126 23.0692 13.1659 23.5585C12.294 23.8753 11.4237 23.9687 10.5063 23.9958C10.487 23.9963 10.4677 23.9969 10.4484 23.9974C6.06718 24.1137 2.42561 20.3953 2.76193 15.6007C2.87889 13.9336 3.34623 12.2851 4.05029 10.7997C4.14156 10.6072 4.37387 10.5258 4.56428 10.6213C5.09068 10.8856 6.01811 11.6171 6.10225 13.5095C6.16239 14.8585 6.70881 15.8993 7.80132 16.3054C8.26473 16.4777 8.713 16.0231 8.52672 15.5651C7.6225 13.3425 5.95436 7.44766 10.4729 1.5325C10.833 1.06118 11.2322 0.589754 11.6744 0.120019C11.8986 -0.1182 12.2994 0.019941 12.3314 0.345535C12.4357 1.40903 12.8035 2.76789 13.025 3.58858C13.2073 4.26414 13.4485 4.92363 13.7399 5.55977C14.6109 7.46111 16.1 9.00218 17.0296 10.8754Z" fill="#FF982A"/>
<path d="M16.5406 21.0436C15.6905 22.1979 14.5125 23.0693 13.1659 23.5585C12.2946 23.8754 11.4245 23.9686 10.5077 23.9957C10.728 23.9421 10.9475 23.8763 11.1668 23.7967C12.5134 23.3074 13.6914 22.4361 14.5415 21.2817C15.8006 19.5724 16.2947 17.3873 16.1817 15.2892C16.102 13.8098 15.677 12.4164 15.0308 11.1137C14.101 9.24019 12.6119 7.69946 11.7411 5.79792C11.4493 5.16183 11.2083 4.50253 11.0258 3.82683C10.8669 3.23663 10.6313 2.36846 10.4734 1.53192C10.8327 1.0605 11.2325 0.589315 11.6744 0.119862C11.8985 -0.118263 12.2994 0.0198775 12.3313 0.345424C12.4356 1.40897 12.8036 2.76811 13.0248 3.58875C13.2074 4.26399 13.4484 4.92375 13.7397 5.55985C14.611 7.46091 16.1001 9.00216 17.0298 10.8757C17.6761 12.1778 18.1011 13.5717 18.1808 15.0511C18.2939 17.1492 17.7998 19.3338 16.5406 21.0436Z" fill="#FF8700"/>
<path d="M8.65184 21.8466C8.62601 21.8338 8.60042 21.8207 8.57506 21.8075C7.76909 21.3857 7.22361 20.7424 6.86023 19.9013C6.59262 19.2818 6.48312 18.5899 6.54776 17.9171C6.55578 17.8337 6.65768 17.7982 6.71736 17.8569C6.91254 18.0491 7.12381 18.2273 7.3399 18.3932C8.06839 18.9525 9.08168 19.3548 9.93978 18.8308C10.7632 18.328 11.0959 17.1944 11.2343 16.3008C11.2827 15.9891 11.2965 15.6694 11.2972 15.3494C11.2977 15.1069 11.2907 14.8643 11.2853 14.6246C11.2836 14.5478 11.3667 14.4987 11.4334 14.537C12.6595 15.242 13.8941 15.9556 14.2568 17.4466C14.8885 20.0431 12.7 22.429 10.0702 22.2337C9.578 22.1971 9.09425 22.0659 8.65184 21.8466Z" fill="#FFD250"/>
<path d="M10.0703 22.2337C9.57815 22.197 9.09422 22.0661 8.65181 21.8463C8.62622 21.8338 8.60081 21.8208 8.57568 21.8077C8.57714 21.8077 8.57859 21.8076 8.58004 21.8076C10.9915 21.7056 12.8864 19.4526 12.2936 17.0135C12.1231 16.3137 11.761 15.7857 11.2973 15.3486C11.2978 15.1066 11.2909 14.8642 11.2856 14.6246C11.2837 14.5478 11.3667 14.4986 11.4334 14.5372C12.6597 15.2419 13.8942 15.9557 14.2569 17.4467C14.8887 20.0428 12.7003 22.4288 10.0703 22.2337Z" fill="#FFC433"/>
<path d="M14.7072 4.19575C14.8024 4.19575 14.896 4.15713 14.9632 4.08949C15.0475 4.00521 15.0866 3.87963 15.0622 3.76253C15.0272 3.59472 14.8788 3.47125 14.7072 3.47125C14.5078 3.47125 14.345 3.63513 14.345 3.8335C14.345 4.03263 14.5061 4.19575 14.7072 4.19575Z" fill="#FF982A"/>
<path d="M18.645 1.96736C18.7401 1.96736 18.8338 1.92873 18.9009 1.86109C18.9852 1.77681 19.0244 1.65123 18.9999 1.53414C18.9649 1.36633 18.8165 1.24286 18.645 1.24286C18.4456 1.24286 18.2827 1.40673 18.2827 1.60511C18.2827 1.80423 18.4439 1.96736 18.645 1.96736Z" fill="#FF982A"/>
<path d="M20.0289 3.37282C20.124 3.37282 20.2177 3.33419 20.2849 3.26655C20.3691 3.18227 20.4083 3.05669 20.3839 2.9396C20.3488 2.77178 20.2004 2.64832 20.0289 2.64832C19.8295 2.64832 19.6666 2.81219 19.6666 3.01057C19.6666 3.20969 19.8278 3.37282 20.0289 3.37282Z" fill="#FF982A"/>
<path d="M6.4903 7.2458C6.58546 7.2458 6.67911 7.20718 6.74629 7.13954C6.83057 7.05525 6.86971 6.92968 6.84529 6.81258C6.81027 6.64477 6.66186 6.5213 6.4903 6.5213C6.2909 6.5213 6.12805 6.68518 6.12805 6.88355C6.12805 7.08272 6.28921 7.2458 6.4903 7.2458Z" fill="#FF982A"/>
<path d="M5.80183 8.31424C5.60242 8.31424 5.43958 8.47812 5.43958 8.67649C5.43958 8.87566 5.60073 9.03874 5.80183 9.03874C5.89698 9.03874 5.99064 9.00011 6.05781 8.93247C6.14209 8.84819 6.18123 8.72261 6.15681 8.60552C6.12179 8.43766 5.97334 8.31424 5.80183 8.31424Z" fill="#FF982A"/>
<path d="M4.31708 1.76884C4.41224 1.76884 4.5059 1.73022 4.57307 1.66258C4.65735 1.5783 4.69649 1.45272 4.67207 1.33562C4.63705 1.16781 4.48865 1.04434 4.31708 1.04434C4.11768 1.04434 3.95483 1.20822 3.95483 1.40659C3.95483 1.60576 4.11599 1.76884 4.31708 1.76884Z" fill="#FF982A"/>
</g>
<defs>
<clipPath id="clip0_231_4431">
<rect width="24" height="24" fill="white"/>
</clipPath>
</defs>
</svg>
