<svg width="95" height="28" viewBox="0 0 95 28" fill="none" xmlns="http://www.w3.org/2000/svg">
<line x1="12.5" y1="11" x2="82.5" y2="11" stroke="#EAEAEA" stroke-linecap="round" stroke-dasharray="4 4"/>
<g filter="url(#filter0_d_231_4346)">
<path d="M3 12.5L8.52459 7.96032H11.5577L15.7065 8.71693L17.5481 11.7434L21.2311 10.9868L26 10.2302L30.3846 3.42063L31.7278 6.44709L37.5 20.5L39.4623 10.2302L42.777 8.71693H45.5393L48.3016 9.47354L50.5114 11.7434L54.3787 7.96032L58.2459 6.44709L63.218 5.69048L66.5327 4.17725L69.295 7.96032L72.0573 9.47354L76.5 7.96032L80.3442 7.2037L85.3163 8.71693L88.6311 3.42063L92 1.5" stroke="#4DDEB2" stroke-width="2"/>
</g>
<defs>
<filter id="filter0_d_231_4346" x="0.365112" y="0.631256" width="94.1301" height="27.3568" filterUnits="userSpaceOnUse" color-interpolation-filters="sRGB">
<feFlood flood-opacity="0" result="BackgroundImageFix"/>
<feColorMatrix in="SourceAlpha" type="matrix" values="0 0 0 0 0 0 0 0 0 0 0 0 0 0 0 0 0 0 127 0" result="hardAlpha"/>
<feOffset dy="2"/>
<feGaussianBlur stdDeviation="1"/>
<feComposite in2="hardAlpha" operator="out"/>
<feColorMatrix type="matrix" values="0 0 0 0 0.258824 0 0 0 0 0.627451 0 0 0 0 0.427451 0 0 0 0.2 0"/>
<feBlend mode="normal" in2="BackgroundImageFix" result="effect1_dropShadow_231_4346"/>
<feBlend mode="normal" in="SourceGraphic" in2="effect1_dropShadow_231_4346" result="shape"/>
</filter>
</defs>
</svg>
