<svg width="22" height="24" viewBox="0 0 22 24" fill="none" xmlns="http://www.w3.org/2000/svg">
<path d="M19.8488 6.19868L14.8586 1.5667C12.6129 -0.522233 9.21954 -0.522233 6.97392 1.5667L1.98364 6.19868C0.723591 7.3664 0 9.04014 0 10.8047V19.0566C0 21.7813 2.09592 24 4.67839 24H17.1541C19.7366 24 21.8325 21.7813 21.8325 19.0566V10.8047C21.8325 9.05311 21.1089 7.3664 19.8488 6.19868ZM13.7233 22.0408H8.1092V17.824C8.1092 16.2152 9.36925 14.9047 10.9162 14.9047C12.4632 14.9047 13.7233 16.2152 13.7233 17.824V22.0408ZM19.9611 19.0437C19.9611 20.6914 18.7011 22.0408 17.1541 22.0408H15.5946V17.824C15.5946 15.1383 13.4987 12.9585 10.9162 12.9585C8.33377 12.9585 6.23785 15.1383 6.23785 17.824V22.0408H4.67839C3.1314 22.0408 1.87135 20.7044 1.87135 19.0437V10.7917C1.87135 9.58508 2.37038 8.4433 3.23121 7.63887L8.22149 3.00689C9.756 1.57967 12.0765 1.57967 13.611 3.00689L18.6013 7.63887C19.4621 8.4433 19.9611 9.58508 19.9611 10.7917V19.0437Z" fill="white"/>
</svg>
