<svg width="22" height="22" viewBox="0 0 22 22" fill="none" xmlns="http://www.w3.org/2000/svg">
<path d="M21.1012 9.5616L1.75289 0.12336C1.58649 0.04219 1.40377 0 1.21862 0C0.5456 0 0 0.5456 0 1.21862V1.25379C0 1.41731 0.02005 1.58022 0.05971 1.73886L1.91568 9.1627C1.96637 9.3655 2.13782 9.5153 2.34554 9.5384L10.5031 10.4448C10.786 10.4762 11 10.7153 11 11C11 11.2847 10.786 11.5238 10.5031 11.5552L2.34554 12.4616C2.13782 12.4847 1.96637 12.6345 1.91568 12.8373L0.05971 20.2611C0.02005 20.4198 0 20.5827 0 20.7462V20.7814C0 21.4544 0.5456 22 1.21862 22C1.40377 22 1.58649 21.9578 1.75289 21.8766L21.1012 12.4384C21.6511 12.1702 22 11.6119 22 11C22 10.3881 21.6511 9.8298 21.1012 9.5616Z" fill="white"/>
</svg>
