<svg width="18" height="18" viewBox="0 0 18 18" fill="none" xmlns="http://www.w3.org/2000/svg">
<g clip-path="url(#clip0_149_1256)">
<path d="M6.30705 15.1888C6.63166 15.4738 6.96676 15.7678 7.31145 16.0727C7.3138 16.0748 7.3162 16.0769 7.3186 16.079L8.46528 17.0695C8.61892 17.2022 8.80959 17.2685 9.00027 17.2685C9.19095 17.2685 9.38168 17.2021 9.53532 17.0695L10.6818 16.079C10.6842 16.0769 10.6865 16.0748 10.6889 16.0728C12.9588 14.0653 14.6608 12.5284 15.8921 11.0295C17.3302 9.27884 18.0001 7.69596 18.0001 6.04811C18.0001 3.06677 15.6647 0.731445 12.6835 0.731445C11.3436 0.731445 10.0196 1.23599 9.00027 2.1106C7.98065 1.23594 6.65671 0.731445 5.31672 0.731445C2.33538 0.731391 0 3.06677 0 6.04806C0 9.65185 2.50909 11.8545 6.30705 15.1888ZM5.72656 7.36333H7.9088V5.18098H10.0911V7.36333H12.2734V9.54562H10.0911V11.7279H7.9088V9.54562H5.72656V7.36333Z" fill="#F76494"/>
</g>
<defs>
<clipPath id="clip0_149_1256">
<rect width="18" height="18" fill="white"/>
</clipPath>
</defs>
</svg>
