<svg width="20" height="20" viewBox="0 0 20 20" fill="none" xmlns="http://www.w3.org/2000/svg">
<path fill-rule="evenodd" clip-rule="evenodd" d="M14.4237 15.0562C14.3051 15.0553 14.1908 15.0079 14.1064 14.9244L12.8179 13.6325C12.6554 13.4549 12.6615 13.1816 12.8311 13.011C13.0008 12.8405 13.275 12.8344 13.4526 12.9962L14.4237 13.97L16.4108 11.9792C16.5224 11.8561 16.6921 11.8053 16.853 11.8464C17.0138 11.8869 17.1385 12.0127 17.179 12.1727C17.2195 12.3333 17.1684 12.5039 17.0453 12.6146L14.7418 14.9244C14.6574 15.0088 14.5431 15.0562 14.4237 15.0562ZM11.3155 15.1073C10.9263 15.2945 10.5186 15.4394 10.0983 15.5395C10.0272 15.5573 9.95342 15.5573 9.88322 15.5395C7.25953 14.9008 5.61165 12.9161 4.83923 9.47339C4.78546 9.23175 4.93845 8.9919 5.17988 8.93902C5.42175 8.88548 5.66182 9.03847 5.71424 9.28034C6.69793 13.6633 9.07008 14.4103 9.98919 14.6396C10.3402 14.5561 10.6802 14.4357 11.0055 14.2793C11.0757 14.5667 11.1803 14.8445 11.3155 15.1073ZM17.4996 10.1801C16.8439 9.63719 16.0326 9.31522 15.1828 9.26189C15.3182 8.62785 15.4174 7.98661 15.4789 7.34064C15.4939 7.21735 15.4543 7.09427 15.3709 7.00315C15.2917 6.90797 15.1758 6.85082 15.0518 6.84543C13.1173 6.76465 11.4008 5.95871 10.3408 4.63168C10.2531 4.52885 10.1255 4.46991 9.99028 4.46991C9.85574 4.46991 9.72749 4.52885 9.64041 4.63168C8.58068 5.95871 6.86485 6.76465 4.92875 6.84543C4.68013 6.8551 4.48663 7.06435 4.49721 7.31319C4.50688 7.56182 4.71613 7.75509 4.96475 7.74541C6.9634 7.66464 8.76428 6.88592 9.99028 5.59489C11.2023 6.8227 12.8158 7.57329 14.535 7.70941C14.47 8.24648 14.3777 8.77995 14.2574 9.30734C12.3114 9.64124 10.8894 11.3289 10.8885 13.3028C10.8885 13.6316 10.9272 13.9594 11.0055 14.2793C11.0766 14.5667 11.1803 14.8445 11.3155 15.1073C11.7032 15.8885 12.3334 16.5232 13.1121 16.9161C12.1498 17.4925 11.0923 17.8917 9.99028 18.0955C4.44366 17.0065 1.72164 12.1779 1.90614 3.74069C1.90884 3.69389 1.93786 3.65249 1.98016 3.63404C2.02224 3.61469 2.07241 3.62167 2.10841 3.65069C2.84843 4.14321 3.72119 4.39791 4.6097 4.37946C6.28571 4.37946 7.65481 3.59624 8.10413 2.38598C8.19121 2.10856 8.44231 1.91394 8.73345 1.89999H11.2532C11.5423 1.91574 11.7912 2.10946 11.8773 2.38598C12.1208 3.00742 12.5778 3.52064 13.1666 3.83541C13.8416 4.20463 14.6018 4.39161 15.3709 4.37946C16.2603 4.39791 17.133 4.14321 17.8731 3.65069C17.8942 3.63314 17.9214 3.62347 17.9496 3.62347C18.0164 3.62167 18.0717 3.67364 18.0751 3.74069C18.1552 5.90246 17.9619 8.06626 17.4996 10.1801ZM15.2188 16.4353C15.123 16.4476 15.0274 16.4537 14.9306 16.4528C14.6089 16.4546 14.2889 16.4044 13.9831 16.3043C13.1509 16.0433 12.4662 15.4439 12.097 14.6528C11.9591 14.3761 11.8677 14.078 11.8272 13.7713C11.8 13.6167 11.7858 13.4601 11.7867 13.3028C11.7876 11.9274 12.6797 10.7109 13.991 10.2971H13.9964C14.2977 10.2013 14.6134 10.1529 14.9297 10.1529H14.9711C15.8324 10.1644 16.6505 10.5309 17.2341 11.1654C17.5066 11.4554 17.7185 11.7965 17.8583 12.1691C18.0014 12.5302 18.0745 12.9143 18.0745 13.3028C18.0745 14.928 16.837 16.2859 15.2188 16.4353ZM18.9739 3.71752C18.9624 3.162 18.5054 2.71853 17.949 2.72348C17.7355 2.72438 17.5262 2.7921 17.3523 2.91698C16.7633 3.29947 16.0734 3.49522 15.3721 3.47947C14.3886 3.47497 13.1037 3.11025 12.7223 2.07571C12.5086 1.44324 11.9215 1.0126 11.2535 1H8.73379C8.0651 1.0126 7.47605 1.44212 7.26073 2.07571C6.87846 3.11025 5.5944 3.47947 4.61094 3.47947C3.90962 3.49432 3.21956 3.29835 2.63074 2.91698C2.45682 2.7921 2.24757 2.72438 2.03405 2.72348C1.47763 2.71853 1.02066 3.162 1.00919 3.71752C0.811414 12.7044 3.8077 17.8433 9.91165 18.9955C9.93797 18.9989 9.9652 19.0007 9.99242 18.9998C10.0205 19.0007 10.0496 18.9989 10.0777 18.9955C11.5629 18.7379 12.9727 18.1536 14.2048 17.2851C14.4449 17.3307 14.6883 17.3528 14.9327 17.3528C17.166 17.3476 18.9739 15.5362 18.9748 13.3028C18.9763 12.4679 18.7171 11.6532 18.2338 10.9721C18.79 8.92845 19.0362 6.51085 18.9739 3.71752Z" fill="#020617"/>
<path d="M14.1064 14.9244L13.9648 15.0656L13.9658 15.0666L14.1064 14.9244ZM12.8179 13.6325L12.6702 13.7676L12.6762 13.7737L12.8179 13.6325ZM13.4526 12.9962L13.5944 12.8548L13.5873 12.8483L13.4526 12.9962ZM14.4237 13.97L14.282 14.1112L14.4236 14.2531L14.5652 14.1113L14.4237 13.97ZM16.4108 11.9792L16.5525 12.1206L16.559 12.1135L16.4108 11.9792ZM16.853 11.8464L16.8034 12.0402L16.8041 12.0404L16.853 11.8464ZM17.179 12.1727L17.3729 12.1238L17.3729 12.1236L17.179 12.1727ZM17.0453 12.6146L16.9114 12.4657L16.9037 12.4733L17.0453 12.6146ZM14.7418 14.9244L14.8832 15.0658L14.8834 15.0656L14.7418 14.9244ZM10.0983 15.5395L10.052 15.345L10.0498 15.3455L10.0983 15.5395ZM9.88322 15.5395L9.93231 15.3457L9.93053 15.3452L9.88322 15.5395ZM4.83923 9.47339L4.64401 9.51684L4.64408 9.51718L4.83923 9.47339ZM5.17988 8.93902L5.22267 9.13439L5.22311 9.1343L5.17988 8.93902ZM5.71424 9.28034L5.51878 9.32271L5.5191 9.32414L5.71424 9.28034ZM9.98919 14.6396L9.94078 14.8336L9.98806 14.8454L10.0355 14.8341L9.98919 14.6396ZM11.0055 14.2793L11.1998 14.2319L11.1412 13.9922L10.9189 14.0991L11.0055 14.2793ZM15.1828 9.26189L14.9872 9.22011L14.9387 9.44697L15.1702 9.4615L15.1828 9.26189ZM15.4789 7.34064L15.2803 7.31636L15.2798 7.32171L15.4789 7.34064ZM15.3709 7.00315L15.217 7.13122L15.2234 7.13824L15.3709 7.00315ZM15.0518 6.84543L15.0605 6.64561L15.0602 6.6456L15.0518 6.84543ZM10.3408 4.63168L10.4972 4.50679L10.493 4.50185L10.3408 4.63168ZM9.64041 4.63168L9.48773 4.50238L9.48413 4.50688L9.64041 4.63168ZM4.92875 6.84543L4.93653 7.04527L4.93709 7.04525L4.92875 6.84543ZM4.49721 7.31319L4.69705 7.30542L4.69702 7.3047L4.49721 7.31319ZM4.96475 7.74541L4.97253 7.94526L4.97283 7.94525L4.96475 7.74541ZM9.99028 5.59489L10.1326 5.45439L9.9875 5.30738L9.84526 5.45717L9.99028 5.59489ZM14.535 7.70941L14.7336 7.73345L14.7586 7.52649L14.5508 7.51004L14.535 7.70941ZM14.2574 9.30734L14.2912 9.50446L14.4227 9.4819L14.4523 9.35185L14.2574 9.30734ZM10.8885 13.3028L10.6885 13.3028V13.3028H10.8885ZM11.0055 14.2793L10.8112 14.3269L10.8113 14.3274L11.0055 14.2793ZM11.3155 15.1073L11.4947 15.0184L11.4934 15.0158L11.3155 15.1073ZM13.1121 16.9161L13.2149 17.0876L13.5264 16.9011L13.2022 16.7375L13.1121 16.9161ZM9.99028 18.0955L9.95175 18.2918L9.98917 18.2991L10.0267 18.2922L9.99028 18.0955ZM1.90614 3.74069L1.70634 3.72916L1.70619 3.73632L1.90614 3.74069ZM1.98016 3.63404L2.06014 3.8174L2.06373 3.81575L1.98016 3.63404ZM2.10841 3.65069L1.98288 3.80639L1.98999 3.81212L1.9976 3.81719L2.10841 3.65069ZM4.6097 4.37946V4.17941L4.60555 4.1795L4.6097 4.37946ZM8.10413 2.38598L8.29188 2.45568L8.29496 2.44588L8.10413 2.38598ZM8.73345 1.89999V1.69976L8.72388 1.70022L8.73345 1.89999ZM11.2532 1.89999L11.2641 1.69999H11.2532V1.89999ZM11.8773 2.38598L11.6864 2.44549L11.6885 2.45229L11.6911 2.45893L11.8773 2.38598ZM13.1666 3.83541L13.2626 3.65994L13.2609 3.65903L13.1666 3.83541ZM15.3709 4.37946L15.375 4.17937L15.3677 4.17948L15.3709 4.37946ZM17.8731 3.65069L17.9839 3.81719L17.9927 3.81134L18.0008 3.8046L17.8731 3.65069ZM17.9496 3.62347V3.82354L17.9549 3.82339L17.9496 3.62347ZM18.0751 3.74069L18.275 3.73328L18.2749 3.73064L18.0751 3.74069ZM14.9306 16.4528L14.9325 16.2528L14.9295 16.2528L14.9306 16.4528ZM13.9831 16.3043L14.0454 16.1142L14.043 16.1135L13.9831 16.3043ZM12.097 14.6528L12.2783 14.5682L12.276 14.5636L12.097 14.6528ZM11.8272 13.7713L12.0257 13.7451L12.0242 13.7366L11.8272 13.7713ZM11.7867 13.3028L11.9867 13.304V13.303L11.7867 13.3028ZM13.991 10.2971V10.0971H13.9602L13.9308 10.1064L13.991 10.2971ZM13.9964 10.2971V10.4971H14.0275L14.0571 10.4877L13.9964 10.2971ZM14.9711 10.1529L14.9738 9.95288H14.9711V10.1529ZM17.2341 11.1654L17.0869 11.3008L17.0884 11.3023L17.2341 11.1654ZM17.8583 12.1691L17.671 12.2393L17.6723 12.2428L17.8583 12.1691ZM17.949 2.72348L17.9498 2.92348L17.9508 2.92347L17.949 2.72348ZM17.3523 2.91698L17.4613 3.0849L17.4689 3.07944L17.3523 2.91698ZM15.3721 3.47947L15.3766 3.27949L15.373 3.27947L15.3721 3.47947ZM12.7223 2.07571L12.5328 2.13977L12.5347 2.14489L12.7223 2.07571ZM11.2535 1L11.2573 0.8H11.2535V1ZM8.73379 1V0.799965L8.73002 0.800035L8.73379 1ZM7.26073 2.07571L7.4484 2.14506L7.4501 2.14007L7.26073 2.07571ZM4.61094 3.47947V3.27942L4.60671 3.27951L4.61094 3.47947ZM2.63074 2.91698L2.51396 3.07962L2.52202 3.08484L2.63074 2.91698ZM2.03405 2.72348L2.03227 2.92347L2.03321 2.92348L2.03405 2.72348ZM1.00919 3.71752L1.20914 3.72192L1.20914 3.72165L1.00919 3.71752ZM9.91165 18.9955L9.87449 19.1924L9.88622 19.1939L9.91165 18.9955ZM9.99242 18.9998L9.99883 18.7994L9.98581 18.7999L9.99242 18.9998ZM10.0777 18.9955L10.1016 19.1943L10.1119 19.1926L10.0777 18.9955ZM14.2048 17.2851L14.2422 17.0886L14.1589 17.0727L14.0896 17.1216L14.2048 17.2851ZM14.9327 17.3528V17.5528L14.9331 17.5528L14.9327 17.3528ZM18.9748 13.3028L18.7748 13.3025V13.3028L18.9748 13.3028ZM18.2338 10.9721L18.0409 10.9196L18.016 11.0108L18.0707 11.0878L18.2338 10.9721ZM14.4252 14.8562C14.3588 14.8557 14.2944 14.829 14.2471 14.7822L13.9658 15.0666C14.0872 15.1867 14.2514 15.2549 14.4221 15.2562L14.4252 14.8562ZM14.248 14.7832L12.9595 13.4912L12.6762 13.7737L13.9648 15.0656L14.248 14.7832ZM12.9654 13.4974C12.8753 13.3989 12.8784 13.2471 12.9729 13.1521L12.6893 12.87C12.4446 13.116 12.4356 13.5109 12.6703 13.7675L12.9654 13.4974ZM12.9729 13.1521C13.0668 13.0577 13.2191 13.054 13.3179 13.144L13.5873 12.8483C13.3309 12.6148 12.9348 12.6232 12.6893 12.87L12.9729 13.1521ZM13.311 13.1374L14.282 14.1112L14.5653 13.8287L13.5942 12.8549L13.311 13.1374ZM14.5652 14.1113L16.5524 12.1205L16.2693 11.8379L14.2821 13.8287L14.5652 14.1113ZM16.559 12.1135C16.6207 12.0455 16.7142 12.0174 16.8034 12.0402L16.9025 11.6527C16.6699 11.5931 16.4241 11.6668 16.2627 11.8448L16.559 12.1135ZM16.8041 12.0404C16.893 12.0628 16.9625 12.1324 16.9851 12.2218L17.3729 12.1236C17.3145 11.893 17.1346 11.7111 16.9018 11.6525L16.8041 12.0404ZM16.985 12.2216C17.0076 12.3111 16.9789 12.4053 16.9116 12.4659L17.1791 12.7633C17.3579 12.6024 17.4313 12.3555 17.3729 12.1238L16.985 12.2216ZM16.9037 12.4733L14.6002 14.7832L14.8834 15.0656L17.1869 12.7558L16.9037 12.4733ZM14.6004 14.783C14.5534 14.8299 14.49 14.8562 14.4237 14.8562V15.2562C14.5963 15.2562 14.7614 15.1876 14.8832 15.0658L14.6004 14.783ZM11.2289 14.9271C10.8525 15.1081 10.4583 15.2482 10.052 15.345L10.1447 15.7341C10.5789 15.6306 11.0001 15.4809 11.4022 15.2876L11.2289 14.9271ZM10.0498 15.3455C10.0104 15.3554 9.97009 15.3552 9.93231 15.3457L9.83412 15.7334C9.93675 15.7594 10.0441 15.7593 10.1468 15.7336L10.0498 15.3455ZM9.93053 15.3452C8.65868 15.0356 7.62873 14.4021 6.8208 13.4301C6.0105 12.4552 5.41602 11.1306 5.03438 9.42961L4.64408 9.51718C5.03485 11.2589 5.65053 12.6479 6.51319 13.6858C7.37822 14.7265 8.48406 15.4047 9.83591 15.7339L9.93053 15.3452ZM5.03446 9.42995C5.00469 9.29619 5.08958 9.16354 5.22267 9.13439L5.13709 8.74366C4.78733 8.82026 4.56622 9.1673 4.64401 9.51684L5.03446 9.42995ZM5.22311 9.1343C5.3574 9.10456 5.48996 9.18973 5.51878 9.32271L5.90971 9.23798C5.83368 8.88721 5.4861 8.66639 5.13664 8.74375L5.22311 9.1343ZM5.5191 9.32414C6.01819 11.5479 6.87452 12.8692 7.74063 13.6649C8.60657 14.4603 9.46614 14.7152 9.94078 14.8336L10.0376 14.4455C9.59313 14.3346 8.80707 14.1014 8.01123 13.3703C7.21557 12.6394 6.39398 11.3957 5.90939 9.23655L5.5191 9.32414ZM10.0355 14.8341C10.4003 14.7474 10.7538 14.6222 11.0921 14.4596L10.9189 14.0991C10.6065 14.2492 10.28 14.3648 9.94292 14.445L10.0355 14.8341ZM10.8112 14.3268C10.8852 14.6297 10.9955 14.9224 11.1377 15.1988L11.4934 15.0158C11.3652 14.7667 11.2662 14.5036 11.1998 14.2319L10.8112 14.3268ZM17.6271 10.0261C16.939 9.45624 16.0874 9.11826 15.1953 9.06229L15.1702 9.4615C15.9778 9.51217 16.7489 9.81814 17.372 10.3341L17.6271 10.0261ZM15.3784 9.30368C15.5154 8.66221 15.6158 8.01334 15.678 7.35958L15.2798 7.32171C15.2191 7.95989 15.121 8.5935 14.9872 9.22011L15.3784 9.30368ZM15.6774 7.36492C15.6996 7.18354 15.6413 7.00225 15.5183 6.86805L15.2234 7.13824C15.2674 7.18629 15.2883 7.25115 15.2803 7.31637L15.6774 7.36492ZM15.5246 6.87522C15.4091 6.73643 15.2404 6.65345 15.0605 6.64561L15.0431 7.04524C15.1111 7.0482 15.1742 7.07951 15.2171 7.13108L15.5246 6.87522ZM15.0602 6.6456C13.1744 6.56686 11.5156 5.782 10.4971 4.50686L10.1846 4.7565C11.286 6.13542 13.0602 6.96244 15.0435 7.04525L15.0602 6.6456ZM10.493 4.50185C10.3673 4.35457 10.1841 4.26991 9.99028 4.26991V4.66991C10.0669 4.66991 10.1389 4.70314 10.1887 4.76151L10.493 4.50185ZM9.99028 4.26991C9.7974 4.26991 9.61316 4.35438 9.48779 4.50243L9.79304 4.76093C9.84181 4.70333 9.91408 4.66991 9.99028 4.66991V4.26991ZM9.48413 4.50688C8.46585 5.782 6.80777 6.56686 4.92041 6.6456L4.93709 7.04525C6.92193 6.96244 8.69551 6.13542 9.7967 4.75648L9.48413 4.50688ZM4.92097 6.64558C4.562 6.65955 4.2821 6.96191 4.29739 7.32169L4.69702 7.3047C4.69116 7.16679 4.79826 7.05065 4.93653 7.04527L4.92097 6.64558ZM4.29736 7.32097C4.31133 7.68015 4.61371 7.95923 4.97253 7.94526L4.95697 7.54556C4.81854 7.55095 4.70243 7.44349 4.69705 7.30542L4.29736 7.32097ZM4.97283 7.94525C7.01743 7.86262 8.86952 7.06554 10.1353 5.73261L9.84526 5.45717C8.65903 6.70631 6.90936 7.46666 4.95667 7.54558L4.97283 7.94525ZM9.84795 5.7354C11.0938 6.99738 12.7521 7.76887 14.5192 7.90879L14.5508 7.51004C12.8795 7.37771 11.3109 6.64802 10.1326 5.45439L9.84795 5.7354ZM14.3365 7.68538C14.2722 8.21573 14.1812 8.74236 14.0624 9.26284L14.4523 9.35185C14.5743 8.81754 14.6677 8.27724 14.7336 7.73345L14.3365 7.68538ZM14.2235 9.11022C12.1815 9.4606 10.6894 11.2316 10.6885 13.3028L11.0885 13.3029C11.0893 11.4263 12.4412 9.82188 14.2912 9.50446L14.2235 9.11022ZM10.6885 13.3028C10.6885 13.6473 10.729 13.9911 10.8112 14.3269L11.1997 14.2318C11.1253 13.9277 11.0885 13.6159 11.0885 13.3028H10.6885ZM10.8113 14.3274C10.8861 14.6295 10.9952 14.922 11.1377 15.1988L11.4934 15.0158C11.3653 14.767 11.267 14.5038 11.1996 14.2313L10.8113 14.3274ZM11.1364 15.1962C11.5432 16.0161 12.2047 16.6823 13.022 17.0946L13.2022 16.7375C12.4621 16.3642 11.8631 15.7609 11.4947 15.0184L11.1364 15.1962ZM13.0093 16.7445C12.0675 17.3087 11.0325 17.6993 9.95391 17.8988L10.0267 18.2922C11.1521 18.084 12.2321 17.6764 13.2149 17.0876L13.0093 16.7445ZM10.0288 17.8993C7.31135 17.3657 5.29458 15.9211 3.97329 13.5755C2.64707 11.2211 2.01424 7.9452 2.10609 3.74506L1.70619 3.73632C1.61353 7.97335 2.24947 11.3303 3.62478 13.7718C5.00504 16.2221 7.12259 17.7363 9.95175 18.2918L10.0288 17.8993ZM2.10581 3.75221C2.10417 3.7805 2.08705 3.80562 2.06012 3.81736L1.9002 3.45072C1.78867 3.49937 1.7135 3.60728 1.70647 3.72917L2.10581 3.75221ZM2.06373 3.81575C2.03458 3.82915 2.00405 3.82346 1.98288 3.80639L2.23394 3.49499C2.14077 3.41988 2.00989 3.40023 1.8966 3.45234L2.06373 3.81575ZM1.9976 3.81719C2.77153 4.33228 3.6844 4.59871 4.61386 4.57941L4.60555 4.1795C3.75798 4.1971 2.92532 3.95414 2.21922 3.4842L1.9976 3.81719ZM4.6097 4.57946C6.33864 4.57946 7.80382 3.76954 8.29163 2.45559L7.91664 2.31637C7.50581 3.42295 6.23278 4.17946 4.6097 4.17946V4.57946ZM8.29496 2.44588C8.357 2.24821 8.53591 2.10968 8.74302 2.09976L8.72388 1.70022C8.3487 1.71819 8.02542 1.96891 7.91331 2.32609L8.29496 2.44588ZM8.73345 2.09999H11.2532V1.69999H8.73345V2.09999ZM11.2423 2.09969C11.448 2.1109 11.6251 2.24872 11.6864 2.44549L12.0683 2.32648C11.9573 1.97021 11.6366 1.72058 11.2641 1.70028L11.2423 2.09969ZM11.6911 2.45893C11.952 3.12482 12.4416 3.67465 13.0723 4.01179L13.2609 3.65903C12.7139 3.36664 12.2896 2.89003 12.0636 2.31303L11.6911 2.45893ZM13.0706 4.01088C13.7761 4.39679 14.5705 4.59213 15.374 4.57943L15.3677 4.17948C14.6331 4.19109 13.907 4.01248 13.2625 3.65995L13.0706 4.01088ZM15.3667 4.57941C16.2971 4.59871 17.2099 4.33229 17.9839 3.81719L17.7622 3.4842C17.0562 3.95413 16.2235 4.1971 15.375 4.1795L15.3667 4.57941ZM18.0008 3.8046C17.985 3.81765 17.9668 3.82347 17.9496 3.82347V3.42347C17.8761 3.42347 17.8034 3.44863 17.7453 3.49678L18.0008 3.8046ZM17.9549 3.82339C17.9112 3.82457 17.8773 3.79025 17.8754 3.75074L18.2749 3.73064C18.2661 3.55703 18.1215 3.41876 17.9442 3.42354L17.9549 3.82339ZM17.8752 3.7481C17.9547 5.89304 17.763 8.03999 17.3042 10.1374L17.6949 10.2228C18.1609 8.09253 18.3557 5.91189 18.275 3.73328L17.8752 3.7481ZM15.1932 16.2369C15.106 16.2482 15.0195 16.2536 14.9325 16.2528L14.9287 16.6528C15.0352 16.6538 15.14 16.6471 15.2444 16.6336L15.1932 16.2369ZM14.9295 16.2528C14.6293 16.2545 14.3307 16.2077 14.0454 16.1142L13.9209 16.4944C14.2471 16.6012 14.5884 16.6547 14.9317 16.6528L14.9295 16.2528ZM14.043 16.1135C13.2643 15.8693 12.6237 15.3085 12.2782 14.5682L11.9158 14.7374C12.3087 15.5794 13.0374 16.2173 13.9233 16.4951L14.043 16.1135ZM12.276 14.5636C12.1479 14.3066 12.0631 14.0298 12.0255 13.7451L11.6289 13.7975C11.6723 14.1261 11.7702 14.4455 11.918 14.742L12.276 14.5636ZM12.0242 13.7366C11.9989 13.5931 11.9859 13.4485 11.9867 13.304L11.5867 13.3017C11.5857 13.4718 11.6011 13.6404 11.6302 13.806L12.0242 13.7366ZM11.9867 13.303C11.9876 12.0147 12.8231 10.8753 14.0512 10.4878L13.9308 10.1064C12.5363 10.5464 11.5877 11.8401 11.5867 13.3027L11.9867 13.303ZM13.991 10.4971H13.9964V10.0971H13.991V10.4971ZM14.0571 10.4877C14.3385 10.3982 14.6337 10.3529 14.9297 10.3529V9.95288C14.5931 9.95288 14.2569 10.0043 13.9358 10.1065L14.0571 10.4877ZM14.9297 10.3529H14.9711V9.95288H14.9297V10.3529ZM14.9684 10.3529C15.7745 10.3636 16.5404 10.7066 17.0869 11.3008L17.3813 11.03C16.7606 10.3551 15.8902 9.96511 14.9738 9.9529L14.9684 10.3529ZM17.0884 11.3023C17.3427 11.573 17.5405 11.8914 17.671 12.2393L18.0455 12.0989C17.8965 11.7016 17.6705 11.3378 17.3799 11.0284L17.0884 11.3023ZM17.6723 12.2428C17.8061 12.5804 17.8745 12.9394 17.8745 13.3028H18.2745C18.2745 12.8891 18.1966 12.48 18.0442 12.0954L17.6723 12.2428ZM17.8745 13.3028C17.8745 14.8247 16.7156 16.0962 15.2004 16.2361L15.2372 16.6344C16.9584 16.4755 18.2745 15.0313 18.2745 13.3028H17.8745ZM19.1738 3.71338C19.1601 3.0482 18.613 2.51756 17.9472 2.52349L17.9508 2.92347C18.3978 2.91949 18.7647 3.2758 18.7739 3.72165L19.1738 3.71338ZM17.9482 2.52348C17.6931 2.52455 17.4433 2.6054 17.2357 2.75451L17.4689 3.07944C17.6091 2.97881 17.7779 2.9242 17.9498 2.92348L17.9482 2.52348ZM17.2434 2.74924C16.6881 3.10984 16.0377 3.29437 15.3766 3.27952L15.3676 3.67942C16.1091 3.69607 16.8385 3.4891 17.4612 3.08471L17.2434 2.74924ZM15.373 3.27947C14.9026 3.27732 14.3643 3.18858 13.9034 2.98143C13.4433 2.77465 13.0764 2.45807 12.91 2.00653L12.5347 2.14489C12.7496 2.72789 13.2158 3.11093 13.7394 3.34628C14.2622 3.58125 14.8582 3.67712 15.3712 3.67947L15.373 3.27947ZM12.9118 2.01168C12.6711 1.29941 12.0099 0.81423 11.2573 0.800036L11.2498 1.19996C11.8332 1.21097 12.3461 1.58708 12.5328 2.13974L12.9118 2.01168ZM11.2535 0.8H8.73379V1.2H11.2535V0.8ZM8.73002 0.800035C7.97723 0.81422 7.31386 1.29783 7.07137 2.01136L7.4501 2.14007C7.63825 1.58641 8.15297 1.21098 8.73756 1.19996L8.73002 0.800035ZM7.07313 2.00639C6.90617 2.45824 6.53897 2.77595 6.0791 2.9832C5.61843 3.19083 5.08069 3.27947 4.61094 3.27947V3.67947C5.12465 3.67947 5.72067 3.5835 6.24346 3.34788C6.76706 3.11189 7.23303 2.72772 7.44833 2.14503L7.07313 2.00639ZM4.60671 3.27951C3.9454 3.29352 3.29468 3.10872 2.73947 2.74911L2.52202 3.08484C3.14444 3.48798 3.87385 3.69512 4.61517 3.67942L4.60671 3.27951ZM2.74739 2.75451C2.5397 2.6054 2.28997 2.52455 2.03489 2.52348L2.03321 2.92348C2.20517 2.9242 2.37394 2.97881 2.5141 3.07944L2.74739 2.75451ZM2.03583 2.52349C1.37003 2.51756 0.82297 3.0482 0.80923 3.71338L1.20914 3.72165C1.21835 3.2758 1.58523 2.91949 2.03227 2.92347L2.03583 2.52349ZM0.809235 3.71311C0.709926 8.22577 1.41134 11.7988 2.92448 14.3952C4.44258 17.0001 6.76871 18.6058 9.87455 19.192L9.94875 18.799C6.95064 18.233 4.72665 16.6931 3.27007 14.1938C1.80852 11.6859 1.11068 8.19609 1.20914 3.72192L0.809235 3.71311ZM9.88622 19.1939C9.92066 19.1983 9.95884 19.201 9.99903 19.1997L9.98581 18.7999C9.97155 18.8004 9.95529 18.7995 9.93708 18.7971L9.88622 19.1939ZM9.98602 19.1997C10.0266 19.201 10.066 19.1983 10.1015 19.1941L10.0539 18.7969C10.0331 18.7994 10.0145 18.8004 9.99882 18.7999L9.98602 19.1997ZM10.1119 19.1926C11.6263 18.9299 13.0638 18.3341 14.32 17.4485L14.0896 17.1216C12.8817 17.973 11.4995 18.5459 10.0435 18.7984L10.1119 19.1926ZM14.1674 17.4815C14.4203 17.5297 14.6763 17.5528 14.9327 17.5528V17.1528C14.7004 17.1528 14.4695 17.1318 14.2422 17.0886L14.1674 17.4815ZM14.9331 17.5528C17.2767 17.5474 19.1738 15.6465 19.1748 13.3029L18.7748 13.3028C18.7739 15.4258 17.0553 17.1479 14.9322 17.1528L14.9331 17.5528ZM19.1748 13.3032C19.1764 12.4266 18.9043 11.5713 18.3969 10.8564L18.0707 11.0878C18.53 11.735 18.7763 12.5092 18.7748 13.3025L19.1748 13.3032ZM18.4268 11.0246C18.9894 8.95755 19.2364 6.51983 19.1738 3.71305L18.7739 3.72198C18.8359 6.50187 18.5907 8.89935 18.0409 10.9196L18.4268 11.0246Z" fill="#020617"/>
</svg>
