<svg width="14" height="19" viewBox="0 0 14 19" fill="none" xmlns="http://www.w3.org/2000/svg">
<path d="M7.00029 9.63794C6.32424 9.63794 5.77616 10.186 5.77616 10.8621C5.77616 11.5381 6.32423 12.0862 7.00029 12.0862C7.67635 12.0862 8.22443 11.5381 8.22443 10.8621C8.22443 10.186 7.67635 9.63794 7.00029 9.63794ZM5.32788 10.8621C5.32788 9.93846 6.07669 9.18966 7.00029 9.18966C7.9239 9.18966 8.67271 9.93846 8.67271 10.8621C8.67271 11.7857 7.9239 12.5345 7.00029 12.5345C6.07669 12.5345 5.32788 11.7857 5.32788 10.8621Z" fill="#020617" stroke="#020617"/>
<path d="M4.47999 14.3161L4.24437 14.9828H4.95141H9.04903H9.75609L9.52045 14.3161C9.1538 13.2789 8.16461 12.5345 7.00021 12.5345C5.8358 12.5345 4.84662 13.2789 4.47999 14.3161ZM3.87952 15.2069C3.87952 13.4834 5.27669 12.0862 7.00021 12.0862C8.72375 12.0862 10.1209 13.4834 10.1209 15.2069C10.1209 15.3307 10.0205 15.431 9.89676 15.431H4.10365C3.97987 15.431 3.87952 15.3307 3.87952 15.2069Z" fill="#020617" stroke="#020617"/>
<path d="M0.5 7.96552C0.5 7.04187 1.24877 6.2931 2.17241 6.2931H11.8276C12.7512 6.2931 13.5 7.04187 13.5 7.96552V9.41379C13.5 9.53757 13.3996 9.63793 13.2759 9.63793C13.1521 9.63793 13.0517 9.53757 13.0517 9.41379V7.96552C13.0517 7.28946 12.5036 6.74138 11.8276 6.74138H2.17241C1.49634 6.74138 0.948276 7.28946 0.948276 7.96552V16.6552C0.948276 17.3312 1.49634 17.8793 2.17241 17.8793H11.8276C12.5036 17.8793 13.0517 17.3312 13.0517 16.6552V13.2759C13.0517 13.1521 13.1521 13.0517 13.2759 13.0517C13.3996 13.0517 13.5 13.1521 13.5 13.2759V16.6552C13.5 17.5788 12.7512 18.3276 11.8276 18.3276H2.17241C1.24877 18.3276 0.5 17.5788 0.5 16.6552V7.96552Z" fill="#020617" stroke="#020617"/>
<path d="M2.91394 4.10345C2.91394 2.11332 4.52726 0.5 6.51739 0.5H7.48291C9.47303 0.5 11.0864 2.11332 11.0864 4.10345V6.51724C11.0864 6.64102 10.986 6.74138 10.8622 6.74138C10.7384 6.74138 10.6381 6.64102 10.6381 6.51724V4.10345C10.6381 2.3609 9.22548 0.948276 7.48291 0.948276H6.51739C4.77484 0.948276 3.36222 2.3609 3.36222 4.10345V6.51724C3.36222 6.64103 3.26186 6.74138 3.13808 6.74138C3.01429 6.74138 2.91394 6.64103 2.91394 6.51724V4.10345Z" fill="#020617" stroke="#020617"/>
</svg>
