<svg width="16" height="18" viewBox="0 0 16 18" fill="none" xmlns="http://www.w3.org/2000/svg">
<path d="M13.271 2.35834H11.6426V1.62984C11.6426 1.39414 11.3855 1.28701 11.1498 1.28701H9.88561C9.58564 0.429934 8.83569 0.00139499 7.97861 0.00139499C7.13097 -0.0304717 6.35997 0.489279 6.07162 1.28701H4.82886C4.59316 1.28701 4.35746 1.39414 4.35746 1.62984V2.35834H2.72898C1.76395 2.36863 0.974464 3.12991 0.929104 4.09391V16.3715C0.929104 17.3143 1.78618 18 2.72898 18H13.271C14.2138 18 15.0709 17.3143 15.0709 16.3715V4.09395C15.0255 3.12991 14.236 2.36863 13.271 2.35834ZM5.2145 2.14409H6.39299C6.59871 2.11899 6.76395 1.96249 6.80012 1.75841C6.92701 1.20581 7.41182 0.809135 7.97861 0.794207C8.54016 0.811227 9.01766 1.20913 9.13566 1.75841C9.17409 1.96954 9.35023 2.12806 9.5642 2.14409H10.7855V3.85825H5.2145V2.14409ZM14.2138 16.3716C14.2138 16.843 13.7424 17.1429 13.271 17.1429H2.72898C2.25758 17.1429 1.78618 16.843 1.78618 16.3716V4.09395C1.8299 3.60327 2.23642 3.22444 2.72898 3.21546H4.35742V4.30824C4.38006 4.54832 4.58799 4.72792 4.82881 4.71537H11.1497C11.395 4.72878 11.6094 4.55165 11.6425 4.30824V3.21542H13.271C13.7635 3.22444 14.1701 3.60323 14.2138 4.09391V16.3716H14.2138Z" fill="black" stroke="black" stroke-width="0.2"/>
<path d="M6.35013 9.57924C6.1894 9.40982 5.92258 9.40026 5.75016 9.55783L4.37883 10.8649L3.80031 10.2649C3.63958 10.0955 3.37275 10.086 3.20033 10.2435C3.03436 10.4174 3.03436 10.691 3.20033 10.8649L4.07882 11.7648C4.15486 11.8499 4.26469 11.897 4.37879 11.8934C4.49182 11.8918 4.59964 11.8455 4.67875 11.7648L6.35005 10.1792C6.51574 10.0272 6.52681 9.76966 6.37478 9.60401C6.36699 9.59536 6.35874 9.58712 6.35013 9.57924Z" fill="black" stroke="black" stroke-width="0.2"/>
<path d="M12.4997 10.5006H7.57148C7.3348 10.5006 7.14294 10.6924 7.14294 10.9291C7.14294 11.1658 7.3348 11.3577 7.57148 11.3577H12.4997C12.7363 11.3577 12.9282 11.1658 12.9282 10.9291C12.9282 10.6924 12.7363 10.5006 12.4997 10.5006Z" fill="black" stroke="black" stroke-width="0.2"/>
<path d="M6.35013 6.15093C6.1894 5.98151 5.92258 5.97195 5.75016 6.12952L4.37883 7.43655L3.80031 6.83657C3.63958 6.66715 3.37275 6.6576 3.20033 6.81517C3.03436 6.98906 3.03436 7.26265 3.20033 7.43655L4.07882 8.33648C4.15486 8.42162 4.26469 8.46871 4.37879 8.46506C4.49182 8.46346 4.59964 8.41723 4.67875 8.33648L6.35005 6.7509C6.51574 6.59891 6.52681 6.34135 6.37478 6.1757C6.36699 6.16705 6.35874 6.1588 6.35013 6.15093Z" fill="black" stroke="black" stroke-width="0.2"/>
<path d="M12.4997 7.07227H7.57148C7.3348 7.07227 7.14294 7.26413 7.14294 7.50081C7.14294 7.7375 7.3348 7.92935 7.57148 7.92935H12.4997C12.7363 7.92935 12.9282 7.7375 12.9282 7.50081C12.9282 7.26413 12.7363 7.07227 12.4997 7.07227Z" fill="black" stroke="black" stroke-width="0.2"/>
<path d="M6.35013 13.0075C6.1894 12.8381 5.92258 12.8286 5.75016 12.9861L4.37883 14.2931L3.80031 13.6932C3.63958 13.5237 3.37275 13.5142 3.20033 13.6718C3.03436 13.8456 3.03436 14.1192 3.20033 14.2931L4.07882 15.1931C4.15486 15.2782 4.26469 15.3253 4.37879 15.3216C4.49182 15.32 4.59964 15.2738 4.67875 15.1931L6.35005 13.6075C6.51574 13.4555 6.52681 13.1979 6.37478 13.0323C6.36699 13.0237 6.35874 13.0154 6.35013 13.0075Z" fill="black" stroke="black" stroke-width="0.2"/>
<path d="M12.4997 13.9289H7.57148C7.3348 13.9289 7.14294 14.1208 7.14294 14.3574C7.14294 14.5941 7.3348 14.786 7.57148 14.786H12.4997C12.7363 14.786 12.9282 14.5941 12.9282 14.3574C12.9282 14.1208 12.7363 13.9289 12.4997 13.9289Z" fill="black" stroke="black" stroke-width="0.2"/>
</svg>
