<svg width="18" height="18" viewBox="0 0 18 18" fill="none" xmlns="http://www.w3.org/2000/svg">
<g clip-path="url(#clip0_122_1963)">
<path fill-rule="evenodd" clip-rule="evenodd" d="M7.63794 0.0309143C3.41961 0.0309143 0 3.45053 0 7.66886C0 11.8872 3.41961 15.3068 7.63794 15.3068C11.8563 15.3068 15.2759 11.8872 15.2759 7.66886C15.2759 3.45053 11.8563 0.0309143 7.63794 0.0309143ZM17.6852 17.6407C17.2602 18.0732 16.5611 18.0793 16.1286 17.6544L13.0755 14.6543C13.6563 14.2016 14.1791 13.6779 14.6311 13.0964L17.6716 16.0841C18.1041 16.5091 18.1102 17.2082 17.6852 17.6407ZM7.63794 2.15752C10.6818 2.15752 13.1492 4.62503 13.1492 7.66882C13.1492 10.7126 10.6817 13.1801 7.63794 13.1801C4.59411 13.1801 2.12664 10.7126 2.12664 7.66882C2.12664 4.62503 4.59415 2.15752 7.63794 2.15752Z" fill="#1B5682"/>
</g>
<defs>
<clipPath id="clip0_122_1963">
<rect width="18" height="18" fill="white"/>
</clipPath>
</defs>
</svg>
