<svg width="37" height="36" viewBox="0 0 37 36" fill="none" xmlns="http://www.w3.org/2000/svg">
<g clip-path="url(#clip0_231_4739)">
<path d="M35.625 22.3537C34.7673 25.8113 32.9029 28.9366 30.2678 31.334C27.6328 33.7313 24.3457 35.2929 20.8227 35.8209C17.2997 36.349 13.6992 35.8198 10.4771 34.3003C7.25501 32.7809 4.55624 30.3395 2.72249 27.2854C0.88873 24.2312 0.00246061 20.7016 0.17589 17.1435C0.34932 13.5853 1.57465 10.1586 3.69674 7.29729C5.81882 4.43595 8.74223 2.26862 12.0968 1.06974C15.4514 -0.129148 19.0863 -0.30568 22.5412 0.562492C27.1621 1.72362 31.1341 4.6694 33.5866 8.75417C36.0391 12.8389 36.7722 17.7294 35.625 22.3537Z" fill="#000101"/>
<g opacity="0.24">
<path d="M18.1875 36C15.4561 35.9955 12.7615 35.3695 10.3079 34.1694C7.85428 32.9692 5.70597 31.2264 4.02571 29.073C2.34545 26.9195 1.17731 24.4119 0.609768 21.7401C0.0422291 19.0683 0.0901805 16.3024 0.74999 13.6519C1.90989 9.03001 4.85516 5.05667 8.94007 2.60299C13.025 0.149301 17.9162 -0.584485 22.5412 0.562504C26.7795 1.64733 30.4776 4.23859 32.9442 7.85185C35.4108 11.4651 36.477 15.853 35.9435 20.1953C35.41 24.5375 33.3134 28.5368 30.0455 31.4456C26.7777 34.3543 22.5623 35.9734 18.1875 36ZM18.1875 3.375C14.9253 3.37754 11.7575 4.47069 9.18804 6.48062C6.61855 8.49055 4.79482 11.3019 4.00686 14.4675C3.20775 18.1796 3.88373 22.057 5.89184 25.2797C7.89995 28.5024 11.0828 30.8178 14.7672 31.7362C18.4516 32.6545 22.3488 32.1039 25.6345 30.2007C28.9203 28.2975 31.3371 25.191 32.3737 21.5381C33.3109 17.7758 32.7158 13.7952 30.719 10.4715C28.7223 7.14786 25.4874 4.75312 21.7256 3.81375C20.5682 3.52546 19.3802 3.37814 18.1875 3.375Z" fill="white"/>
</g>
<g opacity="0.3">
<path d="M35.1131 11.8856L0.418094 20.8856C-0.298309 16.4598 0.662803 11.9258 3.11331 8.1713C5.56382 4.41676 9.32731 1.71189 13.6671 0.586125C18.007 -0.539645 22.6107 -0.00526978 26.5773 2.08466C30.5439 4.17458 33.5878 7.6696 35.1131 11.8856Z" fill="white"/>
</g>
<path d="M32.3737 21.5381C31.6744 24.3453 30.1584 26.8819 28.0173 28.8273C25.8762 30.7727 23.2062 32.0395 20.3451 32.4673C17.484 32.8951 14.5603 32.4647 11.9438 31.2307C9.32729 29.9967 7.13554 28.0144 5.64576 25.5346C4.15598 23.0548 3.43511 20.1888 3.57432 17.2993C3.71353 14.4097 4.70658 11.6263 6.42785 9.30123C8.14912 6.97612 10.5213 5.21371 13.2443 4.23693C15.9673 3.26015 18.9189 3.11288 21.7256 3.81375C25.4874 4.75312 28.7223 7.14786 30.719 10.4715C32.7157 13.7952 33.3109 17.7758 32.3737 21.5381Z" fill="#000101"/>
<path d="M12.3038 21.6056C12.3559 21.5525 12.418 21.5102 12.4866 21.4812C12.5551 21.4523 12.6287 21.4372 12.7032 21.4369H26.6532C26.7313 21.4413 26.8045 21.4761 26.8571 21.534C26.9097 21.5919 26.9375 21.6681 26.9344 21.7463C26.9296 21.8169 26.902 21.884 26.8557 21.9375L24.0994 24.6881C24.0473 24.7413 23.9852 24.7836 23.9166 24.8125C23.8481 24.8415 23.7745 24.8566 23.7 24.8569H9.75004C9.6897 24.8608 9.62968 24.8455 9.57855 24.8132C9.52742 24.7809 9.4878 24.7333 9.46534 24.6771C9.44289 24.621 9.43874 24.5592 9.45351 24.5006C9.46827 24.4419 9.50118 24.3895 9.54754 24.3506L12.3038 21.6056Z" fill="url(#paint0_linear_231_4739)"/>
<path d="M12.3037 11.3119C12.3558 11.2587 12.418 11.2164 12.4865 11.1875C12.5551 11.1585 12.6287 11.1434 12.7031 11.1431H26.6531C26.691 11.1431 26.7285 11.1507 26.7634 11.1656C26.7983 11.1804 26.8298 11.2021 26.8561 11.2294C26.8823 11.2568 26.9028 11.2891 26.9163 11.3245C26.9297 11.36 26.9359 11.3978 26.9344 11.4356C26.9337 11.5088 26.9056 11.579 26.8556 11.6325L24.0994 14.3944C24.0473 14.4475 23.9851 14.4898 23.9166 14.5188C23.848 14.5477 23.7744 14.5628 23.7 14.5631H9.74999C9.6719 14.5588 9.59865 14.5239 9.54604 14.466C9.49342 14.4081 9.46566 14.3319 9.46874 14.2538C9.47355 14.1831 9.50119 14.116 9.54749 14.0625L12.3037 11.3119Z" fill="url(#paint1_linear_231_4739)"/>
<path d="M24.0994 16.425C24.0473 16.3719 23.9851 16.3296 23.9166 16.3006C23.848 16.2716 23.7744 16.2566 23.7 16.2563H9.74999C9.6719 16.2606 9.59865 16.2955 9.54604 16.3534C9.49342 16.4112 9.46566 16.4875 9.46874 16.5656C9.47355 16.6362 9.50119 16.7034 9.54749 16.7569L12.3037 19.5019C12.3558 19.555 12.418 19.5973 12.4865 19.6263C12.5551 19.6552 12.6287 19.6703 12.7031 19.6706H26.6531C26.6908 19.6699 26.7279 19.6618 26.7625 19.6467C26.797 19.6316 26.8282 19.6098 26.8543 19.5826C26.8804 19.5555 26.901 19.5234 26.9147 19.4883C26.9284 19.4533 26.9351 19.4158 26.9344 19.3781C26.9337 19.305 26.9056 19.2347 26.8556 19.1813L24.0994 16.425Z" fill="url(#paint2_linear_231_4739)"/>
</g>
<defs>
<linearGradient id="paint0_linear_231_4739" x1="26.0963" y1="11.5594" x2="15.3807" y2="27.27" gradientUnits="userSpaceOnUse">
<stop stop-color="#00FFA3"/>
<stop offset="1" stop-color="#DC1FFF"/>
</linearGradient>
<linearGradient id="paint1_linear_231_4739" x1="21.3094" y1="8.29125" x2="10.5937" y2="24.0019" gradientUnits="userSpaceOnUse">
<stop stop-color="#00FFA3"/>
<stop offset="1" stop-color="#DC1FFF"/>
</linearGradient>
<linearGradient id="paint2_linear_231_4739" x1="23.6944" y1="9.91688" x2="12.9787" y2="25.6275" gradientUnits="userSpaceOnUse">
<stop stop-color="#00FFA3"/>
<stop offset="1" stop-color="#DC1FFF"/>
</linearGradient>
<clipPath id="clip0_231_4739">
<rect width="36.0056" height="36" fill="white" transform="translate(0.1875)"/>
</clipPath>
</defs>
</svg>
