<svg width="16" height="18" viewBox="0 0 16 18" fill="none" xmlns="http://www.w3.org/2000/svg">
<path fill-rule="evenodd" clip-rule="evenodd" d="M9.16549 7.94519C9.16021 8.30085 8.97406 8.6328 8.65984 8.82872V10.5296C8.65984 10.8753 8.36544 11.1536 7.99974 11.1536C7.63404 11.1536 7.33963 10.8753 7.33963 10.5296V8.82872C7.02542 8.6328 6.83927 8.30085 6.83398 7.94519C6.83398 7.33621 7.35547 6.84328 7.99974 6.84328C8.644 6.84328 9.16549 7.33621 9.16549 7.94519ZM14.4726 10.3C14.0647 12.9469 10.9133 15.2817 9.07692 16.4423C8.42209 16.8566 7.57715 16.8566 6.92232 16.4423C5.0859 15.2817 1.93454 12.9469 1.5332 10.3736L1.32064 4.22764C1.3114 3.94811 1.49623 3.69977 1.78008 3.61242C3.81717 3.05085 5.78166 2.29087 7.64844 1.33995C7.86496 1.20892 8.13428 1.20892 8.3508 1.33995C10.2176 2.29087 12.1873 3.05085 14.2244 3.61242C14.503 3.69977 14.6892 3.94811 14.6786 4.22764L14.4726 10.3ZM14.6169 2.4219C12.6828 1.89153 10.816 1.17024 9.03637 0.277974C8.40267 -0.0926581 7.59733 -0.0926581 6.96363 0.277974C5.18398 1.17024 3.31719 1.89153 1.38307 2.4219C0.538134 2.67648 -0.0242779 3.43147 0.000806248 4.27007L0.217322 10.481C0.708442 13.6058 4.16873 16.2089 6.19526 17.4806C7.2884 18.1731 8.7116 18.1731 9.80474 17.4806C11.8326 16.2089 15.2929 13.6058 15.788 10.4123L15.9992 4.27007C16.0243 3.43147 15.4632 2.67648 14.6169 2.4219Z" fill="#020617"/>
</svg>
