<svg width="37" height="36" viewBox="0 0 37 36" fill="none" xmlns="http://www.w3.org/2000/svg">
<path d="M10.8375 12.6C10.6875 12.9 10.6875 13.2 10.8375 13.5L17.2875 24.9V12.3H11.5875C11.2875 12.3 10.9875 12.3 10.8375 12.6Z" fill="#0088CC"/>
<path d="M24.7875 12.3H19.0875V24.9L25.5375 13.5C25.6875 13.2 25.6875 12.9 25.5375 12.75C25.3875 12.3 25.2375 12.3 24.7875 12.3Z" fill="#0088CC"/>
<path d="M18.1875 1.5C9.0375 1.5 1.6875 8.85 1.6875 18C1.6875 27.15 9.0375 34.5 18.1875 34.5C27.3375 34.5 34.6875 27.15 34.6875 18C34.6875 8.85 27.3375 1.5 18.1875 1.5ZM27.1875 14.4L19.2375 28.5C18.9375 28.95 18.6375 29.1 18.1875 29.1C17.7375 29.1 17.2875 28.8 17.1375 28.5L9.1875 14.4C8.5875 13.5 8.5875 12.45 9.1875 11.7C9.6375 10.8 10.5375 10.35 11.5875 10.35H24.9375C25.9875 10.35 26.8875 10.8 27.3375 11.7C27.6375 12.15 27.6375 12.6 27.6375 13.05C27.6375 13.5 27.4875 13.95 27.1875 14.4Z" fill="#0088CC"/>
</svg>
