<svg width="18" height="13" viewBox="0 0 18 13" fill="none" xmlns="http://www.w3.org/2000/svg">
<path d="M15.0056 3.15907H12.6363V0H1.57956C0.706833 0 0 0.706833 0 1.57956V10.2671H1.57956C1.57956 11.5741 2.64179 12.6364 3.94887 12.6364C5.25595 12.6364 6.31818 11.5741 6.31818 10.2671H11.0568C11.0568 11.5741 12.119 12.6364 13.4261 12.6364C14.7332 12.6364 15.7954 11.5741 15.7954 10.2671H17.375V6.31818L15.0056 3.15907ZM3.94887 11.4517C3.29335 11.4517 2.76421 10.9225 2.76421 10.267C2.76421 9.6115 3.29335 9.08236 3.94887 9.08236C4.60439 9.08236 5.13353 9.6115 5.13353 10.267C5.13353 10.9225 4.60436 11.4517 3.94887 11.4517ZM13.4261 11.4517C12.7706 11.4517 12.2415 10.9225 12.2415 10.267C12.2415 9.6115 12.7706 9.08236 13.4261 9.08236C14.0817 9.08236 14.6108 9.6115 14.6108 10.267C14.6108 10.9225 14.0816 11.4517 13.4261 11.4517ZM12.6363 6.31818V4.34377H14.6107L16.1627 6.31818H12.6363Z" fill="#6347EB"/>
</svg>
