<svg width="25" height="25" viewBox="0 0 25 25" fill="none" xmlns="http://www.w3.org/2000/svg">
<path d="M12.5001 12.9063C10.783 12.9063 9.3855 11.5088 9.3855 9.79168C9.3855 8.07459 10.783 6.67709 12.5001 6.67709C14.2172 6.67709 15.6147 8.07459 15.6147 9.79168C15.6147 11.5088 14.2172 12.9063 12.5001 12.9063ZM12.5001 7.48959C11.2326 7.48959 10.198 8.52418 10.198 9.79168C10.198 11.0592 11.2326 12.0938 12.5001 12.0938C13.7676 12.0938 14.8022 11.0592 14.8022 9.79168C14.8022 8.52418 13.7676 7.48959 12.5001 7.48959Z" fill="#1B5682"/>
<path d="M14.5688 18.3229C14.363 18.3229 14.168 18.247 14.0272 18.1062C13.8593 17.9383 13.7834 17.6945 13.8213 17.44L13.9243 16.7087C13.9513 16.5191 14.0651 16.297 14.2005 16.1562L16.118 14.2387C16.8872 13.4695 17.5643 13.9083 17.8947 14.2387C18.1764 14.5204 18.3226 14.8237 18.3226 15.127C18.3226 15.4358 18.1818 15.7229 17.8947 16.01L15.9771 17.9275C15.8417 18.0629 15.6143 18.1766 15.4247 18.2037L14.6934 18.3066C14.65 18.3174 14.6122 18.3229 14.5688 18.3229ZM17.0009 14.6233C16.9034 14.6233 16.8168 14.6883 16.6922 14.8129L14.7747 16.7304C14.7584 16.7466 14.7313 16.8008 14.7313 16.8225L14.6338 17.4995L15.3109 17.402C15.3326 17.3966 15.3867 17.3695 15.403 17.3533L17.3205 15.4358C17.4072 15.3491 17.5101 15.2245 17.5101 15.127C17.5101 15.0458 17.4451 14.932 17.3205 14.8129C17.1905 14.6829 17.093 14.6233 17.0009 14.6233Z" fill="#1B5682"/>
<path d="M17.332 16.4107C17.2941 16.4107 17.2561 16.4054 17.2236 16.3945C16.5086 16.1941 15.9399 15.6254 15.7395 14.9104C15.6799 14.6937 15.8045 14.4716 16.0211 14.412C16.2378 14.3524 16.4599 14.477 16.5195 14.6937C16.6441 15.1379 16.9961 15.4899 17.4403 15.6145C17.657 15.6741 17.7816 15.9016 17.722 16.1129C17.6732 16.2916 17.5107 16.4107 17.332 16.4107Z" fill="#1B5682"/>
<path d="M7.84717 18.3229C7.62508 18.3229 7.44092 18.1388 7.44092 17.9167C7.44092 15.6038 9.71051 13.7188 12.5001 13.7188C13.0905 13.7188 13.6755 13.8054 14.2226 13.9679C14.4393 14.0329 14.5584 14.2604 14.4934 14.4717C14.4284 14.6883 14.2009 14.8075 13.9897 14.7425C13.513 14.6017 13.0147 14.5258 12.5001 14.5258C10.1601 14.5258 8.25342 16.0425 8.25342 17.9113C8.25342 18.1388 8.06925 18.3229 7.84717 18.3229Z" fill="#1B5682"/>
<path d="M10.8034 0.873132C10.7436 0.46326 11.0273 0.0801402 11.4401 0.0450121C13.7967 -0.15557 16.1677 0.316375 18.2744 1.41371C20.6034 2.62679 22.4912 4.54254 23.67 6.8891C24.8487 9.23567 25.2585 11.8939 24.8412 14.4865C24.4238 17.0791 23.2006 19.4744 21.3451 21.3326C19.4896 23.1907 17.096 24.4173 14.504 24.8383C11.9119 25.2593 9.25317 24.8533 6.90494 23.6779C4.55671 22.5025 2.63829 20.6174 1.4219 18.2901C0.321587 16.1849 -0.153719 13.8146 0.043522 11.4577C0.0780651 11.045 0.460782 10.7607 0.870739 10.8199C1.2807 10.8791 1.56232 11.2595 1.53116 11.6725C1.37691 13.717 1.79696 15.7695 2.75128 17.5953C3.82169 19.6433 5.5099 21.3022 7.57635 22.3365C9.64279 23.3709 11.9825 23.7282 14.2635 23.3577C16.5445 22.9873 18.6508 21.9078 20.2837 20.2727C21.9166 18.6375 22.993 16.5296 23.3602 14.2481C23.7274 11.9666 23.3668 9.62739 22.3296 7.56241C21.2923 5.49743 19.631 3.81157 17.5815 2.74406C15.7543 1.79234 13.7012 1.37519 11.657 1.53234C11.244 1.56409 10.8632 1.28301 10.8034 0.873132Z" fill="#D1F9FD"/>
<path d="M24.25 12.5C24.6642 12.5 25.0023 12.8361 24.9775 13.2496C24.8372 15.5863 24.0428 17.8423 22.678 19.7566C21.1677 21.8749 19.0341 23.4692 16.5747 24.3172C14.1152 25.1653 11.4524 25.2248 8.9575 24.4875C6.46259 23.7502 4.25989 22.2529 2.65645 20.2042C1.05301 18.1555 0.128744 15.6576 0.0124872 13.0586C-0.10377 10.4596 0.593778 7.88914 2.00789 5.70547C3.42201 3.52179 5.48222 1.83375 7.90133 0.87665C10.0875 0.0117313 12.4682 -0.21731 14.7703 0.207884C15.1776 0.283119 15.4226 0.6921 15.3231 1.09418C15.2236 1.49626 14.8172 1.73885 14.4092 1.66695C12.411 1.31476 10.3489 1.52141 8.45317 2.27145C6.32435 3.1137 4.51137 4.59918 3.26695 6.52081C2.02252 8.44244 1.40868 10.7045 1.51099 12.9916C1.61329 15.2787 2.42665 17.4768 3.83768 19.2797C5.2487 21.0825 7.18708 22.4002 9.3826 23.049C11.5781 23.6978 13.9214 23.6454 16.0857 22.8992C18.25 22.1529 20.1276 20.7499 21.4566 18.8858C22.6402 17.2258 23.3362 15.2738 23.4744 13.2495C23.5027 12.8362 23.8358 12.5 24.25 12.5Z" fill="#089BAB"/>
</svg>
