<svg width="17" height="18" viewBox="0 0 17 18" fill="none" xmlns="http://www.w3.org/2000/svg">
<path d="M2.31551 6.09828C3.84038 6.73366 5.4293 7.13539 7.05742 7.29883L6.28989 5.9694L3.67258 6.12651C3.38187 6.14395 3.13202 5.92243 3.11458 5.63172C3.09714 5.34102 3.31866 5.0912 3.60937 5.07372L5.70029 4.94821L5.2352 4.14268L2.61789 4.29979C2.32718 4.31723 2.07733 4.09571 2.05989 3.805C2.04245 3.5143 2.26397 3.26448 2.55468 3.247L4.6456 3.1215L4.06148 2.10973C3.47901 1.10082 2.18895 0.755164 1.18004 1.33763C0.171122 1.92014 -0.174534 3.2102 0.40797 4.21911L1.23231 5.64695L2.31551 6.09828Z" fill="#FFBF3E"/>
<path d="M8.73843 7.38281C9.43818 7.38281 10.1324 7.33961 10.8192 7.25382C10.8377 7.12364 10.8478 6.99075 10.8478 6.85547C10.8478 5.30216 9.58861 4.04297 8.0353 4.04297C7.51801 4.04297 7.03374 4.18324 6.61731 4.42691L8.32095 7.37768C8.45988 7.38109 8.59903 7.38281 8.73843 7.38281Z" fill="#FFBF3E"/>
<path d="M11.5302 5.20088C11.9199 4.17038 11.9913 3.39493 11.9923 3.38305C12.017 3.09287 12.2723 2.87835 12.5624 2.90225C12.8526 2.92693 13.0679 3.1822 13.0432 3.47238C13.0367 3.54811 12.8903 5.13974 11.9017 6.89143C11.9011 6.95577 11.8985 7.01961 11.8948 7.08318C13.009 6.86883 14.1006 6.54015 15.1612 6.09824L15.7959 5.83376C15.7126 5.62932 15.5963 5.43878 15.4505 5.2707C16.1664 4.95327 16.6486 4.24044 16.6486 3.42773C16.6486 2.31307 15.7418 1.40625 14.6271 1.40625C14.4505 1.40625 14.2757 1.42995 14.1045 1.47688C13.8655 0.615691 13.0823 0 12.1662 0C11.2739 0 10.5015 0.58166 10.2412 1.41546C10.1791 1.40931 10.1178 1.40625 10.0568 1.40625C9.09288 1.40625 8.28489 2.08463 8.08386 2.98891C9.60391 3.00772 10.9155 3.90786 11.5302 5.20088Z" fill="#FFBF3E"/>
<path d="M15.5668 7.07183C13.392 7.97805 11.0945 8.43751 8.7384 8.43751C6.38227 8.43751 4.08484 7.97805 1.90997 7.07183C1.54002 6.91767 1.14012 7.21625 1.18283 7.61478C1.35851 9.25447 1.99442 15.2533 2.13669 16.5861C2.22272 17.3921 2.89902 18 3.70976 18H13.767C14.5778 18 15.2541 17.3921 15.3401 16.586C15.4824 15.2533 16.1183 9.25443 16.294 7.61475C16.3367 7.21625 15.9368 6.91767 15.5668 7.07183ZM12.7814 14.4844C12.7814 14.7756 12.5453 15.0117 12.254 15.0117H5.22278C4.93155 15.0117 4.69544 14.7756 4.69544 14.4844V11.6719C4.69544 11.3806 4.93155 11.1445 5.22278 11.1445H12.254C12.5453 11.1445 12.7814 11.3806 12.7814 11.6719V14.4844Z" fill="#FFBF3E"/>
<path d="M5.75 12.1992H11.7266V13.957H5.75V12.1992Z" fill="#FFBF3E"/>
</svg>
